<svg width="18" height="18" viewBox="0 0 18 18" fill="none" xmlns="http://www.w3.org/2000/svg">
<path d="M9.00033 0.666504C7.35215 0.666504 5.74099 1.15525 4.37058 2.07092C3.00017 2.9866 1.93206 4.28809 1.30133 5.81081C0.670603 7.33353 0.505575 9.00908 0.827119 10.6256C1.14866 12.2421 1.94234 13.727 3.10777 14.8924C4.27321 16.0578 5.75807 16.8515 7.37458 17.173C8.99109 17.4946 10.6666 17.3296 12.1894 16.6988C13.7121 16.0681 15.0136 15 15.9292 13.6296C16.8449 12.2592 17.3337 10.648 17.3337 8.99984C17.3337 7.90549 17.1181 6.82186 16.6993 5.81081C16.2805 4.79976 15.6667 3.8811 14.8929 3.10728C14.1191 2.33346 13.2004 1.71963 12.1894 1.30084C11.1783 0.882052 10.0947 0.666504 9.00033 0.666504ZM9.00033 15.6665C7.68179 15.6665 6.39286 15.2755 5.29653 14.543C4.2002 13.8104 3.34572 12.7692 2.84113 11.5511C2.33655 10.3329 2.20453 8.99244 2.46176 7.69924C2.719 6.40603 3.35393 5.21814 4.28628 4.28579C5.21863 3.35344 6.40652 2.7185 7.69973 2.46127C8.99293 2.20403 10.3334 2.33606 11.5516 2.84064C12.7697 3.34522 13.8109 4.19971 14.5435 5.29604C15.276 6.39236 15.667 7.6813 15.667 8.99984C15.667 10.7679 14.9646 12.4636 13.7144 13.7139C12.4641 14.9641 10.7684 15.6665 9.00033 15.6665ZM12.3337 8.1665H9.83366V5.6665C9.83366 5.44549 9.74586 5.23353 9.58958 5.07725C9.4333 4.92097 9.22134 4.83317 9.00033 4.83317C8.77932 4.83317 8.56735 4.92097 8.41107 5.07725C8.25479 5.23353 8.167 5.44549 8.167 5.6665V8.1665H5.667C5.44598 8.1665 5.23402 8.2543 5.07774 8.41058C4.92146 8.56686 4.83366 8.77882 4.83366 8.99984C4.83366 9.22085 4.92146 9.43281 5.07774 9.58909C5.23402 9.74537 5.44598 9.83317 5.667 9.83317H8.167V12.3332C8.167 12.5542 8.25479 12.7661 8.41107 12.9224C8.56735 13.0787 8.77932 13.1665 9.00033 13.1665C9.22134 13.1665 9.4333 13.0787 9.58958 12.9224C9.74586 12.7661 9.83366 12.5542 9.83366 12.3332V9.83317H12.3337C12.5547 9.83317 12.7666 9.74537 12.9229 9.58909C13.0792 9.43281 13.167 9.22085 13.167 8.99984C13.167 8.77882 13.0792 8.56686 12.9229 8.41058C12.7666 8.2543 12.5547 8.1665 12.3337 8.1665Z" fill="white"/>
</svg>
