<svg width="20" height="20" viewBox="0 0 20 20" fill="none" xmlns="http://www.w3.org/2000/svg">
<path d="M19 15.9999H12.82C12.6707 15.5806 12.4299 15.1996 12.1151 14.8848C11.8003 14.5701 11.4194 14.3293 11 14.1799V11.9999H14.67C15.2871 11.9973 15.8783 11.751 16.3147 11.3146C16.751 10.8782 16.9974 10.2871 17 9.66995V4.32995C16.9974 3.7128 16.751 3.12169 16.3147 2.6853C15.8783 2.24891 15.2871 2.00258 14.67 1.99995H10.67L10.54 1.58995C10.3858 1.13389 10.0947 0.736486 9.70633 0.451942C9.31799 0.167397 8.85133 0.00955832 8.37 -5.15467e-05H5.37C5.06103 -0.00401572 4.75434 0.053252 4.46762 0.168446C4.1809 0.283641 3.91983 0.45448 3.69949 0.671104C3.47915 0.887729 3.30389 1.14585 3.18383 1.43057C3.06377 1.71528 3.0013 2.02096 3 2.32995V9.66995C3.00263 10.2871 3.24896 10.8782 3.68535 11.3146C4.12174 11.751 4.71286 11.9973 5.33 11.9999H9V14.1799C8.5806 14.3293 8.19969 14.5701 7.8849 14.8848C7.57011 15.1996 7.32932 15.5806 7.18 15.9999H1C0.734784 15.9999 0.48043 16.1053 0.292893 16.2928C0.105357 16.4804 0 16.7347 0 16.9999C0 17.2652 0.105357 17.5195 0.292893 17.7071C0.48043 17.8946 0.734784 17.9999 1 17.9999H7.18C7.3902 18.5791 7.77363 19.0795 8.27816 19.4331C8.7827 19.7867 9.38388 19.9764 10 19.9764C10.6161 19.9764 11.2173 19.7867 11.7218 19.4331C12.2264 19.0795 12.6098 18.5791 12.82 17.9999H19C19.2652 17.9999 19.5196 17.8946 19.7071 17.7071C19.8946 17.5195 20 17.2652 20 16.9999C20 16.7347 19.8946 16.4804 19.7071 16.2928C19.5196 16.1053 19.2652 15.9999 19 15.9999ZM5.33 9.99995C5.24248 9.99995 5.15854 9.96518 5.09665 9.90329C5.03477 9.84141 5 9.75747 5 9.66995V2.32995C5 2.24243 5.03477 2.15849 5.09665 2.0966C5.15854 2.03472 5.24248 1.99995 5.33 1.99995H8.33C8.40098 1.99876 8.47046 2.0205 8.5281 2.06194C8.58575 2.10337 8.6285 2.16229 8.65 2.22995L9.01 3.31995C9.07912 3.52522 9.21301 3.7025 9.39154 3.82513C9.57008 3.94776 9.7836 4.00911 10 3.99995H14.67C14.7575 3.99995 14.8415 4.03472 14.9033 4.0966C14.9652 4.15849 15 4.24243 15 4.32995V9.66995C15 9.75747 14.9652 9.84141 14.9033 9.90329C14.8415 9.96518 14.7575 9.99995 14.67 9.99995H5.33ZM10 17.9999C9.80222 17.9999 9.60888 17.9413 9.44443 17.8314C9.27998 17.7215 9.15181 17.5654 9.07612 17.3826C9.00043 17.1999 8.98063 16.9988 9.01921 16.8049C9.0578 16.6109 9.15304 16.4327 9.29289 16.2928C9.43275 16.153 9.61093 16.0577 9.80491 16.0192C9.99889 15.9806 10.2 16.0004 10.3827 16.0761C10.5654 16.1518 10.7216 16.2799 10.8315 16.4444C10.9414 16.6088 11 16.8022 11 16.9999C11 17.2652 10.8946 17.5195 10.7071 17.7071C10.5196 17.8946 10.2652 17.9999 10 17.9999Z" fill="#9897A1"/>
</svg>
