<svg width="12" height="16" viewBox="0 0 12 16" fill="none" xmlns="http://www.w3.org/2000/svg">
<path d="M9.57548 9.90828L6.00048 13.4916L2.42548 9.90828C2.26856 9.75136 2.05573 9.66321 1.83381 9.66321C1.6119 9.66321 1.39907 9.75136 1.24215 9.90828C1.08523 10.0652 0.99707 10.278 0.99707 10.4999C0.99707 10.7219 1.08523 10.9347 1.24215 11.0916L5.40881 15.2583C5.48628 15.3364 5.57845 15.3984 5.68 15.4407C5.78155 15.483 5.89047 15.5048 6.00048 15.5048C6.11049 15.5048 6.21941 15.483 6.32096 15.4407C6.42251 15.3984 6.51468 15.3364 6.59215 15.2583L10.7588 11.0916C10.8365 11.0139 10.8981 10.9217 10.9402 10.8202C10.9822 10.7186 11.0039 10.6098 11.0039 10.4999C11.0039 10.3901 10.9822 10.2813 10.9402 10.1797C10.8981 10.0782 10.8365 9.98598 10.7588 9.90828C10.6811 9.83058 10.5889 9.76895 10.4874 9.7269C10.3858 9.68485 10.277 9.66321 10.1671 9.66321C10.0573 9.66321 9.94846 9.68485 9.84694 9.7269C9.74542 9.76895 9.65318 9.83058 9.57548 9.90828ZM2.42548 6.09162L6.00048 2.50828L9.57548 6.09162C9.65295 6.16972 9.74512 6.23172 9.84667 6.27402C9.94822 6.31633 10.0571 6.33811 10.1671 6.33811C10.2772 6.33811 10.3861 6.31633 10.4876 6.27402C10.5892 6.23172 10.6813 6.16972 10.7588 6.09162C10.8369 6.01415 10.8989 5.92198 10.9412 5.82043C10.9835 5.71888 11.0053 5.60996 11.0053 5.49995C11.0053 5.38994 10.9835 5.28102 10.9412 5.17947C10.8989 5.07792 10.8369 4.98575 10.7588 4.90828L6.59215 0.741616C6.51468 0.663509 6.42251 0.601514 6.32096 0.559206C6.21941 0.516899 6.11049 0.495117 6.00048 0.495117C5.89047 0.495117 5.78155 0.516899 5.68 0.559206C5.57845 0.601514 5.48628 0.663509 5.40881 0.741616L1.24215 4.90828C1.08523 5.0652 0.99707 5.27803 0.99707 5.49995C0.99707 5.72187 1.08523 5.9347 1.24215 6.09162C1.39907 6.24854 1.6119 6.33669 1.83381 6.33669C2.05573 6.33669 2.26856 6.24854 2.42548 6.09162Z" fill="#83828E"/>
</svg>
