<svg width="13" height="14" viewBox="0 0 13 14" fill="none" xmlns="http://www.w3.org/2000/svg">
<path d="M11.0538 7.27998L6.93377 11.4066C6.39364 11.8867 5.69053 12.1422 4.96825 12.1209C4.24596 12.0996 3.5591 11.8032 3.04815 11.2923C2.5372 10.7813 2.24077 10.0944 2.21951 9.37216C2.19825 8.64988 2.45375 7.94677 2.93377 7.40664L8.2671 2.07331C8.58552 1.77084 9.00792 1.6022 9.4471 1.6022C9.88628 1.6022 10.3087 1.77084 10.6271 2.07331C10.9373 2.38771 11.1113 2.81163 11.1113 3.25331C11.1113 3.695 10.9373 4.11892 10.6271 4.43331L6.0271 9.02665C5.98157 9.07567 5.92684 9.11525 5.86602 9.14313C5.8052 9.171 5.73948 9.18662 5.67262 9.1891C5.60576 9.19157 5.53907 9.18085 5.47636 9.15756C5.41364 9.13426 5.35613 9.09884 5.3071 9.05331C5.25807 9.00779 5.21849 8.95305 5.19062 8.89223C5.16275 8.83141 5.14712 8.76569 5.14465 8.69884C5.14217 8.63198 5.15289 8.56529 5.17619 8.50257C5.19948 8.43985 5.23491 8.38234 5.28043 8.33331L8.70043 4.91998C8.82597 4.79444 8.89649 4.62418 8.89649 4.44665C8.89649 4.26911 8.82597 4.09885 8.70043 3.97331C8.5749 3.84778 8.40463 3.77725 8.2271 3.77725C8.04956 3.77725 7.8793 3.84778 7.75377 3.97331L4.33377 7.39998C4.16264 7.56978 4.02681 7.77178 3.93412 7.99433C3.84143 8.21687 3.79371 8.45557 3.79371 8.69665C3.79371 8.93772 3.84143 9.17642 3.93412 9.39896C4.02681 9.62151 4.16264 9.82351 4.33377 9.99331C4.68335 10.3263 5.14764 10.512 5.63043 10.512C6.11323 10.512 6.57752 10.3263 6.9271 9.99331L11.5204 5.39331C12.0504 4.82461 12.3388 4.07243 12.3251 3.29522C12.3114 2.51802 11.9966 1.77648 11.4469 1.22682C10.8973 0.677173 10.1557 0.362325 9.37852 0.348612C8.60132 0.334899 7.84913 0.623392 7.28043 1.15331L1.9471 6.48664C1.2279 7.2832 0.843784 8.32655 0.874788 9.3993C0.905791 10.472 1.34952 11.4915 2.11352 12.2452C2.87753 12.9988 3.90288 13.4287 4.97596 13.4451C6.04903 13.4615 7.08706 13.0633 7.87377 12.3333L12.0004 8.21331C12.0626 8.15115 12.1119 8.07736 12.1455 7.99614C12.1792 7.91493 12.1965 7.82788 12.1965 7.73998C12.1965 7.65207 12.1792 7.56503 12.1455 7.48381C12.1119 7.4026 12.0626 7.3288 12.0004 7.26664C11.9383 7.20449 11.8645 7.15518 11.7833 7.12154C11.7021 7.0879 11.615 7.07058 11.5271 7.07058C11.4392 7.07058 11.3521 7.0879 11.2709 7.12154C11.1897 7.15518 11.1159 7.20449 11.0538 7.26664V7.27998Z" fill="#83828E"/>
</svg>
