<svg width="12" height="14" viewBox="0 0 12 14" fill="none" xmlns="http://www.w3.org/2000/svg">
<path d="M10.667 3.66659H8.66699V2.99992C8.66699 2.29267 8.38604 1.6144 7.88594 1.1143C7.38585 0.614204 6.70757 0.333252 6.00033 0.333252C5.29308 0.333252 4.6148 0.614204 4.11471 1.1143C3.61461 1.6144 3.33366 2.29267 3.33366 2.99992V3.66659H1.33366C1.15685 3.66659 0.987279 3.73682 0.862254 3.86185C0.73723 3.98687 0.666992 4.15644 0.666992 4.33325V11.6666C0.666992 12.197 0.877706 12.7057 1.25278 13.0808C1.62785 13.4559 2.13656 13.6666 2.66699 13.6666H9.33366C9.86409 13.6666 10.3728 13.4559 10.7479 13.0808C11.1229 12.7057 11.3337 12.197 11.3337 11.6666V4.33325C11.3337 4.15644 11.2634 3.98687 11.1384 3.86185C11.0134 3.73682 10.8438 3.66659 10.667 3.66659ZM4.66699 2.99992C4.66699 2.6463 4.80747 2.30716 5.05752 2.05711C5.30756 1.80706 5.6467 1.66659 6.00033 1.66659C6.35395 1.66659 6.69309 1.80706 6.94313 2.05711C7.19318 2.30716 7.33366 2.6463 7.33366 2.99992V3.66659H4.66699V2.99992ZM10.0003 11.6666C10.0003 11.8434 9.93009 12.013 9.80506 12.138C9.68004 12.263 9.51047 12.3333 9.33366 12.3333H2.66699C2.49018 12.3333 2.32061 12.263 2.19559 12.138C2.07056 12.013 2.00033 11.8434 2.00033 11.6666V4.99992H3.33366V5.66659C3.33366 5.8434 3.4039 6.01297 3.52892 6.13799C3.65395 6.26301 3.82351 6.33325 4.00033 6.33325C4.17714 6.33325 4.34671 6.26301 4.47173 6.13799C4.59675 6.01297 4.66699 5.8434 4.66699 5.66659V4.99992H7.33366V5.66659C7.33366 5.8434 7.4039 6.01297 7.52892 6.13799C7.65394 6.26301 7.82351 6.33325 8.00033 6.33325C8.17714 6.33325 8.34671 6.26301 8.47173 6.13799C8.59675 6.01297 8.66699 5.8434 8.66699 5.66659V4.99992H10.0003V11.6666Z" fill="#83828E"/>
</svg>
