<svg width="14" height="18" viewBox="0 0 14 18" fill="none" xmlns="http://www.w3.org/2000/svg">
<path d="M12.833 4.83317H10.333V3.99984C10.333 3.11578 9.98182 2.26794 9.3567 1.64281C8.73158 1.01769 7.88373 0.666504 6.99967 0.666504C6.11562 0.666504 5.26777 1.01769 4.64265 1.64281C4.01753 2.26794 3.66634 3.11578 3.66634 3.99984V4.83317H1.16634C0.945327 4.83317 0.733366 4.92097 0.577086 5.07725C0.420805 5.23353 0.333008 5.44549 0.333008 5.6665V14.8332C0.333008 15.4962 0.5964 16.1321 1.06524 16.6009C1.53408 17.0698 2.16997 17.3332 2.83301 17.3332H11.1663C11.8294 17.3332 12.4653 17.0698 12.9341 16.6009C13.4029 16.1321 13.6663 15.4962 13.6663 14.8332V5.6665C13.6663 5.44549 13.5785 5.23353 13.4223 5.07725C13.266 4.92097 13.054 4.83317 12.833 4.83317ZM5.33301 3.99984C5.33301 3.55781 5.5086 3.13389 5.82116 2.82133C6.13372 2.50877 6.55765 2.33317 6.99967 2.33317C7.4417 2.33317 7.86562 2.50877 8.17819 2.82133C8.49075 3.13389 8.66634 3.55781 8.66634 3.99984V4.83317H5.33301V3.99984ZM11.9997 14.8332C11.9997 15.0542 11.9119 15.2661 11.7556 15.4224C11.5993 15.5787 11.3874 15.6665 11.1663 15.6665H2.83301C2.61199 15.6665 2.40003 15.5787 2.24375 15.4224C2.08747 15.2661 1.99967 15.0542 1.99967 14.8332V6.49984H3.66634V7.33317C3.66634 7.55418 3.75414 7.76615 3.91042 7.92243C4.0667 8.07871 4.27866 8.1665 4.49967 8.1665C4.72069 8.1665 4.93265 8.07871 5.08893 7.92243C5.24521 7.76615 5.33301 7.55418 5.33301 7.33317V6.49984H8.66634V7.33317C8.66634 7.55418 8.75414 7.76615 8.91042 7.92243C9.0667 8.07871 9.27866 8.1665 9.49967 8.1665C9.72069 8.1665 9.93265 8.07871 10.0889 7.92243C10.2452 7.76615 10.333 7.55418 10.333 7.33317V6.49984H11.9997V14.8332Z" fill="#F93E6C"/>
</svg>
