<svg width="14" height="8" viewBox="0 0 14 8" fill="none" xmlns="http://www.w3.org/2000/svg">
<path d="M1.47316 6.86C1.40976 6.79931 1.335 6.75173 1.25316 6.72C1.09086 6.65332 0.908804 6.65332 0.746496 6.72C0.664662 6.75173 0.589899 6.79931 0.526496 6.86C0.465802 6.9234 0.418226 6.99817 0.386496 7.08C0.335443 7.20141 0.321495 7.33522 0.346411 7.46454C0.371327 7.59387 0.433991 7.71292 0.526496 7.80667C0.591297 7.86555 0.665706 7.91291 0.746496 7.94667C0.826296 7.98194 0.912582 8.00016 0.99983 8.00016C1.08708 8.00016 1.17336 7.98194 1.25316 7.94667C1.33395 7.91291 1.40836 7.86555 1.47316 7.80667C1.56567 7.71292 1.62833 7.59387 1.65325 7.46454C1.67816 7.33522 1.66422 7.20141 1.61316 7.08C1.58143 6.99817 1.53386 6.9234 1.47316 6.86ZM3.6665 1.33333H12.9998C13.1766 1.33333 13.3462 1.2631 13.4712 1.13807C13.5963 1.01305 13.6665 0.843478 13.6665 0.666667C13.6665 0.489856 13.5963 0.320287 13.4712 0.195262C13.3462 0.070238 13.1766 0 12.9998 0H3.6665C3.48969 0 3.32012 0.070238 3.19509 0.195262C3.07007 0.320287 2.99983 0.489856 2.99983 0.666667C2.99983 0.843478 3.07007 1.01305 3.19509 1.13807C3.32012 1.2631 3.48969 1.33333 3.6665 1.33333ZM1.47316 3.52667C1.37941 3.43416 1.26036 3.3715 1.13104 3.34658C1.00171 3.32167 0.867903 3.33561 0.746496 3.38667C0.665706 3.42043 0.591297 3.46778 0.526496 3.52667C0.465802 3.59007 0.418226 3.66483 0.386496 3.74667C0.351226 3.82647 0.333008 3.91275 0.333008 4C0.333008 4.08725 0.351226 4.17353 0.386496 4.25333C0.420257 4.33412 0.467609 4.40853 0.526496 4.47333C0.591297 4.53222 0.665706 4.57957 0.746496 4.61333C0.826296 4.6486 0.912582 4.66682 0.99983 4.66682C1.08708 4.66682 1.17336 4.6486 1.25316 4.61333C1.33395 4.57957 1.40836 4.53222 1.47316 4.47333C1.53205 4.40853 1.5794 4.33412 1.61316 4.25333C1.64843 4.17353 1.66665 4.08725 1.66665 4C1.66665 3.91275 1.64843 3.82647 1.61316 3.74667C1.58143 3.66483 1.53386 3.59007 1.47316 3.52667ZM12.9998 3.33333H3.6665C3.48969 3.33333 3.32012 3.40357 3.19509 3.5286C3.07007 3.65362 2.99983 3.82319 2.99983 4C2.99983 4.17681 3.07007 4.34638 3.19509 4.4714C3.32012 4.59643 3.48969 4.66667 3.6665 4.66667H12.9998C13.1766 4.66667 13.3462 4.59643 13.4712 4.4714C13.5963 4.34638 13.6665 4.17681 13.6665 4C13.6665 3.82319 13.5963 3.65362 13.4712 3.5286C13.3462 3.40357 13.1766 3.33333 12.9998 3.33333ZM1.47316 0.193333C1.40976 0.13264 1.335 0.0850629 1.25316 0.0533333C1.13176 0.00228033 0.997947 -0.011668 0.868621 0.0132481C0.739294 0.0381642 0.620245 0.100828 0.526496 0.193333C0.467609 0.258134 0.420257 0.332543 0.386496 0.413333C0.351226 0.493134 0.333008 0.579419 0.333008 0.666667C0.333008 0.753914 0.351226 0.8402 0.386496 0.92C0.420257 1.00079 0.467609 1.0752 0.526496 1.14C0.591297 1.19889 0.665706 1.24624 0.746496 1.28C0.867903 1.33105 1.00171 1.345 1.13104 1.32009C1.26036 1.29517 1.37941 1.23251 1.47316 1.14C1.53205 1.0752 1.5794 1.00079 1.61316 0.92C1.64843 0.8402 1.66665 0.753914 1.66665 0.666667C1.66665 0.579419 1.64843 0.493134 1.61316 0.413333C1.5794 0.332543 1.53205 0.258134 1.47316 0.193333ZM12.9998 6.66667H3.6665C3.48969 6.66667 3.32012 6.7369 3.19509 6.86193C3.07007 6.98695 2.99983 7.15652 2.99983 7.33333C2.99983 7.51014 3.07007 7.67971 3.19509 7.80474C3.32012 7.92976 3.48969 8 3.6665 8H12.9998C13.1766 8 13.3462 7.92976 13.4712 7.80474C13.5963 7.67971 13.6665 7.51014 13.6665 7.33333C13.6665 7.15652 13.5963 6.98695 13.4712 6.86193C13.3462 6.7369 13.1766 6.66667 12.9998 6.66667Z" fill="#83828E"/>
</svg>
