<svg width="16" height="14" viewBox="0 0 16 14" fill="none" xmlns="http://www.w3.org/2000/svg">
<path d="M6.00033 8.99992C5.86847 8.99992 5.73958 9.03902 5.62994 9.11227C5.52031 9.18553 5.43486 9.28965 5.38441 9.41146C5.33395 9.53328 5.32074 9.66733 5.34647 9.79665C5.37219 9.92597 5.43569 10.0448 5.52892 10.138C5.62216 10.2312 5.74094 10.2947 5.87027 10.3204C5.99959 10.3462 6.13363 10.333 6.25545 10.2825C6.37726 10.232 6.48138 10.1466 6.55464 10.037C6.62789 9.92733 6.66699 9.79844 6.66699 9.66659C6.66699 9.48977 6.59675 9.32021 6.47173 9.19518C6.34671 9.07016 6.17714 8.99992 6.00033 8.99992ZM1.33366 8.33325C1.15685 8.33325 0.987279 8.40349 0.862254 8.52851C0.73723 8.65354 0.666992 8.82311 0.666992 8.99992V10.3333C0.666992 10.5101 0.73723 10.6796 0.862254 10.8047C0.987279 10.9297 1.15685 10.9999 1.33366 10.9999C1.51047 10.9999 1.68004 10.9297 1.80506 10.8047C1.93009 10.6796 2.00033 10.5101 2.00033 10.3333V8.99992C2.00033 8.82311 1.93009 8.65354 1.80506 8.52851C1.68004 8.40349 1.51047 8.33325 1.33366 8.33325ZM14.667 8.33325C14.4902 8.33325 14.3206 8.40349 14.1956 8.52851C14.0706 8.65354 14.0003 8.82311 14.0003 8.99992V10.3333C14.0003 10.5101 14.0706 10.6796 14.1956 10.8047C14.3206 10.9297 14.4902 10.9999 14.667 10.9999C14.8438 10.9999 15.0134 10.9297 15.1384 10.8047C15.2634 10.6796 15.3337 10.5101 15.3337 10.3333V8.99992C15.3337 8.82311 15.2634 8.65354 15.1384 8.52851C15.0134 8.40349 14.8438 8.33325 14.667 8.33325ZM11.3337 3.66659H8.66699V2.81325C8.86851 2.69691 9.03607 2.52986 9.15303 2.3287C9.26998 2.12754 9.33225 1.89927 9.33366 1.66659C9.33366 1.31296 9.19318 0.973825 8.94313 0.723776C8.69309 0.473728 8.35395 0.333252 8.00033 0.333252C7.6467 0.333252 7.30756 0.473728 7.05752 0.723776C6.80747 0.973825 6.66699 1.31296 6.66699 1.66659C6.6684 1.89927 6.73067 2.12754 6.84762 2.3287C6.96458 2.52986 7.13214 2.69691 7.33366 2.81325V3.66659H4.66699C4.13656 3.66659 3.62785 3.8773 3.25278 4.25237C2.87771 4.62744 2.66699 5.13615 2.66699 5.66659V11.6666C2.66699 12.197 2.87771 12.7057 3.25278 13.0808C3.62785 13.4559 4.13656 13.6666 4.66699 13.6666H11.3337C11.8641 13.6666 12.3728 13.4559 12.7479 13.0808C13.1229 12.7057 13.3337 12.197 13.3337 11.6666V5.66659C13.3337 5.13615 13.1229 4.62744 12.7479 4.25237C12.3728 3.8773 11.8641 3.66659 11.3337 3.66659ZM9.14699 4.99992L8.81366 6.33325H7.18699L6.85366 4.99992H9.14699ZM12.0003 11.6666C12.0003 11.8434 11.9301 12.013 11.8051 12.138C11.68 12.263 11.5105 12.3333 11.3337 12.3333H4.66699C4.49018 12.3333 4.32061 12.263 4.19559 12.138C4.07056 12.013 4.00033 11.8434 4.00033 11.6666V5.66659C4.00033 5.48977 4.07056 5.32021 4.19559 5.19518C4.32061 5.07016 4.49018 4.99992 4.66699 4.99992H5.48033L6.00033 7.15992C6.03683 7.30784 6.12289 7.43879 6.24419 7.53098C6.36549 7.62316 6.5147 7.67102 6.66699 7.66659H9.33366C9.48595 7.67102 9.63516 7.62316 9.75646 7.53098C9.87776 7.43879 9.96382 7.30784 10.0003 7.15992L10.5203 4.99992H11.3337C11.5105 4.99992 11.68 5.07016 11.8051 5.19518C11.9301 5.32021 12.0003 5.48977 12.0003 5.66659V11.6666ZM10.0003 8.99992C9.86847 8.99992 9.73958 9.03902 9.62994 9.11227C9.52031 9.18553 9.43486 9.28965 9.38441 9.41146C9.33395 9.53328 9.32074 9.66733 9.34647 9.79665C9.37219 9.92597 9.43569 10.0448 9.52892 10.138C9.62216 10.2312 9.74094 10.2947 9.87027 10.3204C9.99959 10.3462 10.1336 10.333 10.2554 10.2825C10.3773 10.232 10.4814 10.1466 10.5546 10.037C10.6279 9.92733 10.667 9.79844 10.667 9.66659C10.667 9.48977 10.5968 9.32021 10.4717 9.19518C10.3467 9.07016 10.1771 8.99992 10.0003 8.99992Z" fill="#83828E"/>
</svg>
