<svg width="14" height="14" viewBox="0 0 14 14" fill="none" xmlns="http://www.w3.org/2000/svg">
<path d="M7.00033 11.0001C7.17714 11.0001 7.34671 10.9298 7.47173 10.8048C7.59675 10.6798 7.66699 10.5102 7.66699 10.3334L7.66699 3.66675C7.66699 3.48994 7.59675 3.32037 7.47173 3.19534C7.34671 3.07032 7.17714 3.00008 7.00033 3.00008C6.82352 3.00008 6.65395 3.07032 6.52892 3.19534C6.4039 3.32037 6.33366 3.48994 6.33366 3.66675L6.33366 10.3334C6.33366 10.5102 6.4039 10.6798 6.52892 10.8048C6.65395 10.9298 6.82351 11.0001 7.00033 11.0001ZM10.3337 7.00008C10.5105 7.00008 10.68 6.92984 10.8051 6.80482C10.9301 6.67979 11.0003 6.51023 11.0003 6.33341L11.0003 3.66675C11.0003 3.48994 10.9301 3.32037 10.8051 3.19534C10.68 3.07032 10.5105 3.00008 10.3337 3.00008C10.1568 3.00008 9.98728 3.07032 9.86226 3.19534C9.73723 3.32037 9.66699 3.48994 9.66699 3.66675L9.66699 6.33341C9.66699 6.51022 9.73723 6.67979 9.86225 6.80482C9.98728 6.92984 10.1568 7.00008 10.3337 7.00008ZM3.66699 8.33341C3.8438 8.33341 4.01337 8.26318 4.1384 8.13815C4.26342 8.01313 4.33366 7.84356 4.33366 7.66675L4.33366 3.66675C4.33366 3.48994 4.26342 3.32037 4.1384 3.19534C4.01337 3.07032 3.8438 3.00008 3.66699 3.00008C3.49018 3.00008 3.32061 3.07032 3.19559 3.19534C3.07056 3.32037 3.00033 3.48994 3.00033 3.66675L3.00033 7.66675C3.00033 7.84356 3.07056 8.01313 3.19559 8.13815C3.32061 8.26318 3.49018 8.33341 3.66699 8.33341ZM2.33366 13.6667L11.667 13.6667C12.1974 13.6667 12.7061 13.456 13.0812 13.081C13.4563 12.7059 13.667 12.1972 13.667 11.6667L13.667 2.33341C13.667 1.80298 13.4563 1.29427 13.0812 0.919201C12.7061 0.544127 12.1974 0.333414 11.667 0.333414L2.33366 0.333413C1.80323 0.333413 1.29452 0.544126 0.919446 0.9192C0.544373 1.29427 0.333659 1.80298 0.333659 2.33341L0.333658 11.6667C0.333658 12.1972 0.544372 12.7059 0.919445 13.081C1.29452 13.456 1.80323 13.6667 2.33366 13.6667ZM1.66699 2.33341C1.66699 2.1566 1.73723 1.98703 1.86225 1.86201C1.98728 1.73698 2.15685 1.66675 2.33366 1.66675L11.667 1.66675C11.8438 1.66675 12.0134 1.73699 12.1384 1.86201C12.2634 1.98703 12.3337 2.1566 12.3337 2.33341L12.3337 11.6667C12.3337 11.8436 12.2634 12.0131 12.1384 12.1382C12.0134 12.2632 11.8438 12.3334 11.667 12.3334L2.33366 12.3334C2.15685 12.3334 1.98728 12.2632 1.86225 12.1382C1.73723 12.0131 1.66699 11.8436 1.66699 11.6667L1.66699 2.33341Z" fill="#83828E"/>
</svg>
