<svg width="25" height="28" viewBox="0 0 25 28" fill="none" xmlns="http://www.w3.org/2000/svg">
<path d="M24.667 17.9999C24.664 17.1995 24.421 16.4184 23.9694 15.7576C23.5178 15.0968 22.8783 14.5867 22.1337 14.2932L24.627 4.95985C24.6791 4.76108 24.6845 4.55296 24.6429 4.35173C24.6013 4.15051 24.5137 3.96164 24.387 3.79985C24.2575 3.64826 24.0956 3.52764 23.9133 3.44688C23.731 3.36612 23.533 3.32726 23.3337 3.33318H5.06699L4.62699 1.65318C4.55049 1.36906 4.38216 1.11823 4.14823 0.939764C3.91429 0.761298 3.62789 0.665225 3.33366 0.666517H0.666992V3.33318H2.30699L5.61366 15.6799C5.69179 15.9707 5.86611 16.2266 6.10822 16.4058C6.35034 16.5849 6.64598 16.6768 6.94699 16.6665H20.667C21.0206 16.6665 21.3598 16.807 21.6098 17.057C21.8599 17.3071 22.0003 17.6462 22.0003 17.9999C22.0003 18.3535 21.8599 18.6926 21.6098 18.9427C21.3598 19.1927 21.0206 19.3332 20.667 19.3332H3.33366C2.98004 19.3332 2.6409 19.4737 2.39085 19.7237C2.1408 19.9738 2.00033 20.3129 2.00033 20.6665C2.00033 21.0201 2.1408 21.3593 2.39085 21.6093C2.6409 21.8594 2.98004 21.9999 3.33366 21.9999H4.90699C4.68771 22.604 4.61724 23.2521 4.70157 23.8893C4.78589 24.5265 5.02252 25.134 5.39142 25.6603C5.76031 26.1867 6.25061 26.6164 6.8208 26.913C7.39098 27.2097 8.02425 27.3645 8.66699 27.3645C9.30973 27.3645 9.94301 27.2097 10.5132 26.913C11.0834 26.6164 11.5737 26.1867 11.9426 25.6603C12.3115 25.134 12.5481 24.5265 12.6324 23.8893C12.7167 23.2521 12.6463 22.604 12.427 21.9999H15.5737C15.374 22.55 15.2976 23.1372 15.3496 23.7201C15.4017 24.3031 15.5811 24.8675 15.8751 25.3735C16.169 25.8795 16.5705 26.3149 17.051 26.6489C17.5316 26.9829 18.0796 27.2073 18.6564 27.3064C19.2332 27.4056 19.8247 27.3769 20.3892 27.2225C20.9537 27.068 21.4774 26.7916 21.9235 26.4127C22.3695 26.0338 22.7269 25.5617 22.9706 25.0296C23.2143 24.4975 23.3382 23.9184 23.3337 23.3332C23.3312 22.6443 23.1472 21.9683 22.8003 21.3732C23.3705 21.0137 23.8406 20.516 24.1669 19.9263C24.4932 19.3365 24.6653 18.6739 24.667 17.9999ZM19.4537 13.9999H8.00033L5.78699 5.99985H21.6003L19.4537 13.9999ZM8.66699 24.6665C8.40328 24.6665 8.1455 24.5883 7.92623 24.4418C7.70697 24.2953 7.53607 24.0871 7.43515 23.8434C7.33424 23.5998 7.30783 23.3317 7.35928 23.0731C7.41073 22.8144 7.53771 22.5768 7.72418 22.3904C7.91065 22.2039 8.14823 22.0769 8.40687 22.0255C8.66551 21.974 8.9336 22.0004 9.17724 22.1013C9.42087 22.2023 9.62911 22.3732 9.77562 22.5924C9.92213 22.8117 10.0003 23.0695 10.0003 23.3332C10.0003 23.6868 9.85985 24.0259 9.6098 24.276C9.35975 24.526 9.02061 24.6665 8.66699 24.6665ZM19.3337 24.6665C19.07 24.6665 18.8122 24.5883 18.5929 24.4418C18.3736 24.2953 18.2027 24.0871 18.1018 23.8434C18.0009 23.5998 17.9745 23.3317 18.0259 23.0731C18.0774 22.8144 18.2044 22.5768 18.3909 22.3904C18.5773 22.2039 18.8149 22.0769 19.0735 22.0255C19.3322 21.974 19.6003 22.0004 19.8439 22.1013C20.0875 22.2023 20.2958 22.3732 20.4423 22.5924C20.5888 22.8117 20.667 23.0695 20.667 23.3332C20.667 23.6868 20.5265 24.0259 20.2765 24.276C20.0264 24.526 19.6873 24.6665 19.3337 24.6665Z" fill="white"/>
</svg>
