<svg width="18" height="18" viewBox="0 0 18 18" fill="none" xmlns="http://www.w3.org/2000/svg">
<path d="M16.5003 0.666504H1.50033C1.27931 0.666504 1.06735 0.754301 0.91107 0.910582C0.75479 1.06686 0.666992 1.27882 0.666992 1.49984V16.4998C0.666992 16.7209 0.75479 16.9328 0.91107 17.0891C1.06735 17.2454 1.27931 17.3332 1.50033 17.3332H16.5003C16.7213 17.3332 16.9333 17.2454 17.0896 17.0891C17.2459 16.9328 17.3337 16.7209 17.3337 16.4998V1.49984C17.3337 1.27882 17.2459 1.06686 17.0896 0.910582C16.9333 0.754301 16.7213 0.666504 16.5003 0.666504ZM8.16699 15.6665H2.33366V2.33317H8.16699V15.6665ZM15.667 15.6665H9.83366V2.33317H15.667V15.6665Z" fill="#5A5869"/>
</svg>
