<svg width="12" height="14" viewBox="0 0 12 14" fill="none" xmlns="http://www.w3.org/2000/svg">
<path d="M3.33366 9.99992C3.2018 9.99992 3.07291 10.039 2.96328 10.1123C2.85365 10.1855 2.7682 10.2896 2.71774 10.4115C2.66728 10.5333 2.65408 10.6673 2.6798 10.7966C2.70553 10.926 2.76902 11.0448 2.86225 11.138C2.95549 11.2312 3.07428 11.2947 3.2036 11.3204C3.33292 11.3462 3.46696 11.333 3.58878 11.2825C3.7106 11.232 3.81472 11.1466 3.88797 11.037C3.96123 10.9273 4.00033 10.7984 4.00033 10.6666C4.00033 10.4898 3.93009 10.3202 3.80506 10.1952C3.68004 10.0702 3.51047 9.99992 3.33366 9.99992ZM6.00033 0.333252C3.33366 0.333252 0.666992 1.24659 0.666992 2.99992V10.9999C0.666992 12.7533 3.33366 13.6666 6.00033 13.6666C8.66699 13.6666 11.3337 12.7533 11.3337 10.9999V2.99992C11.3337 1.24659 8.66699 0.333252 6.00033 0.333252ZM10.0003 10.9999C10.0003 11.4733 8.48033 12.3333 6.00033 12.3333C3.52033 12.3333 2.00033 11.4733 2.00033 10.9999V8.81992C3.24837 9.41322 4.61892 9.70332 6.00033 9.66659C7.38173 9.70332 8.75228 9.41322 10.0003 8.81992V10.9999ZM10.0003 6.99992C10.0003 7.47325 8.48033 8.33325 6.00033 8.33325C3.52033 8.33325 2.00033 7.47325 2.00033 6.99992V4.81992C3.24837 5.41322 4.61892 5.70332 6.00033 5.66659C7.38173 5.70332 8.75228 5.41322 10.0003 4.81992V6.99992ZM6.00033 4.33325C3.52033 4.33325 2.00033 3.47325 2.00033 2.99992C2.00033 2.52659 3.52033 1.66659 6.00033 1.66659C8.48033 1.66659 10.0003 2.52659 10.0003 2.99992C10.0003 3.47325 8.48033 4.33325 6.00033 4.33325ZM3.33366 5.99992C3.2018 5.99992 3.07291 6.03902 2.96328 6.11227C2.85365 6.18553 2.7682 6.28965 2.71774 6.41146C2.66728 6.53328 2.65408 6.66733 2.6798 6.79665C2.70553 6.92597 2.76902 7.04475 2.86225 7.13799C2.95549 7.23123 3.07428 7.29472 3.2036 7.32044C3.33292 7.34617 3.46696 7.33296 3.58878 7.28251C3.7106 7.23205 3.81472 7.1466 3.88797 7.03697C3.96123 6.92733 4.00033 6.79844 4.00033 6.66659C4.00033 6.48977 3.93009 6.32021 3.80506 6.19518C3.68004 6.07016 3.51047 5.99992 3.33366 5.99992Z" fill="#312E43"/>
</svg>
