<svg width="25" height="24" viewBox="0 0 25 24" fill="none" xmlns="http://www.w3.org/2000/svg">
<path d="M22.42 11.6199C22.3724 11.4972 22.301 11.385 22.21 11.2899L19.71 8.78994C19.5217 8.60164 19.2663 8.49585 19 8.49585C18.7337 8.49585 18.4783 8.60164 18.29 8.78994C18.1017 8.97824 17.9959 9.23364 17.9959 9.49994C17.9959 9.76624 18.1017 10.0216 18.29 10.2099L19.09 10.9999H14.5C14.2348 10.9999 13.9804 11.1053 13.7929 11.2928C13.6054 11.4804 13.5 11.7347 13.5 11.9999C13.5 12.2652 13.6054 12.5195 13.7929 12.707C13.9804 12.8946 14.2348 12.9999 14.5 12.9999H19.09L18.29 13.7899C18.1963 13.8829 18.1219 13.9935 18.0711 14.1154C18.0203 14.2372 17.9942 14.3679 17.9942 14.4999C17.9942 14.632 18.0203 14.7627 18.0711 14.8845C18.1219 15.0064 18.1963 15.117 18.29 15.2099C18.383 15.3037 18.4936 15.3781 18.6154 15.4288C18.7373 15.4796 18.868 15.5057 19 15.5057C19.132 15.5057 19.2627 15.4796 19.3846 15.4288C19.5064 15.3781 19.617 15.3037 19.71 15.2099L22.21 12.7099C22.301 12.6148 22.3724 12.5027 22.42 12.3799C22.52 12.1365 22.52 11.8634 22.42 11.6199Z" fill="#F93E6C"/>
<path d="M8.09499 13.0018L3.50499 13.0018C3.23977 13.0018 2.98542 12.8964 2.79788 12.7089C2.61034 12.5213 2.50499 12.267 2.50499 12.0018C2.50499 11.7366 2.61034 11.4822 2.79788 11.2947C2.98542 11.1071 3.23977 11.0018 3.50499 11.0018L8.09499 11.0018L7.29499 10.2118C7.20126 10.1188 7.12686 10.0082 7.0761 9.88634C7.02533 9.76449 6.99919 9.63378 6.99919 9.50177C6.99919 9.36976 7.02533 9.23905 7.0761 9.11719C7.12686 8.99533 7.20126 8.88473 7.29499 8.79177C7.38795 8.69804 7.49855 8.62365 7.62041 8.57288C7.74227 8.52211 7.87298 8.49597 8.00499 8.49597C8.137 8.49597 8.2677 8.52211 8.38956 8.57288C8.51142 8.62365 8.62202 8.69804 8.71499 8.79177L11.215 11.2918C11.306 11.3869 11.3774 11.499 11.425 11.6218C11.525 11.8652 11.525 12.1383 11.425 12.3818C11.3774 12.5045 11.306 12.6167 11.215 12.7118L8.71499 15.2118C8.52668 15.4001 8.27129 15.5059 8.00499 15.5059C7.73868 15.5059 7.48329 15.4001 7.29499 15.2118C7.10668 15.0235 7.00089 14.7681 7.00089 14.5018C7.00089 14.2355 7.10668 13.9801 7.29499 13.7918L8.09499 13.0018Z" fill="#F93E6C"/>
</svg>
