<svg width="4" height="12" viewBox="0 0 4 12" fill="none" xmlns="http://www.w3.org/2000/svg">
<path d="M2.00033 2.66667C2.26403 2.66667 2.52182 2.58847 2.74109 2.44196C2.96035 2.29545 3.13125 2.08721 3.23217 1.84358C3.33308 1.59994 3.35949 1.33185 3.30804 1.07321C3.25659 0.814572 3.1296 0.576995 2.94313 0.390525C2.75666 0.204055 2.51909 0.0770672 2.26045 0.0256202C2.00181 -0.0258267 1.73372 0.000577708 1.49008 0.101495C1.24645 0.202411 1.03821 0.373308 0.8917 0.592574C0.745192 0.811839 0.666993 1.06963 0.666993 1.33333C0.666993 1.68696 0.807469 2.02609 1.05752 2.27614C1.30757 2.52619 1.6467 2.66667 2.00033 2.66667ZM2.00033 9.33333C1.73662 9.33333 1.47883 9.41153 1.25957 9.55804C1.0403 9.70455 0.869404 9.91279 0.768487 10.1564C0.66757 10.4001 0.641165 10.6681 0.692612 10.9268C0.744059 11.1854 0.871047 11.423 1.05752 11.6095C1.24399 11.7959 1.48156 11.9229 1.74021 11.9744C1.99885 12.0258 2.26694 11.9994 2.51057 11.8985C2.75421 11.7976 2.96244 11.6267 3.10895 11.4074C3.25546 11.1882 3.33366 10.9304 3.33366 10.6667C3.33366 10.313 3.19318 9.97391 2.94313 9.72386C2.69309 9.47381 2.35395 9.33333 2.00033 9.33333ZM2.00033 4.66667C1.73662 4.66667 1.47883 4.74487 1.25957 4.89137C1.0403 5.03788 0.869404 5.24612 0.768487 5.48976C0.66757 5.73339 0.641165 6.00148 0.692612 6.26012C0.744059 6.51876 0.871047 6.75634 1.05752 6.94281C1.24399 7.12928 1.48156 7.25627 1.74021 7.30771C1.99885 7.35916 2.26694 7.33276 2.51057 7.23184C2.75421 7.13092 2.96244 6.96003 3.10895 6.74076C3.25546 6.5215 3.33366 6.26371 3.33366 6C3.33366 5.64638 3.19318 5.30724 2.94313 5.05719C2.69309 4.80714 2.35395 4.66667 2.00033 4.66667Z" fill="white"/>
</svg>
