<svg width="14" height="14" viewBox="0 0 14 14" fill="none" xmlns="http://www.w3.org/2000/svg">
<path d="M4.80634 4.14001L6.33301 2.60668V9.00001C6.33301 9.17682 6.40325 9.34639 6.52827 9.47142C6.65329 9.59644 6.82286 9.66668 6.99967 9.66668C7.17649 9.66668 7.34606 9.59644 7.47108 9.47142C7.5961 9.34639 7.66634 9.17682 7.66634 9.00001V2.60668L9.19301 4.14001C9.25498 4.2025 9.32872 4.25209 9.40996 4.28594C9.4912 4.31979 9.57833 4.33721 9.66634 4.33721C9.75435 4.33721 9.84149 4.31979 9.92273 4.28594C10.004 4.25209 10.0777 4.2025 10.1397 4.14001C10.2022 4.07804 10.2518 4.0043 10.2856 3.92306C10.3194 3.84182 10.3369 3.75469 10.3369 3.66668C10.3369 3.57867 10.3194 3.49153 10.2856 3.41029C10.2518 3.32906 10.2022 3.25532 10.1397 3.19335L7.47301 0.526679C7.40961 0.465985 7.33484 0.418409 7.25301 0.386679C7.0907 0.32 6.90865 0.32 6.74634 0.386679C6.66451 0.418409 6.58974 0.465985 6.52634 0.526679L3.85967 3.19335C3.79752 3.2555 3.74821 3.3293 3.71457 3.41051C3.68093 3.49173 3.66361 3.57877 3.66361 3.66668C3.66361 3.75459 3.68093 3.84163 3.71457 3.92285C3.74821 4.00406 3.79752 4.07785 3.85967 4.14001C3.92183 4.20217 3.99563 4.25148 4.07684 4.28512C4.15806 4.31876 4.2451 4.33607 4.33301 4.33607C4.42091 4.33607 4.50796 4.31876 4.58917 4.28512C4.67039 4.25148 4.74418 4.20217 4.80634 4.14001ZM12.9997 8.33335C12.8229 8.33335 12.6533 8.40358 12.5283 8.52861C12.4032 8.65363 12.333 8.8232 12.333 9.00001V11.6667C12.333 11.8435 12.2628 12.0131 12.1377 12.1381C12.0127 12.2631 11.8432 12.3333 11.6663 12.3333H2.33301C2.1562 12.3333 1.98663 12.2631 1.8616 12.1381C1.73658 12.0131 1.66634 11.8435 1.66634 11.6667V9.00001C1.66634 8.8232 1.5961 8.65363 1.47108 8.52861C1.34605 8.40358 1.17649 8.33335 0.999674 8.33335C0.822863 8.33335 0.653294 8.40358 0.52827 8.52861C0.403246 8.65363 0.333008 8.8232 0.333008 9.00001V11.6667C0.333008 12.1971 0.543722 12.7058 0.918794 13.0809C1.29387 13.456 1.80257 13.6667 2.33301 13.6667H11.6663C12.1968 13.6667 12.7055 13.456 13.0806 13.0809C13.4556 12.7058 13.6663 12.1971 13.6663 11.6667V9.00001C13.6663 8.8232 13.5961 8.65363 13.4711 8.52861C13.3461 8.40358 13.1765 8.33335 12.9997 8.33335Z" fill="#83828E"/>
</svg>
