<svg width="18" height="14" viewBox="0 0 18 14" fill="none" xmlns="http://www.w3.org/2000/svg">
<path d="M17.267 6.66659C15.5836 2.75825 12.417 0.333252 9.0003 0.333252C5.58363 0.333252 2.41697 2.75825 0.733633 6.66659C0.687747 6.77172 0.664062 6.8852 0.664062 6.99992C0.664063 7.11463 0.687747 7.22811 0.733633 7.33325C2.41697 11.2416 5.58363 13.6666 9.0003 13.6666C12.417 13.6666 15.5836 11.2416 17.267 7.33325C17.3129 7.22811 17.3365 7.11463 17.3365 6.99992C17.3365 6.8852 17.3129 6.77172 17.267 6.66659ZM9.0003 11.9999C6.3503 11.9999 3.85863 10.0916 2.41697 6.99992C3.85863 3.90825 6.3503 1.99992 9.0003 1.99992C11.6503 1.99992 14.142 3.90825 15.5836 6.99992C14.142 10.0916 11.6503 11.9999 9.0003 11.9999ZM9.0003 3.66659C8.34103 3.66659 7.69656 3.86208 7.1484 4.22835C6.60024 4.59462 6.17299 5.11522 5.9207 5.72431C5.66841 6.33339 5.6024 7.00362 5.73102 7.65022C5.85963 8.29682 6.1771 8.89077 6.64328 9.35694C7.10945 9.82312 7.7034 10.1406 8.35 10.2692C8.9966 10.3978 9.66682 10.3318 10.2759 10.0795C10.885 9.82722 11.4056 9.39998 11.7719 8.85182C12.1381 8.30366 12.3336 7.65919 12.3336 6.99992C12.3336 6.11586 11.9824 5.26802 11.3573 4.6429C10.7322 4.01777 9.88435 3.66659 9.0003 3.66659ZM9.0003 8.66658C8.67066 8.66658 8.34843 8.56884 8.07435 8.3857C7.80027 8.20257 7.58665 7.94227 7.4605 7.63772C7.33435 7.33318 7.30135 6.99807 7.36566 6.67477C7.42997 6.35147 7.5887 6.05449 7.82179 5.82141C8.05488 5.58832 8.35185 5.42958 8.67515 5.36528C8.99845 5.30097 9.33356 5.33397 9.63811 5.46012C9.94265 5.58627 10.2029 5.79989 10.3861 6.07397C10.5692 6.34805 10.667 6.67028 10.667 6.99992C10.667 7.44195 10.4914 7.86587 10.1788 8.17843C9.86625 8.49099 9.44233 8.66658 9.0003 8.66658Z" fill="#F93E6C"/>
</svg>
