<svg width="15" height="18" viewBox="0 0 15 18" fill="none" xmlns="http://www.w3.org/2000/svg">
<path d="M7.16667 15.6665H3C2.77899 15.6665 2.56702 15.5787 2.41074 15.4224C2.25446 15.2661 2.16667 15.0542 2.16667 14.8332V3.1665C2.16667 2.94549 2.25446 2.73353 2.41074 2.57725C2.56702 2.42097 2.77899 2.33317 3 2.33317H7.16667V4.83317C7.16667 5.49621 7.43006 6.1321 7.8989 6.60094C8.36774 7.06978 9.00362 7.33317 9.66667 7.33317H12.1667V8.99984C12.1667 9.22085 12.2545 9.43281 12.4107 9.58909C12.567 9.74537 12.779 9.83317 13 9.83317C13.221 9.83317 13.433 9.74537 13.5893 9.58909C13.7455 9.43281 13.8333 9.22085 13.8333 8.99984V6.49984C13.8333 6.49984 13.8333 6.49984 13.8333 6.44984C13.8247 6.37328 13.8079 6.29786 13.7833 6.22484V6.14984C13.7414 6.06267 13.6882 5.98141 13.625 5.90817L8.625 0.908171C8.55176 0.844997 8.4705 0.79176 8.38333 0.749837C8.35846 0.746304 8.33321 0.746304 8.30833 0.749837L8.05 0.666504H3C2.33696 0.666504 1.70107 0.929896 1.23223 1.39874C0.763392 1.86758 0.5 2.50346 0.5 3.1665V14.8332C0.5 15.4962 0.763392 16.1321 1.23223 16.6009C1.70107 17.0698 2.33696 17.3332 3 17.3332H7.16667C7.38768 17.3332 7.59964 17.2454 7.75592 17.0891C7.9122 16.9328 8 16.7209 8 16.4998C8 16.2788 7.9122 16.0669 7.75592 15.9106C7.59964 15.7543 7.38768 15.6665 7.16667 15.6665ZM8.83333 3.50817L10.9917 5.6665H9.66667C9.44565 5.6665 9.23369 5.57871 9.07741 5.42243C8.92113 5.26615 8.83333 5.05418 8.83333 4.83317V3.50817ZM13.8333 11.4998H9.175L10.2583 10.4248C10.4153 10.2679 10.5034 10.0551 10.5034 9.83317C10.5034 9.61125 10.4153 9.39842 10.2583 9.2415C10.1014 9.08458 9.88858 8.99643 9.66667 8.99643C9.44475 8.99643 9.23192 9.08458 9.075 9.2415L6.575 11.7415C6.50139 11.8225 6.4422 11.9155 6.4 12.0165C6.31665 12.2194 6.31665 12.447 6.4 12.6498C6.43818 12.7529 6.49783 12.8466 6.575 12.9248L9.075 15.4248C9.15247 15.5029 9.24464 15.5649 9.34619 15.6072C9.44773 15.6496 9.55666 15.6713 9.66667 15.6713C9.77668 15.6713 9.8856 15.6496 9.98715 15.6072C10.0887 15.5649 10.1809 15.5029 10.2583 15.4248C10.3364 15.3474 10.3984 15.2552 10.4407 15.1537C10.483 15.0521 10.5048 14.9432 10.5048 14.8332C10.5048 14.7232 10.483 14.6142 10.4407 14.5127C10.3984 14.4111 10.3364 14.319 10.2583 14.2415L9.175 13.1665H13.8333C14.0543 13.1665 14.2663 13.0787 14.4226 12.9224C14.5789 12.7661 14.6667 12.5542 14.6667 12.3332C14.6667 12.1122 14.5789 11.9002 14.4226 11.7439C14.2663 11.5876 14.0543 11.4998 13.8333 11.4998Z" fill="#83828E"/>
</svg>
