<svg width="16" height="18" viewBox="0 0 16 18" fill="none" xmlns="http://www.w3.org/2000/svg">
<path d="M15.4333 12.0165C15.3911 11.9155 15.3319 11.8225 15.2583 11.7415L12.7583 9.2415C12.6014 9.08458 12.3886 8.99643 12.1667 8.99643C11.9447 8.99643 11.7319 9.08458 11.575 9.2415C11.4181 9.39842 11.3299 9.61125 11.3299 9.83317C11.3299 10.0551 11.4181 10.2679 11.575 10.4248L12.6583 11.4998H8C7.77899 11.4998 7.56703 11.5876 7.41074 11.7439C7.25446 11.9002 7.16667 12.1122 7.16667 12.3332C7.16667 12.5542 7.25446 12.7661 7.41074 12.9224C7.56703 13.0787 7.77899 13.1665 8 13.1665H12.6583L11.575 14.2415C11.4969 14.319 11.4349 14.4111 11.3926 14.5127C11.3503 14.6142 11.3285 14.7232 11.3285 14.8332C11.3285 14.9432 11.3503 15.0521 11.3926 15.1537C11.4349 15.2552 11.4969 15.3474 11.575 15.4248C11.6525 15.5029 11.7446 15.5649 11.8462 15.6072C11.9477 15.6496 12.0567 15.6713 12.1667 15.6713C12.2767 15.6713 12.3856 15.6496 12.4871 15.6072C12.5887 15.5649 12.6809 15.5029 12.7583 15.4248L15.2583 12.9248C15.3355 12.8466 15.3952 12.7529 15.4333 12.6498C15.5167 12.447 15.5167 12.2194 15.4333 12.0165ZM9.66667 15.6665H3C2.77899 15.6665 2.56702 15.5787 2.41074 15.4224C2.25446 15.2661 2.16667 15.0542 2.16667 14.8332V3.1665C2.16667 2.94549 2.25446 2.73353 2.41074 2.57725C2.56702 2.42097 2.77899 2.33317 3 2.33317H7.16667V4.83317C7.16667 5.49621 7.43006 6.1321 7.8989 6.60094C8.36774 7.06978 9.00363 7.33317 9.66667 7.33317H13C13.1645 7.33235 13.3251 7.28285 13.4616 7.1909C13.598 7.09896 13.7042 6.96869 13.7667 6.8165C13.8305 6.66475 13.8479 6.49748 13.8168 6.33583C13.7856 6.17417 13.7073 6.02536 13.5917 5.90817L8.59167 0.908171C8.52278 0.843351 8.44402 0.789905 8.35833 0.749837H8.28333L8.05 0.666504H3C2.33696 0.666504 1.70107 0.929896 1.23223 1.39874C0.763392 1.86758 0.5 2.50346 0.5 3.1665V14.8332C0.5 15.4962 0.763392 16.1321 1.23223 16.6009C1.70107 17.0698 2.33696 17.3332 3 17.3332H9.66667C9.88768 17.3332 10.0996 17.2454 10.2559 17.0891C10.4122 16.9328 10.5 16.7209 10.5 16.4998C10.5 16.2788 10.4122 16.0669 10.2559 15.9106C10.0996 15.7543 9.88768 15.6665 9.66667 15.6665ZM8.83333 3.50817L10.9917 5.6665H9.66667C9.44565 5.6665 9.23369 5.57871 9.07741 5.42243C8.92113 5.26615 8.83333 5.05418 8.83333 4.83317V3.50817Z" fill="#83828E"/>
</svg>
