<svg width="18" height="18" viewBox="0 0 18 18" fill="none" xmlns="http://www.w3.org/2000/svg">
<path d="M14.8337 0.666504H3.16699C2.50395 0.666504 1.86807 0.929896 1.39923 1.39874C0.930385 1.86758 0.666992 2.50346 0.666992 3.1665V4.1415C0.666873 4.48562 0.737798 4.82606 0.875326 5.1415V5.1915C0.993059 5.45898 1.15982 5.70205 1.36699 5.90817L6.50033 11.0082V16.4998C6.50004 16.6415 6.53586 16.7808 6.60439 16.9048C6.67291 17.0287 6.7719 17.1331 6.89199 17.2082C7.02461 17.2904 7.17764 17.3337 7.33366 17.3332C7.46411 17.3324 7.59256 17.301 7.70866 17.2415L11.042 15.5748C11.1794 15.5056 11.295 15.3996 11.3759 15.2687C11.4568 15.1378 11.4999 14.9871 11.5003 14.8332V11.0082L16.6003 5.90817C16.8075 5.70205 16.9743 5.45898 17.092 5.1915V5.1415C17.241 4.82853 17.3233 4.48799 17.3337 4.1415V3.1665C17.3337 2.50346 17.0703 1.86758 16.6014 1.39874C16.1326 0.929896 15.4967 0.666504 14.8337 0.666504ZM10.0753 10.0748C9.99809 10.1527 9.93699 10.2451 9.89552 10.3466C9.85405 10.4481 9.83302 10.5568 9.83366 10.6665V14.3165L8.16699 15.1498V10.6665C8.16763 10.5568 8.14661 10.4481 8.10513 10.3466C8.06366 10.2451 8.00256 10.1527 7.92533 10.0748L3.50866 5.6665H14.492L10.0753 10.0748ZM15.667 3.99984H2.33366V3.1665C2.33366 2.94549 2.42146 2.73353 2.57774 2.57725C2.73402 2.42097 2.94598 2.33317 3.16699 2.33317H14.8337C15.0547 2.33317 15.2666 2.42097 15.4229 2.57725C15.5792 2.73353 15.667 2.94549 15.667 3.1665V3.99984Z" fill="#83828E"/>
</svg>
