<svg width="14" height="14" viewBox="0 0 14 14" fill="none" xmlns="http://www.w3.org/2000/svg">
<path d="M12.9997 0.333252H0.999674C0.822863 0.333252 0.653294 0.40349 0.52827 0.528514C0.403246 0.653538 0.333008 0.823108 0.333008 0.999919V12.9999C0.333008 13.1767 0.403246 13.3463 0.52827 13.4713C0.653294 13.5963 0.822863 13.6666 0.999674 13.6666H12.9997C13.1765 13.6666 13.3461 13.5963 13.4711 13.4713C13.5961 13.3463 13.6663 13.1767 13.6663 12.9999V0.999919C13.6663 0.823108 13.5961 0.653538 13.4711 0.528514C13.3461 0.40349 13.1765 0.333252 12.9997 0.333252ZM4.33301 12.3333H1.66634V1.66659H4.33301V12.3333ZM8.33301 12.3333H5.66634V1.66659H8.33301V12.3333ZM12.333 12.3333H9.66634V1.66659H12.333V12.3333Z" fill="#83828E"/>
</svg>
