<svg width="18" height="18" viewBox="0 0 18 18" fill="none" xmlns="http://www.w3.org/2000/svg">
<path d="M12.3334 7.3334H10.6667V5.66673C10.6667 5.44572 10.5789 5.23376 10.4227 5.07748C10.2664 4.9212 10.0544 4.8334 9.8334 4.8334H5.66673C5.44572 4.8334 5.23376 4.9212 5.07748 5.07748C4.9212 5.23376 4.8334 5.44572 4.8334 5.66673V9.8334C4.8334 10.0544 4.9212 10.2664 5.07748 10.4227C5.23376 10.5789 5.44572 10.6667 5.66673 10.6667H7.3334V12.3334C7.3334 12.5544 7.4212 12.7664 7.57748 12.9227C7.73376 13.0789 7.94572 13.1667 8.16673 13.1667H12.3334C12.5544 13.1667 12.7664 13.0789 12.9227 12.9227C13.0789 12.7664 13.1667 12.5544 13.1667 12.3334V8.16673C13.1667 7.94572 13.0789 7.73376 12.9227 7.57748C12.7664 7.4212 12.5544 7.3334 12.3334 7.3334ZM7.3334 8.16673V9.00007H6.50007V6.50007H9.00007V7.3334H8.16673C7.94572 7.3334 7.73376 7.4212 7.57748 7.57748C7.4212 7.73376 7.3334 7.94572 7.3334 8.16673ZM11.5001 11.5001H9.00007V9.00007H11.5001V11.5001ZM16.5001 14.2334V3.76673C16.7254 3.64137 16.9187 3.46542 17.0645 3.25272C17.2103 3.04002 17.3048 2.79638 17.3405 2.54097C17.3762 2.28555 17.3522 2.02534 17.2703 1.7808C17.1883 1.53626 17.0508 1.31407 16.8684 1.13171C16.6861 0.94935 16.4639 0.811798 16.2193 0.729876C15.9748 0.647955 15.7146 0.6239 15.4592 0.659605C15.2038 0.69531 14.9601 0.7898 14.7474 0.93564C14.5347 1.08148 14.3588 1.27469 14.2334 1.50007H3.76673C3.64137 1.27469 3.46542 1.08148 3.25272 0.93564C3.04002 0.7898 2.79638 0.69531 2.54097 0.659605C2.28555 0.6239 2.02534 0.647955 1.7808 0.729876C1.53626 0.811798 1.31407 0.94935 1.13171 1.13171C0.94935 1.31407 0.811798 1.53626 0.729876 1.7808C0.647955 2.02534 0.6239 2.28555 0.659605 2.54097C0.69531 2.79638 0.7898 3.04002 0.93564 3.25272C1.08148 3.46542 1.27469 3.64137 1.50007 3.76673V14.2334C1.27469 14.3588 1.08148 14.5347 0.93564 14.7474C0.7898 14.9601 0.69531 15.2038 0.659605 15.4592C0.6239 15.7146 0.647955 15.9748 0.729876 16.2193C0.811798 16.4639 0.94935 16.6861 1.13171 16.8684C1.31407 17.0508 1.53626 17.1883 1.7808 17.2703C2.02534 17.3522 2.28555 17.3762 2.54097 17.3405C2.79638 17.3048 3.04002 17.2103 3.25272 17.0645C3.46542 16.9187 3.64137 16.7254 3.76673 16.5001H14.2334C14.3588 16.7254 14.5347 16.9187 14.7474 17.0645C14.9601 17.2103 15.2038 17.3048 15.4592 17.3405C15.7146 17.3762 15.9748 17.3522 16.2193 17.2703C16.4639 17.1883 16.6861 17.0508 16.8684 16.8684C17.0508 16.6861 17.1883 16.4639 17.2703 16.2193C17.3522 15.9748 17.3762 15.7146 17.3405 15.4592C17.3048 15.2038 17.2103 14.9601 17.0645 14.7474C16.9187 14.5347 16.7254 14.3588 16.5001 14.2334ZM14.8334 14.2334C14.5828 14.3754 14.3754 14.5828 14.2334 14.8334H3.76673C3.62471 14.5828 3.41734 14.3754 3.16673 14.2334V3.76673C3.41734 3.62471 3.62471 3.41734 3.76673 3.16673H14.2334C14.3754 3.41734 14.5828 3.62471 14.8334 3.76673V14.2334Z" fill="#5A5869"/>
</svg>
