<svg width="10" height="18" viewBox="0 0 10 18" fill="none" xmlns="http://www.w3.org/2000/svg">
<path d="M6.49167 7.50817C6.56914 7.58628 6.6613 7.64827 6.76285 7.69058C6.8644 7.73289 6.97332 7.75467 7.08333 7.75467C7.19334 7.75467 7.30226 7.73289 7.40381 7.69058C7.50536 7.64827 7.59753 7.58628 7.675 7.50817C7.75311 7.4307 7.8151 7.33853 7.85741 7.23698C7.89972 7.13544 7.9215 7.02651 7.9215 6.9165C7.9215 6.80649 7.89972 6.69757 7.85741 6.59602C7.8151 6.49447 7.75311 6.40231 7.675 6.32484L5.59167 4.2415C5.51241 4.16564 5.41896 4.10617 5.31667 4.0665C5.11378 3.98316 4.88622 3.98316 4.68333 4.0665C4.58104 4.10617 4.48759 4.16564 4.40833 4.2415L2.325 6.32484C2.16808 6.48176 2.07992 6.69459 2.07992 6.9165C2.07992 7.13842 2.16808 7.35125 2.325 7.50817C2.48192 7.66509 2.69475 7.75325 2.91667 7.75325C3.13858 7.75325 3.35141 7.66509 3.50833 7.50817L4.16667 6.8415V11.1582L3.50833 10.4915C3.35141 10.3346 3.13858 10.2464 2.91667 10.2464C2.69475 10.2464 2.48192 10.3346 2.325 10.4915C2.16808 10.6484 2.07992 10.8613 2.07992 11.0832C2.07992 11.3051 2.16808 11.5179 2.325 11.6748L4.40833 13.7582C4.48759 13.834 4.58104 13.8935 4.68333 13.9332C4.78308 13.9773 4.89094 14 5 14C5.10906 14 5.21692 13.9773 5.31667 13.9332C5.41896 13.8935 5.51241 13.834 5.59167 13.7582L7.675 11.6748C7.83192 11.5179 7.92008 11.3051 7.92008 11.0832C7.92008 10.8613 7.83192 10.6484 7.675 10.4915C7.51808 10.3346 7.30525 10.2464 7.08333 10.2464C6.86141 10.2464 6.64859 10.3346 6.49167 10.4915L5.83333 11.1582V6.8415L6.49167 7.50817ZM0.833333 2.33317H9.16667C9.38768 2.33317 9.59964 2.24537 9.75592 2.08909C9.9122 1.93281 10 1.72085 10 1.49984C10 1.27882 9.9122 1.06686 9.75592 0.910582C9.59964 0.754301 9.38768 0.666504 9.16667 0.666504H0.833333C0.61232 0.666504 0.400358 0.754301 0.244078 0.910582C0.0877975 1.06686 0 1.27882 0 1.49984C0 1.72085 0.0877975 1.93281 0.244078 2.08909C0.400358 2.24537 0.61232 2.33317 0.833333 2.33317ZM9.16667 15.6665H0.833333C0.61232 15.6665 0.400358 15.7543 0.244078 15.9106C0.0877975 16.0669 0 16.2788 0 16.4998C0 16.7209 0.0877975 16.9328 0.244078 17.0891C0.400358 17.2454 0.61232 17.3332 0.833333 17.3332H9.16667C9.38768 17.3332 9.59964 17.2454 9.75592 17.0891C9.9122 16.9328 10 16.7209 10 16.4998C10 16.2788 9.9122 16.0669 9.75592 15.9106C9.59964 15.7543 9.38768 15.6665 9.16667 15.6665Z" fill="#83828E"/>
</svg>
