<svg width="20" height="21" viewBox="0 0 20 21" fill="none" xmlns="http://www.w3.org/2000/svg">
<path d="M10 9.5C9.73479 9.5 9.48043 9.60536 9.2929 9.79289C9.10536 9.98043 9 10.2348 9 10.5V14.5C9 14.7652 9.10536 15.0196 9.2929 15.2071C9.48043 15.3946 9.73479 15.5 10 15.5C10.2652 15.5 10.5196 15.3946 10.7071 15.2071C10.8946 15.0196 11 14.7652 11 14.5V10.5C11 10.2348 10.8946 9.98043 10.7071 9.79289C10.5196 9.60536 10.2652 9.5 10 9.5ZM10.38 5.58C10.1365 5.47998 9.86347 5.47998 9.62 5.58C9.49725 5.62759 9.38511 5.69896 9.29 5.79C9.20167 5.8872 9.13065 5.99882 9.08 6.12C9.02402 6.23868 8.99662 6.36882 9 6.5C8.99924 6.63161 9.02447 6.76207 9.07423 6.88391C9.124 7.00574 9.19732 7.11656 9.29 7.21C9.38721 7.29833 9.49882 7.36936 9.62 7.42C9.7715 7.48224 9.93597 7.50632 10.099 7.49011C10.2619 7.47391 10.4184 7.41792 10.5547 7.32707C10.691 7.23622 10.8029 7.11328 10.8805 6.96907C10.9582 6.82486 10.9992 6.66378 11 6.5C10.9963 6.23523 10.8927 5.98163 10.71 5.79C10.6149 5.69896 10.5028 5.62759 10.38 5.58ZM10 0.5C8.02219 0.5 6.08879 1.08649 4.4443 2.1853C2.79981 3.28412 1.51809 4.8459 0.761209 6.67317C0.00433284 8.50043 -0.193701 10.5111 0.192152 12.4509C0.578004 14.3907 1.53041 16.1725 2.92894 17.5711C4.32746 18.9696 6.10929 19.922 8.0491 20.3079C9.98891 20.6937 11.9996 20.4957 13.8268 19.7388C15.6541 18.9819 17.2159 17.7002 18.3147 16.0557C19.4135 14.4112 20 12.4778 20 10.5C20 9.18678 19.7413 7.88642 19.2388 6.67317C18.7363 5.45991 17.9997 4.35752 17.0711 3.42893C16.1425 2.50035 15.0401 1.76375 13.8268 1.2612C12.6136 0.758658 11.3132 0.5 10 0.5ZM10 18.5C8.41775 18.5 6.87104 18.0308 5.55544 17.1518C4.23985 16.2727 3.21447 15.0233 2.60897 13.5615C2.00347 12.0997 1.84504 10.4911 2.15372 8.93928C2.4624 7.38743 3.22433 5.96197 4.34315 4.84315C5.46197 3.72433 6.88743 2.9624 8.43928 2.65372C9.99113 2.34504 11.5997 2.50346 13.0615 3.10896C14.5233 3.71447 15.7727 4.73984 16.6518 6.05544C17.5308 7.37103 18 8.91775 18 10.5C18 12.6217 17.1572 14.6566 15.6569 16.1569C14.1566 17.6571 12.1217 18.5 10 18.5Z" fill="#9897A1"/>
</svg>
