<svg width="14" height="14" viewBox="0 0 14 14" fill="none" xmlns="http://www.w3.org/2000/svg">
<path d="M13.0797 6.13993L7.47302 0.526596C7.41073 0.464809 7.33685 0.415925 7.25562 0.382749C7.1744 0.349573 7.08742 0.332756 6.99969 0.333263H0.999686C0.822875 0.333263 0.653305 0.403501 0.528281 0.528525C0.403257 0.653549 0.333019 0.823119 0.333019 0.99993V6.99993C0.332512 7.08767 0.349328 7.17464 0.382505 7.25587C0.415681 7.33709 0.464565 7.41097 0.526352 7.47326L6.13969 13.0799C6.51469 13.4545 7.02302 13.6648 7.55302 13.6648C8.08302 13.6648 8.59135 13.4545 8.96635 13.0799L13.0797 8.99993C13.4542 8.62493 13.6646 8.1166 13.6646 7.5866C13.6646 7.0566 13.4542 6.54826 13.0797 6.17326V6.13993ZM12.1397 8.01993L8.01969 12.1333C7.89478 12.2574 7.72581 12.3271 7.54969 12.3271C7.37356 12.3271 7.20459 12.2574 7.07969 12.1333L1.66635 6.7266V1.6666H6.72635L12.1397 7.07993C12.2015 7.14222 12.2504 7.2161 12.2835 7.29733C12.3167 7.37855 12.3335 7.46553 12.333 7.55326C12.3323 7.72816 12.2628 7.89576 12.1397 8.01993Z" fill="#83828E"/>
</svg>
