<svg width="18" height="18" viewBox="0 0 18 18" fill="none" xmlns="http://www.w3.org/2000/svg">
<path d="M16.558 13.0248L14.833 11.2582C14.462 10.9055 13.9939 10.6718 13.489 10.5871C12.9841 10.5025 12.4655 10.5707 11.9997 10.7832L11.2497 10.0332C12.1335 8.85226 12.5371 7.38039 12.3793 5.91386C12.2215 4.44732 11.514 3.09502 10.3992 2.12916C9.2844 1.16331 7.84511 0.655627 6.37105 0.708316C4.897 0.761006 3.49762 1.37015 2.45464 2.41314C1.41166 3.45612 0.80251 4.85549 0.74982 6.32955C0.69713 7.80361 1.20481 9.2429 2.17067 10.3577C3.13652 11.4725 4.48883 12.18 5.95536 12.3378C7.4219 12.4956 8.89376 12.092 10.0747 11.2082L10.8163 11.9498C10.5789 12.4162 10.4938 12.9453 10.5731 13.4626C10.6523 13.9799 10.8919 14.4593 11.258 14.8332L13.0247 16.5998C13.4934 17.068 14.1288 17.331 14.7913 17.331C15.4538 17.331 16.0892 17.068 16.558 16.5998C16.7961 16.367 16.9853 16.0889 17.1145 15.782C17.2437 15.475 17.3102 15.1454 17.3102 14.8123C17.3102 14.4793 17.2437 14.1496 17.1145 13.8427C16.9853 13.5357 16.7961 13.2577 16.558 13.0248ZM9.49133 9.4915C8.9082 10.0732 8.16575 10.469 7.35778 10.6289C6.54982 10.7888 5.71258 10.7057 4.95183 10.39C4.19109 10.0743 3.54097 9.54025 3.08359 8.85528C2.62622 8.1703 2.38211 7.36514 2.38211 6.5415C2.38211 5.71786 2.62622 4.91269 3.08359 4.22771C3.54097 3.54274 4.19109 3.00868 4.95183 2.69301C5.71258 2.37733 6.54982 2.2942 7.35778 2.45412C8.16575 2.61404 8.9082 3.00983 9.49133 3.5915C9.87936 3.97854 10.1872 4.43834 10.3973 4.94455C10.6073 5.45076 10.7154 5.99343 10.7154 6.5415C10.7154 7.08956 10.6073 7.63223 10.3973 8.13844C10.1872 8.64465 9.87936 9.10445 9.49133 9.4915ZM15.383 15.3832C15.3055 15.4613 15.2134 15.5233 15.1118 15.5656C15.0103 15.6079 14.9013 15.6297 14.7913 15.6297C14.6813 15.6297 14.5724 15.6079 14.4709 15.5656C14.3693 15.5233 14.2771 15.4613 14.1997 15.3832L12.433 13.6165C12.3549 13.539 12.2929 13.4469 12.2506 13.3453C12.2083 13.2438 12.1865 13.1348 12.1865 13.0248C12.1865 12.9148 12.2083 12.8059 12.2506 12.7043C12.2929 12.6028 12.3549 12.5106 12.433 12.4332C12.5105 12.3551 12.6026 12.2931 12.7042 12.2508C12.8057 12.2084 12.9147 12.1867 13.0247 12.1867C13.1347 12.1867 13.2436 12.2084 13.3451 12.2508C13.4467 12.2931 13.5389 12.3551 13.6163 12.4332L15.383 14.1998C15.4611 14.2773 15.5231 14.3695 15.5654 14.471C15.6077 14.5726 15.6295 14.6815 15.6295 14.7915C15.6295 14.9015 15.6077 15.0104 15.5654 15.112C15.5231 15.2135 15.4611 15.3057 15.383 15.3832Z" fill="#83828E"/>
</svg>
