<svg width="14" height="8" viewBox="0 0 14 8" fill="none" xmlns="http://www.w3.org/2000/svg">
<path d="M3.19378 2.47333C3.25576 2.53582 3.32949 2.58542 3.41073 2.61926C3.49197 2.65311 3.57911 2.67053 3.66712 2.67053C3.75512 2.67053 3.84226 2.65311 3.9235 2.61926C4.00474 2.58542 4.07847 2.53582 4.14045 2.47333C4.20293 2.41136 4.25253 2.33762 4.28638 2.25638C4.32022 2.17515 4.33765 2.08801 4.33765 2C4.33765 1.91199 4.32022 1.82485 4.28638 1.74362C4.25253 1.66238 4.20293 1.58864 4.14045 1.52667L2.80712 0.193333C2.74371 0.13264 2.66895 0.0850629 2.58712 0.0533333C2.42481 -0.0133454 2.24276 -0.0133454 2.08045 0.0533333C1.99861 0.0850629 1.92385 0.13264 1.86045 0.193333L0.527116 1.52667C0.40158 1.6522 0.331055 1.82247 0.331055 2C0.331055 2.17753 0.40158 2.3478 0.527116 2.47333C0.652652 2.59887 0.822915 2.66939 1.00045 2.66939C1.17798 2.66939 1.34825 2.59887 1.47378 2.47333L1.66712 2.27333V5.72667L1.47378 5.52667C1.34825 5.40113 1.17798 5.33061 1.00045 5.33061C0.822915 5.33061 0.652652 5.40113 0.527116 5.52667C0.40158 5.6522 0.331055 5.82247 0.331055 6C0.331055 6.17753 0.40158 6.3478 0.527116 6.47333L1.86045 7.80667C1.92385 7.86736 1.99861 7.91494 2.08045 7.94667C2.16025 7.98194 2.24654 8.00016 2.33378 8.00016C2.42103 8.00016 2.50732 7.98194 2.58712 7.94667C2.66895 7.91494 2.74371 7.86736 2.80712 7.80667L4.14045 6.47333C4.20261 6.41117 4.25191 6.33738 4.28556 6.25617C4.3192 6.17495 4.33651 6.08791 4.33651 6C4.33651 5.91209 4.3192 5.82505 4.28556 5.74383C4.25191 5.66262 4.20261 5.58883 4.14045 5.52667C4.07829 5.46451 4.0045 5.4152 3.92328 5.38156C3.84207 5.34792 3.75502 5.33061 3.66712 5.33061C3.57921 5.33061 3.49216 5.34792 3.41095 5.38156C3.32973 5.4152 3.25594 5.46451 3.19378 5.52667L3.00045 5.72667V2.27333L3.19378 2.47333ZM6.33378 1.33333H13.0004C13.1773 1.33333 13.3468 1.2631 13.4719 1.13807C13.5969 1.01305 13.6671 0.843478 13.6671 0.666667C13.6671 0.489856 13.5969 0.320287 13.4719 0.195262C13.3468 0.070238 13.1773 0 13.0004 0H6.33378C6.15697 0 5.9874 0.070238 5.86238 0.195262C5.73735 0.320287 5.66712 0.489856 5.66712 0.666667C5.66712 0.843478 5.73735 1.01305 5.86238 1.13807C5.9874 1.2631 6.15697 1.33333 6.33378 1.33333ZM13.0004 3.33333H6.33378C6.15697 3.33333 5.9874 3.40357 5.86238 3.5286C5.73735 3.65362 5.66712 3.82319 5.66712 4C5.66712 4.17681 5.73735 4.34638 5.86238 4.4714C5.9874 4.59643 6.15697 4.66667 6.33378 4.66667H13.0004C13.1773 4.66667 13.3468 4.59643 13.4719 4.4714C13.5969 4.34638 13.6671 4.17681 13.6671 4C13.6671 3.82319 13.5969 3.65362 13.4719 3.5286C13.3468 3.40357 13.1773 3.33333 13.0004 3.33333ZM13.0004 6.66667H6.33378C6.15697 6.66667 5.9874 6.7369 5.86238 6.86193C5.73735 6.98695 5.66712 7.15652 5.66712 7.33333C5.66712 7.51014 5.73735 7.67971 5.86238 7.80474C5.9874 7.92976 6.15697 8 6.33378 8H13.0004C13.1773 8 13.3468 7.92976 13.4719 7.80474C13.5969 7.67971 13.6671 7.51014 13.6671 7.33333C13.6671 7.15652 13.5969 6.98695 13.4719 6.86193C13.3468 6.7369 13.1773 6.66667 13.0004 6.66667Z" fill="#F93E6C"/>
</svg>
