<svg width="18" height="10" viewBox="0 0 18 10" fill="none" xmlns="http://www.w3.org/2000/svg">
<path d="M2.09121 8.575C2.01196 8.49913 1.9185 8.43966 1.81621 8.4C1.61333 8.31665 1.38576 8.31665 1.18288 8.4C1.08058 8.43966 0.987129 8.49913 0.907876 8.575C0.832009 8.65425 0.772538 8.74771 0.732876 8.85C0.66906 9.00176 0.651624 9.16902 0.682769 9.33068C0.713914 9.49234 0.792245 9.64115 0.907876 9.75833C0.988877 9.83194 1.08189 9.89113 1.18288 9.93333C1.28263 9.97742 1.39048 10.0002 1.49954 10.0002C1.6086 10.0002 1.71646 9.97742 1.81621 9.93333C1.9172 9.89113 2.01021 9.83194 2.09121 9.75833C2.20684 9.64115 2.28517 9.49234 2.31632 9.33068C2.34746 9.16902 2.33003 9.00176 2.26621 8.85C2.22655 8.74771 2.16708 8.65425 2.09121 8.575ZM4.83288 1.66667H16.4995C16.7206 1.66667 16.9325 1.57887 17.0888 1.42259C17.2451 1.26631 17.3329 1.05435 17.3329 0.833333C17.3329 0.61232 17.2451 0.400358 17.0888 0.244078C16.9325 0.0877975 16.7206 0 16.4995 0L4.83288 0C4.61186 0 4.3999 0.0877975 4.24362 0.244078C4.08734 0.400358 3.99954 0.61232 3.99954 0.833333C3.99954 1.05435 4.08734 1.26631 4.24362 1.42259C4.3999 1.57887 4.61186 1.66667 4.83288 1.66667ZM2.09121 4.40833C1.97402 4.2927 1.82521 4.21437 1.66355 4.18323C1.5019 4.15208 1.33464 4.16952 1.18288 4.23333C1.08189 4.27553 0.988877 4.33472 0.907876 4.40833C0.832009 4.48759 0.772538 4.58104 0.732876 4.68333C0.688788 4.78308 0.666016 4.89094 0.666016 5C0.666016 5.10906 0.688788 5.21692 0.732876 5.31667C0.775078 5.41765 0.834267 5.51067 0.907876 5.59167C0.988877 5.66528 1.08189 5.72446 1.18288 5.76667C1.28263 5.81075 1.39048 5.83353 1.49954 5.83353C1.6086 5.83353 1.71646 5.81075 1.81621 5.76667C1.9172 5.72446 2.01021 5.66528 2.09121 5.59167C2.16482 5.51067 2.22401 5.41765 2.26621 5.31667C2.3103 5.21692 2.33307 5.10906 2.33307 5C2.33307 4.89094 2.3103 4.78308 2.26621 4.68333C2.22655 4.58104 2.16708 4.48759 2.09121 4.40833ZM16.4995 4.16667H4.83288C4.61186 4.16667 4.3999 4.25446 4.24362 4.41074C4.08734 4.56702 3.99954 4.77899 3.99954 5C3.99954 5.22101 4.08734 5.43297 4.24362 5.58926C4.3999 5.74554 4.61186 5.83333 4.83288 5.83333H16.4995C16.7206 5.83333 16.9325 5.74554 17.0888 5.58926C17.2451 5.43297 17.3329 5.22101 17.3329 5C17.3329 4.77899 17.2451 4.56702 17.0888 4.41074C16.9325 4.25446 16.7206 4.16667 16.4995 4.16667ZM2.09121 0.241667C2.01196 0.165799 1.9185 0.106329 1.81621 0.0666666C1.66445 0.00285041 1.49719 -0.0145849 1.33553 0.0165602C1.17387 0.0477053 1.02506 0.126035 0.907876 0.241667C0.834267 0.322667 0.775078 0.415679 0.732876 0.516667C0.688788 0.616417 0.666016 0.724274 0.666016 0.833333C0.666016 0.942392 0.688788 1.05025 0.732876 1.15C0.775078 1.25099 0.834267 1.344 0.907876 1.425C0.988877 1.49861 1.08189 1.5578 1.18288 1.6C1.33464 1.66382 1.5019 1.68125 1.66355 1.65011C1.82521 1.61896 1.97402 1.54063 2.09121 1.425C2.16482 1.344 2.22401 1.25099 2.26621 1.15C2.3103 1.05025 2.33307 0.942392 2.33307 0.833333C2.33307 0.724274 2.3103 0.616417 2.26621 0.516667C2.22401 0.415679 2.16482 0.322667 2.09121 0.241667ZM16.4995 8.33333H4.83288C4.61186 8.33333 4.3999 8.42113 4.24362 8.57741C4.08734 8.73369 3.99954 8.94565 3.99954 9.16667C3.99954 9.38768 4.08734 9.59964 4.24362 9.75592C4.3999 9.9122 4.61186 10 4.83288 10H16.4995C16.7206 10 16.9325 9.9122 17.0888 9.75592C17.2451 9.59964 17.3329 9.38768 17.3329 9.16667C17.3329 8.94565 17.2451 8.73369 17.0888 8.57741C16.9325 8.42113 16.7206 8.33333 16.4995 8.33333Z" fill="#F93E6C"/>
</svg>
