<svg width="12" height="14" viewBox="0 0 12 14" fill="none" xmlns="http://www.w3.org/2000/svg">
<path d="M6.00033 7.66683C5.79736 7.66446 5.59854 7.72432 5.43062 7.83836C5.2627 7.95241 5.13376 8.11516 5.06113 8.3047C4.98851 8.49425 4.9757 8.70149 5.02442 8.89854C5.07315 9.09558 5.18107 9.27297 5.33366 9.40683V10.3335C5.33366 10.5103 5.4039 10.6799 5.52892 10.8049C5.65394 10.9299 5.82351 11.0002 6.00033 11.0002C6.17714 11.0002 6.34671 10.9299 6.47173 10.8049C6.59675 10.6799 6.66699 10.5103 6.66699 10.3335V9.40683C6.81958 9.27297 6.9275 9.09558 6.97623 8.89854C7.02495 8.70149 7.01214 8.49425 6.93952 8.3047C6.86689 8.11516 6.73795 7.95241 6.57003 7.83836C6.40212 7.72432 6.20329 7.66446 6.00033 7.66683ZM9.33366 5.00016V3.66683C9.33366 2.78277 8.98247 1.93493 8.35735 1.30981C7.73223 0.684686 6.88438 0.333496 6.00033 0.333496C5.11627 0.333496 4.26842 0.684686 3.6433 1.30981C3.01818 1.93493 2.66699 2.78277 2.66699 3.66683V5.00016C2.13656 5.00016 1.62785 5.21088 1.25278 5.58595C0.877706 5.96102 0.666992 6.46973 0.666992 7.00016V11.6668C0.666992 12.1973 0.877706 12.706 1.25278 13.081C1.62785 13.4561 2.13656 13.6668 2.66699 13.6668H9.33366C9.86409 13.6668 10.3728 13.4561 10.7479 13.081C11.1229 12.706 11.3337 12.1973 11.3337 11.6668V7.00016C11.3337 6.46973 11.1229 5.96102 10.7479 5.58595C10.3728 5.21088 9.86409 5.00016 9.33366 5.00016ZM4.00033 3.66683C4.00033 3.1364 4.21104 2.62769 4.58611 2.25262C4.96118 1.87754 5.46989 1.66683 6.00033 1.66683C6.53076 1.66683 7.03947 1.87754 7.41454 2.25262C7.78961 2.62769 8.00033 3.1364 8.00033 3.66683V5.00016H4.00033V3.66683ZM10.0003 11.6668C10.0003 11.8436 9.93009 12.0132 9.80506 12.1382C9.68004 12.2633 9.51047 12.3335 9.33366 12.3335H2.66699C2.49018 12.3335 2.32061 12.2633 2.19559 12.1382C2.07056 12.0132 2.00033 11.8436 2.00033 11.6668V7.00016C2.00033 6.82335 2.07056 6.65378 2.19559 6.52876C2.32061 6.40373 2.49018 6.3335 2.66699 6.3335H9.33366C9.51047 6.3335 9.68004 6.40373 9.80506 6.52876C9.93009 6.65378 10.0003 6.82335 10.0003 7.00016V11.6668Z" fill="white"/>
</svg>
