<svg width="880" height="900" viewBox="0 0 880 900" fill="none" xmlns="http://www.w3.org/2000/svg">
<g clip-path="url(#clip0_3_4107)">
<rect width="880" height="900" fill="#F6F8FA"/>
<circle cx="273" cy="230" r="4" fill="#EAEAEC"/>
<circle cx="273" cy="248" r="4" fill="#EAEAEC"/>
<circle cx="273" cy="266" r="4" fill="#EAEAEC"/>
<circle cx="273" cy="284" r="4" fill="#EAEAEC"/>
<circle cx="273" cy="302" r="4" fill="#EAEAEC"/>
<circle cx="273" cy="320" r="4" fill="#EAEAEC"/>
<circle cx="273" cy="338" r="4" fill="#EAEAEC"/>
<circle cx="273" cy="356" r="4" fill="#EAEAEC"/>
<circle cx="273" cy="374" r="4" fill="#EAEAEC"/>
<circle cx="273" cy="392" r="4" fill="#EAEAEC"/>
<circle cx="273" cy="410" r="4" fill="#EAEAEC"/>
<circle cx="273" cy="428" r="4" fill="#EAEAEC"/>
<circle cx="273" cy="446" r="4" fill="#EAEAEC"/>
<circle cx="273" cy="464" r="4" fill="#EAEAEC"/>
<circle cx="273" cy="482" r="4" fill="#EAEAEC"/>
<circle cx="273" cy="500" r="4" fill="#EAEAEC"/>
<circle cx="291" cy="230" r="4" fill="#EAEAEC"/>
<circle cx="291" cy="248" r="4" fill="#EAEAEC"/>
<circle cx="291" cy="266" r="4" fill="#EAEAEC"/>
<circle cx="291" cy="284" r="4" fill="#EAEAEC"/>
<circle cx="291" cy="302" r="4" fill="#EAEAEC"/>
<circle cx="291" cy="320" r="4" fill="#EAEAEC"/>
<circle cx="291" cy="338" r="4" fill="#EAEAEC"/>
<circle cx="291" cy="356" r="4" fill="#EAEAEC"/>
<circle cx="291" cy="374" r="4" fill="#EAEAEC"/>
<circle cx="291" cy="392" r="4" fill="#EAEAEC"/>
<circle cx="291" cy="410" r="4" fill="#EAEAEC"/>
<circle cx="291" cy="428" r="4" fill="#EAEAEC"/>
<circle cx="291" cy="446" r="4" fill="#EAEAEC"/>
<circle cx="291" cy="464" r="4" fill="#EAEAEC"/>
<circle cx="291" cy="482" r="4" fill="#EAEAEC"/>
<circle cx="291" cy="500" r="4" fill="#EAEAEC"/>
<circle cx="309" cy="230" r="4" fill="#EAEAEC"/>
<circle cx="309" cy="248" r="4" fill="#EAEAEC"/>
<circle cx="309" cy="266" r="4" fill="#EAEAEC"/>
<circle cx="309" cy="284" r="4" fill="#EAEAEC"/>
<circle cx="309" cy="302" r="4" fill="#EAEAEC"/>
<circle cx="309" cy="320" r="4" fill="#EAEAEC"/>
<circle cx="309" cy="338" r="4" fill="#EAEAEC"/>
<circle cx="309" cy="356" r="4" fill="#EAEAEC"/>
<circle cx="309" cy="374" r="4" fill="#EAEAEC"/>
<circle cx="309" cy="392" r="4" fill="#EAEAEC"/>
<circle cx="309" cy="410" r="4" fill="#EAEAEC"/>
<circle cx="309" cy="428" r="4" fill="#EAEAEC"/>
<circle cx="309" cy="446" r="4" fill="#EAEAEC"/>
<circle cx="309" cy="464" r="4" fill="#EAEAEC"/>
<circle cx="309" cy="482" r="4" fill="#EAEAEC"/>
<circle cx="309" cy="500" r="4" fill="#EAEAEC"/>
<circle cx="327" cy="230" r="4" fill="#EAEAEC"/>
<circle cx="327" cy="248" r="4" fill="#EAEAEC"/>
<circle cx="327" cy="266" r="4" fill="#EAEAEC"/>
<circle cx="327" cy="284" r="4" fill="#EAEAEC"/>
<circle cx="327" cy="302" r="4" fill="#EAEAEC"/>
<circle cx="327" cy="320" r="4" fill="#EAEAEC"/>
<circle cx="327" cy="338" r="4" fill="#EAEAEC"/>
<circle cx="327" cy="356" r="4" fill="#EAEAEC"/>
<circle cx="327" cy="374" r="4" fill="#EAEAEC"/>
<circle cx="327" cy="392" r="4" fill="#EAEAEC"/>
<circle cx="327" cy="410" r="4" fill="#EAEAEC"/>
<circle cx="327" cy="428" r="4" fill="#EAEAEC"/>
<circle cx="327" cy="446" r="4" fill="#EAEAEC"/>
<circle cx="327" cy="464" r="4" fill="#EAEAEC"/>
<circle cx="327" cy="482" r="4" fill="#EAEAEC"/>
<circle cx="327" cy="500" r="4" fill="#EAEAEC"/>
<circle cx="345" cy="230" r="4" fill="#EAEAEC"/>
<circle cx="345" cy="248" r="4" fill="#EAEAEC"/>
<circle cx="345" cy="266" r="4" fill="#EAEAEC"/>
<circle cx="345" cy="284" r="4" fill="#EAEAEC"/>
<circle cx="345" cy="302" r="4" fill="#EAEAEC"/>
<circle cx="345" cy="320" r="4" fill="#EAEAEC"/>
<circle cx="345" cy="338" r="4" fill="#EAEAEC"/>
<circle cx="345" cy="356" r="4" fill="#EAEAEC"/>
<circle cx="345" cy="374" r="4" fill="#EAEAEC"/>
<circle cx="345" cy="392" r="4" fill="#EAEAEC"/>
<circle cx="345" cy="410" r="4" fill="#EAEAEC"/>
<circle cx="345" cy="428" r="4" fill="#EAEAEC"/>
<circle cx="345" cy="446" r="4" fill="#EAEAEC"/>
<circle cx="345" cy="464" r="4" fill="#EAEAEC"/>
<circle cx="345" cy="482" r="4" fill="#EAEAEC"/>
<circle cx="345" cy="500" r="4" fill="#EAEAEC"/>
<circle cx="363" cy="230" r="4" fill="#EAEAEC"/>
<circle cx="363" cy="248" r="4" fill="#EAEAEC"/>
<circle cx="363" cy="266" r="4" fill="#EAEAEC"/>
<circle cx="363" cy="284" r="4" fill="#EAEAEC"/>
<circle cx="363" cy="302" r="4" fill="#EAEAEC"/>
<circle cx="363" cy="320" r="4" fill="#EAEAEC"/>
<circle cx="363" cy="338" r="4" fill="#EAEAEC"/>
<circle cx="363" cy="356" r="4" fill="#EAEAEC"/>
<circle cx="363" cy="374" r="4" fill="#EAEAEC"/>
<circle cx="363" cy="392" r="4" fill="#EAEAEC"/>
<circle cx="363" cy="410" r="4" fill="#EAEAEC"/>
<circle cx="363" cy="428" r="4" fill="#EAEAEC"/>
<circle cx="363" cy="446" r="4" fill="#EAEAEC"/>
<circle cx="363" cy="464" r="4" fill="#EAEAEC"/>
<circle cx="363" cy="482" r="4" fill="#EAEAEC"/>
<circle cx="363" cy="500" r="4" fill="#EAEAEC"/>
<circle cx="381" cy="230" r="4" fill="#EAEAEC"/>
<circle cx="381" cy="248" r="4" fill="#EAEAEC"/>
<circle cx="381" cy="266" r="4" fill="#EAEAEC"/>
<circle cx="381" cy="284" r="4" fill="#EAEAEC"/>
<circle cx="381" cy="302" r="4" fill="#EAEAEC"/>
<circle cx="381" cy="320" r="4" fill="#EAEAEC"/>
<circle cx="381" cy="338" r="4" fill="#EAEAEC"/>
<circle cx="381" cy="356" r="4" fill="#EAEAEC"/>
<circle cx="381" cy="374" r="4" fill="#EAEAEC"/>
<circle cx="381" cy="392" r="4" fill="#EAEAEC"/>
<circle cx="381" cy="410" r="4" fill="#EAEAEC"/>
<circle cx="381" cy="428" r="4" fill="#EAEAEC"/>
<circle cx="381" cy="446" r="4" fill="#EAEAEC"/>
<circle cx="381" cy="464" r="4" fill="#EAEAEC"/>
<circle cx="381" cy="482" r="4" fill="#EAEAEC"/>
<circle cx="381" cy="500" r="4" fill="#EAEAEC"/>
<circle cx="399" cy="230" r="4" fill="#EAEAEC"/>
<circle cx="399" cy="248" r="4" fill="#EAEAEC"/>
<circle cx="399" cy="266" r="4" fill="#EAEAEC"/>
<circle cx="399" cy="284" r="4" fill="#EAEAEC"/>
<circle cx="399" cy="302" r="4" fill="#EAEAEC"/>
<circle cx="399" cy="320" r="4" fill="#EAEAEC"/>
<circle cx="399" cy="338" r="4" fill="#EAEAEC"/>
<circle cx="399" cy="356" r="4" fill="#EAEAEC"/>
<circle cx="399" cy="374" r="4" fill="#EAEAEC"/>
<circle cx="399" cy="392" r="4" fill="#EAEAEC"/>
<circle cx="399" cy="410" r="4" fill="#EAEAEC"/>
<circle cx="399" cy="428" r="4" fill="#EAEAEC"/>
<circle cx="399" cy="446" r="4" fill="#EAEAEC"/>
<circle cx="399" cy="464" r="4" fill="#EAEAEC"/>
<circle cx="399" cy="482" r="4" fill="#EAEAEC"/>
<circle cx="399" cy="500" r="4" fill="#EAEAEC"/>
<circle cx="417" cy="230" r="4" fill="#EAEAEC"/>
<circle cx="417" cy="248" r="4" fill="#EAEAEC"/>
<circle cx="417" cy="266" r="4" fill="#EAEAEC"/>
<circle cx="417" cy="284" r="4" fill="#EAEAEC"/>
<circle cx="417" cy="302" r="4" fill="#EAEAEC"/>
<circle cx="417" cy="320" r="4" fill="#EAEAEC"/>
<circle cx="417" cy="338" r="4" fill="#EAEAEC"/>
<circle cx="417" cy="356" r="4" fill="#EAEAEC"/>
<circle cx="417" cy="374" r="4" fill="#EAEAEC"/>
<circle cx="417" cy="392" r="4" fill="#EAEAEC"/>
<circle cx="417" cy="410" r="4" fill="#EAEAEC"/>
<circle cx="417" cy="428" r="4" fill="#EAEAEC"/>
<circle cx="417" cy="446" r="4" fill="#EAEAEC"/>
<circle cx="417" cy="464" r="4" fill="#EAEAEC"/>
<circle cx="417" cy="482" r="4" fill="#EAEAEC"/>
<circle cx="417" cy="500" r="4" fill="#EAEAEC"/>
<circle cx="435" cy="230" r="4" fill="#EAEAEC"/>
<circle cx="435" cy="248" r="4" fill="#EAEAEC"/>
<circle cx="435" cy="266" r="4" fill="#EAEAEC"/>
<circle cx="435" cy="284" r="4" fill="#EAEAEC"/>
<circle cx="435" cy="302" r="4" fill="#EAEAEC"/>
<circle cx="435" cy="320" r="4" fill="#EAEAEC"/>
<circle cx="435" cy="338" r="4" fill="#EAEAEC"/>
<circle cx="435" cy="356" r="4" fill="#EAEAEC"/>
<circle cx="435" cy="374" r="4" fill="#EAEAEC"/>
<circle cx="435" cy="392" r="4" fill="#EAEAEC"/>
<circle cx="435" cy="410" r="4" fill="#EAEAEC"/>
<circle cx="435" cy="428" r="4" fill="#EAEAEC"/>
<circle cx="435" cy="446" r="4" fill="#EAEAEC"/>
<circle cx="435" cy="464" r="4" fill="#EAEAEC"/>
<circle cx="435" cy="482" r="4" fill="#EAEAEC"/>
<circle cx="435" cy="500" r="4" fill="#EAEAEC"/>
<circle cx="453" cy="230" r="4" fill="#EAEAEC"/>
<circle cx="453" cy="248" r="4" fill="#EAEAEC"/>
<circle cx="453" cy="266" r="4" fill="#EAEAEC"/>
<circle cx="453" cy="284" r="4" fill="#EAEAEC"/>
<circle cx="453" cy="302" r="4" fill="#EAEAEC"/>
<circle cx="453" cy="320" r="4" fill="#EAEAEC"/>
<circle cx="453" cy="338" r="4" fill="#EAEAEC"/>
<circle cx="453" cy="356" r="4" fill="#EAEAEC"/>
<circle cx="453" cy="374" r="4" fill="#EAEAEC"/>
<circle cx="453" cy="392" r="4" fill="#EAEAEC"/>
<circle cx="453" cy="410" r="4" fill="#EAEAEC"/>
<circle cx="453" cy="428" r="4" fill="#EAEAEC"/>
<circle cx="453" cy="446" r="4" fill="#EAEAEC"/>
<circle cx="453" cy="464" r="4" fill="#EAEAEC"/>
<circle cx="453" cy="482" r="4" fill="#EAEAEC"/>
<circle cx="453" cy="500" r="4" fill="#EAEAEC"/>
<circle cx="471" cy="230" r="4" fill="#EAEAEC"/>
<circle cx="471" cy="248" r="4" fill="#EAEAEC"/>
<circle cx="471" cy="266" r="4" fill="#EAEAEC"/>
<circle cx="471" cy="284" r="4" fill="#EAEAEC"/>
<circle cx="471" cy="302" r="4" fill="#EAEAEC"/>
<circle cx="471" cy="320" r="4" fill="#EAEAEC"/>
<circle cx="471" cy="338" r="4" fill="#EAEAEC"/>
<circle cx="471" cy="356" r="4" fill="#EAEAEC"/>
<circle cx="471" cy="374" r="4" fill="#EAEAEC"/>
<circle cx="471" cy="392" r="4" fill="#EAEAEC"/>
<circle cx="471" cy="410" r="4" fill="#EAEAEC"/>
<circle cx="471" cy="428" r="4" fill="#EAEAEC"/>
<circle cx="471" cy="446" r="4" fill="#EAEAEC"/>
<circle cx="471" cy="464" r="4" fill="#EAEAEC"/>
<circle cx="471" cy="482" r="4" fill="#EAEAEC"/>
<circle cx="471" cy="500" r="4" fill="#EAEAEC"/>
<circle cx="489" cy="230" r="4" fill="#EAEAEC"/>
<circle cx="489" cy="248" r="4" fill="#EAEAEC"/>
<circle cx="489" cy="266" r="4" fill="#EAEAEC"/>
<circle cx="489" cy="284" r="4" fill="#EAEAEC"/>
<circle cx="489" cy="302" r="4" fill="#EAEAEC"/>
<circle cx="489" cy="320" r="4" fill="#EAEAEC"/>
<circle cx="489" cy="338" r="4" fill="#EAEAEC"/>
<circle cx="489" cy="356" r="4" fill="#EAEAEC"/>
<circle cx="489" cy="374" r="4" fill="#EAEAEC"/>
<circle cx="489" cy="392" r="4" fill="#EAEAEC"/>
<circle cx="489" cy="410" r="4" fill="#EAEAEC"/>
<circle cx="489" cy="428" r="4" fill="#EAEAEC"/>
<circle cx="489" cy="446" r="4" fill="#EAEAEC"/>
<circle cx="489" cy="464" r="4" fill="#EAEAEC"/>
<circle cx="489" cy="482" r="4" fill="#EAEAEC"/>
<circle cx="489" cy="500" r="4" fill="#EAEAEC"/>
<circle cx="507" cy="230" r="4" fill="#EAEAEC"/>
<circle cx="507" cy="248" r="4" fill="#EAEAEC"/>
<circle cx="507" cy="266" r="4" fill="#EAEAEC"/>
<circle cx="507" cy="284" r="4" fill="#EAEAEC"/>
<circle cx="507" cy="302" r="4" fill="#EAEAEC"/>
<circle cx="507" cy="320" r="4" fill="#EAEAEC"/>
<circle cx="507" cy="338" r="4" fill="#EAEAEC"/>
<circle cx="507" cy="356" r="4" fill="#EAEAEC"/>
<circle cx="507" cy="374" r="4" fill="#EAEAEC"/>
<circle cx="507" cy="392" r="4" fill="#EAEAEC"/>
<circle cx="507" cy="410" r="4" fill="#EAEAEC"/>
<circle cx="507" cy="428" r="4" fill="#EAEAEC"/>
<circle cx="507" cy="446" r="4" fill="#EAEAEC"/>
<circle cx="507" cy="464" r="4" fill="#EAEAEC"/>
<circle cx="507" cy="482" r="4" fill="#EAEAEC"/>
<circle cx="507" cy="500" r="4" fill="#EAEAEC"/>
<circle cx="525" cy="230" r="4" fill="#EAEAEC"/>
<circle cx="525" cy="248" r="4" fill="#EAEAEC"/>
<circle cx="525" cy="266" r="4" fill="#EAEAEC"/>
<circle cx="525" cy="284" r="4" fill="#EAEAEC"/>
<circle cx="525" cy="302" r="4" fill="#EAEAEC"/>
<circle cx="525" cy="320" r="4" fill="#EAEAEC"/>
<circle cx="525" cy="338" r="4" fill="#EAEAEC"/>
<circle cx="525" cy="356" r="4" fill="#EAEAEC"/>
<circle cx="525" cy="374" r="4" fill="#EAEAEC"/>
<circle cx="525" cy="392" r="4" fill="#EAEAEC"/>
<circle cx="525" cy="410" r="4" fill="#EAEAEC"/>
<circle cx="525" cy="428" r="4" fill="#EAEAEC"/>
<circle cx="525" cy="446" r="4" fill="#EAEAEC"/>
<circle cx="525" cy="464" r="4" fill="#EAEAEC"/>
<circle cx="525" cy="482" r="4" fill="#EAEAEC"/>
<circle cx="525" cy="500" r="4" fill="#EAEAEC"/>
<circle cx="543" cy="230" r="4" fill="#EAEAEC"/>
<circle cx="543" cy="248" r="4" fill="#EAEAEC"/>
<circle cx="543" cy="266" r="4" fill="#EAEAEC"/>
<circle cx="543" cy="284" r="4" fill="#EAEAEC"/>
<circle cx="543" cy="302" r="4" fill="#EAEAEC"/>
<circle cx="543" cy="320" r="4" fill="#EAEAEC"/>
<circle cx="543" cy="338" r="4" fill="#EAEAEC"/>
<circle cx="543" cy="356" r="4" fill="#EAEAEC"/>
<circle cx="543" cy="374" r="4" fill="#EAEAEC"/>
<circle cx="543" cy="392" r="4" fill="#EAEAEC"/>
<circle cx="543" cy="410" r="4" fill="#EAEAEC"/>
<circle cx="543" cy="428" r="4" fill="#EAEAEC"/>
<circle cx="543" cy="446" r="4" fill="#EAEAEC"/>
<circle cx="543" cy="464" r="4" fill="#EAEAEC"/>
<circle cx="543" cy="482" r="4" fill="#EAEAEC"/>
<circle cx="543" cy="500" r="4" fill="#EAEAEC"/>
<circle cx="561" cy="230" r="4" fill="#EAEAEC"/>
<circle cx="561" cy="248" r="4" fill="#EAEAEC"/>
<circle cx="561" cy="266" r="4" fill="#EAEAEC"/>
<circle cx="561" cy="284" r="4" fill="#EAEAEC"/>
<circle cx="561" cy="302" r="4" fill="#EAEAEC"/>
<circle cx="561" cy="320" r="4" fill="#EAEAEC"/>
<circle cx="561" cy="338" r="4" fill="#EAEAEC"/>
<circle cx="561" cy="356" r="4" fill="#EAEAEC"/>
<circle cx="561" cy="374" r="4" fill="#EAEAEC"/>
<circle cx="561" cy="392" r="4" fill="#EAEAEC"/>
<circle cx="561" cy="410" r="4" fill="#EAEAEC"/>
<circle cx="561" cy="428" r="4" fill="#EAEAEC"/>
<circle cx="561" cy="446" r="4" fill="#EAEAEC"/>
<circle cx="561" cy="464" r="4" fill="#EAEAEC"/>
<circle cx="561" cy="482" r="4" fill="#EAEAEC"/>
<circle cx="561" cy="500" r="4" fill="#EAEAEC"/>
<circle cx="49.5" cy="92.5" r="152.5" fill="#F93E6C"/>
<path d="M132.069 664.25C59.1292 706.362 34.1382 799.629 76.2499 872.569L340.388 720.069C298.276 647.129 205.008 622.138 132.069 664.25Z" fill="#CE69FE"/>
<rect x="520" y="848.046" width="367.229" height="123.74" rx="61.8701" transform="rotate(-15 520 848.046)" fill="#2CCFBC"/>
<path d="M946.917 60.3948C961.788 56.41 975.396 70.0183 971.412 84.8897L915.824 292.346C911.839 307.217 893.25 312.198 882.363 301.312L730.495 149.443C719.608 138.557 724.589 119.967 739.461 115.983L946.917 60.3948Z" fill="#00C3F9"/>
<path d="M197.182 401.375C196.943 400.545 196.608 399.812 196.176 399.176C195.744 398.528 195.216 397.983 194.591 397.54C193.977 397.085 193.273 396.739 192.477 396.5C191.693 396.261 190.824 396.142 189.869 396.142C188.085 396.142 186.517 396.585 185.165 397.472C183.824 398.358 182.778 399.648 182.028 401.341C181.278 403.023 180.903 405.08 180.903 407.511C180.903 409.943 181.273 412.011 182.011 413.716C182.75 415.42 183.795 416.722 185.148 417.619C186.5 418.506 188.097 418.949 189.938 418.949C191.608 418.949 193.034 418.653 194.216 418.062C195.409 417.46 196.318 416.614 196.943 415.523C197.58 414.432 197.898 413.142 197.898 411.653L199.398 411.875H190.398V406.318H205.006V410.716C205.006 413.784 204.358 416.42 203.062 418.625C201.767 420.818 199.983 422.511 197.71 423.705C195.438 424.886 192.835 425.477 189.903 425.477C186.631 425.477 183.756 424.756 181.278 423.312C178.801 421.858 176.869 419.795 175.483 417.125C174.108 414.443 173.42 411.261 173.42 407.58C173.42 404.75 173.83 402.227 174.648 400.011C175.477 397.784 176.636 395.898 178.125 394.352C179.614 392.807 181.347 391.631 183.324 390.824C185.301 390.017 187.443 389.614 189.75 389.614C191.727 389.614 193.568 389.903 195.273 390.483C196.977 391.051 198.489 391.858 199.807 392.903C201.136 393.949 202.222 395.193 203.062 396.636C203.903 398.068 204.443 399.648 204.682 401.375H197.182ZM222.345 425.511C219.652 425.511 217.334 424.966 215.391 423.875C213.459 422.773 211.97 421.216 210.925 419.205C209.879 417.182 209.357 414.79 209.357 412.028C209.357 409.335 209.879 406.972 210.925 404.938C211.97 402.903 213.442 401.318 215.339 400.182C217.249 399.045 219.487 398.477 222.055 398.477C223.783 398.477 225.391 398.756 226.879 399.312C228.379 399.858 229.686 400.682 230.8 401.784C231.925 402.886 232.8 404.273 233.425 405.943C234.05 407.602 234.362 409.545 234.362 411.773V413.767H212.254V409.267H227.527C227.527 408.222 227.3 407.295 226.845 406.489C226.391 405.682 225.76 405.051 224.953 404.597C224.158 404.131 223.232 403.898 222.175 403.898C221.072 403.898 220.095 404.153 219.243 404.665C218.402 405.165 217.743 405.841 217.266 406.693C216.788 407.534 216.544 408.472 216.533 409.506V413.784C216.533 415.08 216.771 416.199 217.249 417.142C217.737 418.085 218.425 418.812 219.311 419.324C220.197 419.835 221.249 420.091 222.464 420.091C223.271 420.091 224.01 419.977 224.68 419.75C225.351 419.523 225.925 419.182 226.402 418.727C226.879 418.273 227.243 417.716 227.493 417.057L234.209 417.5C233.868 419.114 233.169 420.523 232.112 421.727C231.067 422.92 229.714 423.852 228.055 424.523C226.408 425.182 224.504 425.511 222.345 425.511ZM253.027 398.818V404.273H237.26V398.818H253.027ZM240.839 392.545H248.101V416.955C248.101 417.625 248.203 418.148 248.408 418.523C248.612 418.886 248.896 419.142 249.26 419.29C249.635 419.437 250.067 419.511 250.555 419.511C250.896 419.511 251.237 419.483 251.578 419.426C251.919 419.358 252.18 419.307 252.362 419.273L253.504 424.676C253.141 424.79 252.629 424.92 251.97 425.068C251.311 425.227 250.51 425.324 249.567 425.358C247.817 425.426 246.283 425.193 244.964 424.659C243.658 424.125 242.641 423.295 241.913 422.17C241.186 421.045 240.828 419.625 240.839 417.909V392.545ZM290.651 406.284L284.003 406.693C283.889 406.125 283.645 405.614 283.27 405.159C282.895 404.693 282.401 404.324 281.787 404.051C281.185 403.767 280.463 403.625 279.622 403.625C278.497 403.625 277.548 403.864 276.776 404.341C276.003 404.807 275.616 405.432 275.616 406.216C275.616 406.841 275.866 407.369 276.366 407.801C276.866 408.233 277.724 408.58 278.94 408.841L283.679 409.795C286.224 410.318 288.122 411.159 289.372 412.318C290.622 413.477 291.247 415 291.247 416.886C291.247 418.602 290.741 420.108 289.73 421.403C288.73 422.699 287.355 423.71 285.605 424.438C283.866 425.153 281.861 425.511 279.588 425.511C276.122 425.511 273.361 424.79 271.304 423.347C269.259 421.892 268.06 419.915 267.707 417.415L274.849 417.04C275.065 418.097 275.588 418.903 276.418 419.46C277.247 420.006 278.31 420.278 279.605 420.278C280.878 420.278 281.901 420.034 282.673 419.545C283.457 419.045 283.855 418.403 283.866 417.619C283.855 416.96 283.577 416.42 283.031 416C282.486 415.568 281.645 415.239 280.509 415.011L275.974 414.108C273.418 413.597 271.514 412.71 270.264 411.449C269.026 410.187 268.406 408.58 268.406 406.625C268.406 404.943 268.861 403.494 269.77 402.278C270.69 401.062 271.98 400.125 273.639 399.466C275.31 398.807 277.264 398.477 279.503 398.477C282.81 398.477 285.412 399.176 287.31 400.574C289.219 401.972 290.332 403.875 290.651 406.284ZM309.746 398.818V404.273H293.979V398.818H309.746ZM297.558 392.545H304.82V416.955C304.82 417.625 304.922 418.148 305.126 418.523C305.331 418.886 305.615 419.142 305.979 419.29C306.354 419.437 306.786 419.511 307.274 419.511C307.615 419.511 307.956 419.483 308.297 419.426C308.638 419.358 308.899 419.307 309.081 419.273L310.223 424.676C309.859 424.79 309.348 424.92 308.689 425.068C308.03 425.227 307.229 425.324 306.286 425.358C304.536 425.426 303.001 425.193 301.683 424.659C300.376 424.125 299.359 423.295 298.632 422.17C297.905 421.045 297.547 419.625 297.558 417.909V392.545ZM321.942 425.494C320.271 425.494 318.783 425.205 317.476 424.625C316.169 424.034 315.135 423.165 314.374 422.017C313.624 420.858 313.249 419.415 313.249 417.688C313.249 416.233 313.516 415.011 314.05 414.023C314.584 413.034 315.311 412.239 316.232 411.636C317.152 411.034 318.197 410.58 319.368 410.273C320.55 409.966 321.788 409.75 323.084 409.625C324.607 409.466 325.834 409.318 326.766 409.182C327.697 409.034 328.374 408.818 328.794 408.534C329.214 408.25 329.425 407.83 329.425 407.273V407.17C329.425 406.091 329.084 405.256 328.402 404.665C327.732 404.074 326.777 403.778 325.538 403.778C324.232 403.778 323.192 404.068 322.419 404.648C321.646 405.216 321.135 405.932 320.885 406.795L314.169 406.25C314.51 404.659 315.18 403.284 316.18 402.125C317.18 400.955 318.47 400.057 320.05 399.432C321.641 398.795 323.482 398.477 325.572 398.477C327.027 398.477 328.419 398.648 329.749 398.989C331.089 399.33 332.277 399.858 333.311 400.574C334.357 401.29 335.18 402.21 335.783 403.335C336.385 404.449 336.686 405.784 336.686 407.341V425H329.8V421.369H329.595C329.175 422.188 328.612 422.909 327.908 423.534C327.203 424.148 326.357 424.631 325.368 424.983C324.379 425.324 323.237 425.494 321.942 425.494ZM324.021 420.483C325.089 420.483 326.033 420.273 326.851 419.852C327.669 419.42 328.311 418.841 328.777 418.114C329.243 417.386 329.476 416.562 329.476 415.642V412.864C329.249 413.011 328.936 413.148 328.538 413.273C328.152 413.386 327.714 413.494 327.226 413.597C326.737 413.687 326.249 413.773 325.76 413.852C325.271 413.92 324.828 413.983 324.43 414.04C323.578 414.165 322.834 414.364 322.197 414.636C321.561 414.909 321.067 415.278 320.714 415.744C320.362 416.199 320.186 416.767 320.186 417.449C320.186 418.438 320.544 419.193 321.26 419.716C321.987 420.227 322.908 420.483 324.021 420.483ZM342.32 425V398.818H349.359V403.386H349.632C350.109 401.761 350.911 400.534 352.036 399.705C353.161 398.864 354.456 398.443 355.922 398.443C356.286 398.443 356.678 398.466 357.098 398.511C357.518 398.557 357.888 398.619 358.206 398.699V405.142C357.865 405.04 357.393 404.949 356.791 404.869C356.189 404.79 355.638 404.75 355.138 404.75C354.07 404.75 353.115 404.983 352.274 405.449C351.445 405.903 350.786 406.54 350.297 407.358C349.82 408.176 349.581 409.119 349.581 410.188V425H342.32ZM377.199 398.818V404.273H361.432V398.818H377.199ZM365.011 392.545H372.273V416.955C372.273 417.625 372.375 418.148 372.58 418.523C372.784 418.886 373.068 419.142 373.432 419.29C373.807 419.437 374.239 419.511 374.727 419.511C375.068 419.511 375.409 419.483 375.75 419.426C376.091 419.358 376.352 419.307 376.534 419.273L377.676 424.676C377.313 424.79 376.801 424.92 376.142 425.068C375.483 425.227 374.682 425.324 373.739 425.358C371.989 425.426 370.455 425.193 369.136 424.659C367.83 424.125 366.813 423.295 366.085 422.17C365.358 421.045 365 419.625 365.011 417.909V392.545ZM393.58 425.511C390.886 425.511 388.568 424.966 386.625 423.875C384.693 422.773 383.205 421.216 382.159 419.205C381.114 417.182 380.591 414.79 380.591 412.028C380.591 409.335 381.114 406.972 382.159 404.938C383.205 402.903 384.676 401.318 386.574 400.182C388.483 399.045 390.722 398.477 393.29 398.477C395.017 398.477 396.625 398.756 398.114 399.312C399.614 399.858 400.92 400.682 402.034 401.784C403.159 402.886 404.034 404.273 404.659 405.943C405.284 407.602 405.597 409.545 405.597 411.773V413.767H383.489V409.267H398.761C398.761 408.222 398.534 407.295 398.08 406.489C397.625 405.682 396.994 405.051 396.188 404.597C395.392 404.131 394.466 403.898 393.409 403.898C392.307 403.898 391.33 404.153 390.477 404.665C389.636 405.165 388.977 405.841 388.5 406.693C388.023 407.534 387.778 408.472 387.767 409.506V413.784C387.767 415.08 388.006 416.199 388.483 417.142C388.972 418.085 389.659 418.812 390.545 419.324C391.432 419.835 392.483 420.091 393.699 420.091C394.506 420.091 395.244 419.977 395.915 419.75C396.585 419.523 397.159 419.182 397.636 418.727C398.114 418.273 398.477 417.716 398.727 417.057L405.443 417.5C405.102 419.114 404.403 420.523 403.347 421.727C402.301 422.92 400.949 423.852 399.29 424.523C397.642 425.182 395.739 425.511 393.58 425.511ZM419.983 425.426C417.994 425.426 416.193 424.915 414.58 423.892C412.977 422.858 411.705 421.341 410.761 419.341C409.83 417.33 409.364 414.864 409.364 411.943C409.364 408.943 409.847 406.449 410.812 404.46C411.778 402.46 413.063 400.966 414.665 399.977C416.278 398.977 418.045 398.477 419.966 398.477C421.432 398.477 422.653 398.727 423.631 399.227C424.619 399.716 425.415 400.33 426.017 401.068C426.631 401.795 427.097 402.511 427.415 403.216H427.636V390.091H434.881V425H427.722V420.807H427.415C427.074 421.534 426.591 422.256 425.966 422.972C425.352 423.676 424.551 424.261 423.562 424.727C422.585 425.193 421.392 425.426 419.983 425.426ZM422.284 419.648C423.455 419.648 424.443 419.33 425.25 418.693C426.068 418.045 426.693 417.142 427.125 415.983C427.568 414.824 427.79 413.466 427.79 411.909C427.79 410.352 427.574 409 427.142 407.852C426.71 406.705 426.085 405.818 425.267 405.193C424.449 404.568 423.455 404.256 422.284 404.256C421.091 404.256 420.085 404.58 419.267 405.227C418.449 405.875 417.83 406.773 417.409 407.92C416.989 409.068 416.778 410.398 416.778 411.909C416.778 413.432 416.989 414.778 417.409 415.949C417.841 417.108 418.46 418.017 419.267 418.676C420.085 419.324 421.091 419.648 422.284 419.648ZM457.125 425L450 398.818H457.347L461.403 416.409H461.642L465.869 398.818H473.08L477.375 416.307H477.597L481.585 398.818H488.915L481.807 425H474.119L469.619 408.534H469.295L464.795 425H457.125ZM492.788 425V398.818H500.05V425H492.788ZM496.436 395.443C495.357 395.443 494.43 395.085 493.658 394.369C492.896 393.642 492.516 392.773 492.516 391.761C492.516 390.761 492.896 389.903 493.658 389.188C494.43 388.46 495.357 388.097 496.436 388.097C497.516 388.097 498.436 388.46 499.197 389.188C499.97 389.903 500.357 390.761 500.357 391.761C500.357 392.773 499.97 393.642 499.197 394.369C498.436 395.085 497.516 395.443 496.436 395.443ZM519.793 398.818V404.273H504.026V398.818H519.793ZM507.605 392.545H514.866V416.955C514.866 417.625 514.969 418.148 515.173 418.523C515.378 418.886 515.662 419.142 516.026 419.29C516.401 419.437 516.832 419.511 517.321 419.511C517.662 419.511 518.003 419.483 518.344 419.426C518.685 419.358 518.946 419.307 519.128 419.273L520.27 424.676C519.906 424.79 519.395 424.92 518.736 425.068C518.077 425.227 517.276 425.324 516.332 425.358C514.582 425.426 513.048 425.193 511.73 424.659C510.423 424.125 509.406 423.295 508.679 422.17C507.952 421.045 507.594 419.625 507.605 417.909V392.545ZM532.347 409.864V425H525.085V390.091H532.142V403.438H532.449C533.04 401.892 533.994 400.682 535.312 399.807C536.631 398.92 538.284 398.477 540.273 398.477C542.091 398.477 543.676 398.875 545.028 399.67C546.392 400.455 547.449 401.585 548.199 403.062C548.96 404.528 549.335 406.284 549.324 408.33V425H542.062V409.625C542.074 408.011 541.665 406.756 540.835 405.858C540.017 404.96 538.869 404.511 537.392 404.511C536.403 404.511 535.528 404.722 534.767 405.142C534.017 405.562 533.426 406.176 532.994 406.983C532.574 407.778 532.358 408.739 532.347 409.864ZM597.085 402.312H589.619C589.483 401.347 589.205 400.489 588.784 399.739C588.364 398.977 587.824 398.33 587.165 397.795C586.506 397.261 585.744 396.852 584.881 396.568C584.028 396.284 583.102 396.142 582.102 396.142C580.295 396.142 578.722 396.591 577.381 397.489C576.04 398.375 575 399.67 574.261 401.375C573.523 403.068 573.153 405.125 573.153 407.545C573.153 410.034 573.523 412.125 574.261 413.818C575.011 415.511 576.057 416.79 577.398 417.653C578.739 418.517 580.29 418.949 582.051 418.949C583.04 418.949 583.955 418.818 584.795 418.557C585.648 418.295 586.403 417.915 587.062 417.415C587.722 416.903 588.267 416.284 588.699 415.557C589.142 414.83 589.449 414 589.619 413.068L597.085 413.102C596.892 414.705 596.409 416.25 595.636 417.739C594.875 419.216 593.847 420.54 592.551 421.71C591.267 422.869 589.733 423.79 587.949 424.472C586.176 425.142 584.17 425.477 581.932 425.477C578.818 425.477 576.034 424.773 573.58 423.364C571.136 421.955 569.205 419.915 567.784 417.244C566.375 414.574 565.67 411.341 565.67 407.545C565.67 403.739 566.386 400.5 567.818 397.83C569.25 395.159 571.193 393.125 573.648 391.727C576.102 390.318 578.864 389.614 581.932 389.614C583.955 389.614 585.83 389.898 587.557 390.466C589.295 391.034 590.835 391.864 592.176 392.955C593.517 394.034 594.608 395.358 595.449 396.926C596.301 398.494 596.847 400.29 597.085 402.312ZM614.071 425.511C611.423 425.511 609.134 424.949 607.202 423.824C605.281 422.687 603.798 421.108 602.753 419.085C601.707 417.051 601.185 414.693 601.185 412.011C601.185 409.307 601.707 406.943 602.753 404.92C603.798 402.886 605.281 401.307 607.202 400.182C609.134 399.045 611.423 398.477 614.071 398.477C616.719 398.477 619.003 399.045 620.923 400.182C622.855 401.307 624.344 402.886 625.389 404.92C626.435 406.943 626.957 409.307 626.957 412.011C626.957 414.693 626.435 417.051 625.389 419.085C624.344 421.108 622.855 422.687 620.923 423.824C619.003 424.949 616.719 425.511 614.071 425.511ZM614.105 419.886C615.31 419.886 616.315 419.545 617.122 418.864C617.929 418.17 618.537 417.227 618.946 416.034C619.366 414.841 619.577 413.483 619.577 411.96C619.577 410.438 619.366 409.08 618.946 407.886C618.537 406.693 617.929 405.75 617.122 405.057C616.315 404.364 615.31 404.017 614.105 404.017C612.889 404.017 611.866 404.364 611.037 405.057C610.219 405.75 609.599 406.693 609.179 407.886C608.77 409.08 608.565 410.438 608.565 411.96C608.565 413.483 608.77 414.841 609.179 416.034C609.599 417.227 610.219 418.17 611.037 418.864C611.866 419.545 612.889 419.886 614.105 419.886ZM631.679 425V398.818H638.719V403.386H638.991C639.469 401.761 640.27 400.534 641.395 399.705C642.52 398.864 643.815 398.443 645.281 398.443C645.645 398.443 646.037 398.466 646.457 398.511C646.878 398.557 647.247 398.619 647.565 398.699V405.142C647.224 405.04 646.753 404.949 646.151 404.869C645.548 404.79 644.997 404.75 644.497 404.75C643.429 404.75 642.474 404.983 641.634 405.449C640.804 405.903 640.145 406.54 639.656 407.358C639.179 408.176 638.94 409.119 638.94 410.188V425H631.679ZM658.036 425.494C656.365 425.494 654.876 425.205 653.57 424.625C652.263 424.034 651.229 423.165 650.467 422.017C649.717 420.858 649.342 419.415 649.342 417.688C649.342 416.233 649.609 415.011 650.143 414.023C650.678 413.034 651.405 412.239 652.325 411.636C653.246 411.034 654.291 410.58 655.462 410.273C656.643 409.966 657.882 409.75 659.178 409.625C660.7 409.466 661.928 409.318 662.859 409.182C663.791 409.034 664.467 408.818 664.888 408.534C665.308 408.25 665.518 407.83 665.518 407.273V407.17C665.518 406.091 665.178 405.256 664.496 404.665C663.825 404.074 662.871 403.778 661.632 403.778C660.325 403.778 659.286 404.068 658.513 404.648C657.74 405.216 657.229 405.932 656.979 406.795L650.263 406.25C650.604 404.659 651.274 403.284 652.274 402.125C653.274 400.955 654.564 400.057 656.143 399.432C657.734 398.795 659.575 398.477 661.666 398.477C663.121 398.477 664.513 398.648 665.842 398.989C667.183 399.33 668.371 399.858 669.405 400.574C670.45 401.29 671.274 402.21 671.876 403.335C672.479 404.449 672.78 405.784 672.78 407.341V425H665.893V421.369H665.689C665.268 422.188 664.706 422.909 664.001 423.534C663.297 424.148 662.45 424.631 661.462 424.983C660.473 425.324 659.331 425.494 658.036 425.494ZM660.115 420.483C661.183 420.483 662.126 420.273 662.945 419.852C663.763 419.42 664.405 418.841 664.871 418.114C665.337 417.386 665.57 416.562 665.57 415.642V412.864C665.342 413.011 665.03 413.148 664.632 413.273C664.246 413.386 663.808 413.494 663.32 413.597C662.831 413.687 662.342 413.773 661.854 413.852C661.365 413.92 660.922 413.983 660.524 414.04C659.672 414.165 658.928 414.364 658.291 414.636C657.655 414.909 657.161 415.278 656.808 415.744C656.456 416.199 656.28 416.767 656.28 417.449C656.28 418.438 656.638 419.193 657.354 419.716C658.081 420.227 659.001 420.483 660.115 420.483ZM685.675 390.091V425H678.413V390.091H685.675ZM695.974 434.818C695.054 434.818 694.19 434.744 693.384 434.597C692.588 434.46 691.929 434.284 691.406 434.068L693.043 428.648C693.895 428.909 694.662 429.051 695.344 429.074C696.037 429.097 696.634 428.938 697.134 428.597C697.645 428.256 698.06 427.676 698.378 426.858L698.804 425.75L689.412 398.818H697.048L702.469 418.045H702.741L708.213 398.818H715.901L705.724 427.83C705.236 429.239 704.571 430.466 703.73 431.511C702.901 432.568 701.849 433.381 700.577 433.949C699.304 434.528 697.77 434.818 695.974 434.818ZM181.159 481.864V497H173.898V470.818H180.818V475.438H181.125C181.705 473.915 182.676 472.71 184.04 471.824C185.403 470.926 187.057 470.477 189 470.477C190.818 470.477 192.403 470.875 193.756 471.67C195.108 472.466 196.159 473.602 196.909 475.08C197.659 476.545 198.034 478.295 198.034 480.33V497H190.773V481.625C190.784 480.023 190.375 478.773 189.545 477.875C188.716 476.966 187.574 476.511 186.119 476.511C185.142 476.511 184.278 476.722 183.528 477.142C182.79 477.562 182.21 478.176 181.79 478.983C181.381 479.778 181.17 480.739 181.159 481.864ZM215.587 497.511C212.939 497.511 210.649 496.949 208.717 495.824C206.797 494.687 205.314 493.108 204.268 491.085C203.223 489.051 202.7 486.693 202.7 484.011C202.7 481.307 203.223 478.943 204.268 476.92C205.314 474.886 206.797 473.307 208.717 472.182C210.649 471.045 212.939 470.477 215.587 470.477C218.234 470.477 220.518 471.045 222.439 472.182C224.371 473.307 225.859 474.886 226.905 476.92C227.95 478.943 228.473 481.307 228.473 484.011C228.473 486.693 227.95 489.051 226.905 491.085C225.859 493.108 224.371 494.687 222.439 495.824C220.518 496.949 218.234 497.511 215.587 497.511ZM215.621 491.886C216.825 491.886 217.831 491.545 218.638 490.864C219.445 490.17 220.053 489.227 220.462 488.034C220.882 486.841 221.092 485.483 221.092 483.96C221.092 482.438 220.882 481.08 220.462 479.886C220.053 478.693 219.445 477.75 218.638 477.057C217.831 476.364 216.825 476.017 215.621 476.017C214.405 476.017 213.382 476.364 212.553 477.057C211.734 477.75 211.115 478.693 210.695 479.886C210.286 481.08 210.081 482.438 210.081 483.96C210.081 485.483 210.286 486.841 210.695 488.034C211.115 489.227 211.734 490.17 212.553 490.864C213.382 491.545 214.405 491.886 215.621 491.886ZM237.703 497L230.578 470.818H237.925L241.982 488.409H242.22L246.447 470.818H253.658L257.953 488.307H258.175L262.163 470.818H269.493L262.385 497H254.697L250.197 480.534H249.874L245.374 497H237.703ZM291.942 497.494C290.271 497.494 288.783 497.205 287.476 496.625C286.169 496.034 285.135 495.165 284.374 494.017C283.624 492.858 283.249 491.415 283.249 489.688C283.249 488.233 283.516 487.011 284.05 486.023C284.584 485.034 285.311 484.239 286.232 483.636C287.152 483.034 288.197 482.58 289.368 482.273C290.55 481.966 291.788 481.75 293.084 481.625C294.607 481.466 295.834 481.318 296.766 481.182C297.697 481.034 298.374 480.818 298.794 480.534C299.214 480.25 299.425 479.83 299.425 479.273V479.17C299.425 478.091 299.084 477.256 298.402 476.665C297.732 476.074 296.777 475.778 295.538 475.778C294.232 475.778 293.192 476.068 292.419 476.648C291.646 477.216 291.135 477.932 290.885 478.795L284.169 478.25C284.51 476.659 285.18 475.284 286.18 474.125C287.18 472.955 288.47 472.057 290.05 471.432C291.641 470.795 293.482 470.477 295.572 470.477C297.027 470.477 298.419 470.648 299.749 470.989C301.089 471.33 302.277 471.858 303.311 472.574C304.357 473.29 305.18 474.21 305.783 475.335C306.385 476.449 306.686 477.784 306.686 479.341V497H299.8V493.369H299.595C299.175 494.188 298.612 494.909 297.908 495.534C297.203 496.148 296.357 496.631 295.368 496.983C294.379 497.324 293.237 497.494 291.942 497.494ZM294.021 492.483C295.089 492.483 296.033 492.273 296.851 491.852C297.669 491.42 298.311 490.841 298.777 490.114C299.243 489.386 299.476 488.562 299.476 487.642V484.864C299.249 485.011 298.936 485.148 298.538 485.273C298.152 485.386 297.714 485.494 297.226 485.597C296.737 485.687 296.249 485.773 295.76 485.852C295.271 485.92 294.828 485.983 294.43 486.04C293.578 486.165 292.834 486.364 292.197 486.636C291.561 486.909 291.067 487.278 290.714 487.744C290.362 488.199 290.186 488.767 290.186 489.449C290.186 490.438 290.544 491.193 291.26 491.716C291.987 492.227 292.908 492.483 294.021 492.483ZM319.581 481.864V497H312.32V470.818H319.24V475.438H319.547C320.126 473.915 321.098 472.71 322.462 471.824C323.825 470.926 325.479 470.477 327.422 470.477C329.24 470.477 330.825 470.875 332.178 471.67C333.53 472.466 334.581 473.602 335.331 475.08C336.081 476.545 336.456 478.295 336.456 480.33V497H329.195V481.625C329.206 480.023 328.797 478.773 327.967 477.875C327.138 476.966 325.996 476.511 324.541 476.511C323.564 476.511 322.7 476.722 321.95 477.142C321.212 477.562 320.632 478.176 320.212 478.983C319.803 479.778 319.592 480.739 319.581 481.864ZM351.827 497.426C349.838 497.426 348.037 496.915 346.423 495.892C344.821 494.858 343.548 493.341 342.605 491.341C341.673 489.33 341.207 486.864 341.207 483.943C341.207 480.943 341.69 478.449 342.656 476.46C343.622 474.46 344.906 472.966 346.509 471.977C348.122 470.977 349.889 470.477 351.81 470.477C353.276 470.477 354.497 470.727 355.474 471.227C356.463 471.716 357.259 472.33 357.861 473.068C358.474 473.795 358.94 474.511 359.259 475.216H359.48V462.091H366.724V497H359.565V492.807H359.259C358.918 493.534 358.435 494.256 357.81 494.972C357.196 495.676 356.395 496.261 355.406 496.727C354.429 497.193 353.236 497.426 351.827 497.426ZM354.128 491.648C355.298 491.648 356.287 491.33 357.094 490.693C357.912 490.045 358.537 489.142 358.969 487.983C359.412 486.824 359.634 485.466 359.634 483.909C359.634 482.352 359.418 481 358.986 479.852C358.554 478.705 357.929 477.818 357.111 477.193C356.293 476.568 355.298 476.256 354.128 476.256C352.935 476.256 351.929 476.58 351.111 477.227C350.293 477.875 349.673 478.773 349.253 479.92C348.832 481.068 348.622 482.398 348.622 483.909C348.622 485.432 348.832 486.778 349.253 487.949C349.685 489.108 350.304 490.017 351.111 490.676C351.929 491.324 352.935 491.648 354.128 491.648ZM383.804 497V470.818H391.065V497H383.804ZM387.452 467.443C386.372 467.443 385.446 467.085 384.673 466.369C383.912 465.642 383.531 464.773 383.531 463.761C383.531 462.761 383.912 461.903 384.673 461.188C385.446 460.46 386.372 460.097 387.452 460.097C388.531 460.097 389.452 460.46 390.213 461.188C390.986 461.903 391.372 462.761 391.372 463.761C391.372 464.773 390.986 465.642 390.213 466.369C389.452 467.085 388.531 467.443 387.452 467.443ZM396.882 497V470.818H403.803V475.438H404.109C404.655 473.903 405.564 472.693 406.837 471.807C408.109 470.92 409.632 470.477 411.405 470.477C413.2 470.477 414.729 470.926 415.99 471.824C417.251 472.71 418.092 473.915 418.513 475.438H418.786C419.32 473.938 420.286 472.739 421.683 471.841C423.092 470.932 424.757 470.477 426.678 470.477C429.121 470.477 431.104 471.256 432.626 472.812C434.161 474.358 434.928 476.551 434.928 479.392V497H427.683V480.824C427.683 479.369 427.297 478.278 426.524 477.551C425.751 476.824 424.786 476.46 423.626 476.46C422.308 476.46 421.28 476.881 420.541 477.722C419.803 478.551 419.433 479.648 419.433 481.011V497H412.393V480.67C412.393 479.386 412.024 478.364 411.286 477.602C410.558 476.841 409.598 476.46 408.405 476.46C407.598 476.46 406.871 476.665 406.223 477.074C405.587 477.472 405.081 478.034 404.706 478.761C404.331 479.477 404.143 480.318 404.143 481.284V497H396.882ZM440.663 506.818V470.818H447.822V475.216H448.146C448.464 474.511 448.925 473.795 449.527 473.068C450.141 472.33 450.936 471.716 451.913 471.227C452.902 470.727 454.129 470.477 455.595 470.477C457.504 470.477 459.266 470.977 460.879 471.977C462.493 472.966 463.783 474.46 464.749 476.46C465.714 478.449 466.197 480.943 466.197 483.943C466.197 486.864 465.726 489.33 464.783 491.341C463.851 493.341 462.578 494.858 460.964 495.892C459.362 496.915 457.567 497.426 455.578 497.426C454.169 497.426 452.97 497.193 451.982 496.727C451.004 496.261 450.203 495.676 449.578 494.972C448.953 494.256 448.476 493.534 448.146 492.807H447.925V506.818H440.663ZM447.771 483.909C447.771 485.466 447.987 486.824 448.419 487.983C448.851 489.142 449.476 490.045 450.294 490.693C451.112 491.33 452.107 491.648 453.277 491.648C454.459 491.648 455.459 491.324 456.277 490.676C457.095 490.017 457.714 489.108 458.135 487.949C458.567 486.778 458.783 485.432 458.783 483.909C458.783 482.398 458.572 481.068 458.152 479.92C457.732 478.773 457.112 477.875 456.294 477.227C455.476 476.58 454.47 476.256 453.277 476.256C452.095 476.256 451.095 476.568 450.277 477.193C449.47 477.818 448.851 478.705 448.419 479.852C447.987 481 447.771 482.352 447.771 483.909ZM471.038 497V470.818H478.078V475.386H478.351C478.828 473.761 479.629 472.534 480.754 471.705C481.879 470.864 483.175 470.443 484.641 470.443C485.004 470.443 485.396 470.466 485.817 470.511C486.237 470.557 486.607 470.619 486.925 470.699V477.142C486.584 477.04 486.112 476.949 485.51 476.869C484.908 476.79 484.357 476.75 483.857 476.75C482.788 476.75 481.834 476.983 480.993 477.449C480.163 477.903 479.504 478.54 479.016 479.358C478.538 480.176 478.3 481.119 478.3 482.188V497H471.038ZM501.29 497.511C498.642 497.511 496.352 496.949 494.42 495.824C492.5 494.687 491.017 493.108 489.972 491.085C488.926 489.051 488.403 486.693 488.403 484.011C488.403 481.307 488.926 478.943 489.972 476.92C491.017 474.886 492.5 473.307 494.42 472.182C496.352 471.045 498.642 470.477 501.29 470.477C503.938 470.477 506.222 471.045 508.142 472.182C510.074 473.307 511.562 474.886 512.608 476.92C513.653 478.943 514.176 481.307 514.176 484.011C514.176 486.693 513.653 489.051 512.608 491.085C511.562 493.108 510.074 494.687 508.142 495.824C506.222 496.949 503.938 497.511 501.29 497.511ZM501.324 491.886C502.528 491.886 503.534 491.545 504.341 490.864C505.148 490.17 505.756 489.227 506.165 488.034C506.585 486.841 506.795 485.483 506.795 483.96C506.795 482.438 506.585 481.08 506.165 479.886C505.756 478.693 505.148 477.75 504.341 477.057C503.534 476.364 502.528 476.017 501.324 476.017C500.108 476.017 499.085 476.364 498.256 477.057C497.438 477.75 496.818 478.693 496.398 479.886C495.989 481.08 495.784 482.438 495.784 483.96C495.784 485.483 495.989 486.841 496.398 488.034C496.818 489.227 497.438 490.17 498.256 490.864C499.085 491.545 500.108 491.886 501.324 491.886ZM542.463 470.818L533.31 497H525.128L515.974 470.818H523.645L529.082 489.551H529.355L534.776 470.818H542.463ZM557.267 497.511C554.574 497.511 552.256 496.966 550.312 495.875C548.381 494.773 546.892 493.216 545.847 491.205C544.801 489.182 544.278 486.79 544.278 484.028C544.278 481.335 544.801 478.972 545.847 476.938C546.892 474.903 548.364 473.318 550.261 472.182C552.17 471.045 554.409 470.477 556.977 470.477C558.705 470.477 560.313 470.756 561.801 471.312C563.301 471.858 564.608 472.682 565.722 473.784C566.847 474.886 567.722 476.273 568.347 477.943C568.972 479.602 569.284 481.545 569.284 483.773V485.767H547.176V481.267H562.449C562.449 480.222 562.222 479.295 561.767 478.489C561.313 477.682 560.682 477.051 559.875 476.597C559.08 476.131 558.153 475.898 557.097 475.898C555.994 475.898 555.017 476.153 554.165 476.665C553.324 477.165 552.665 477.841 552.188 478.693C551.71 479.534 551.466 480.472 551.455 481.506V485.784C551.455 487.08 551.693 488.199 552.17 489.142C552.659 490.085 553.347 490.812 554.233 491.324C555.119 491.835 556.17 492.091 557.386 492.091C558.193 492.091 558.932 491.977 559.602 491.75C560.273 491.523 560.847 491.182 561.324 490.727C561.801 490.273 562.165 489.716 562.415 489.057L569.131 489.5C568.79 491.114 568.091 492.523 567.034 493.727C565.989 494.92 564.636 495.852 562.977 496.523C561.33 497.182 559.426 497.511 557.267 497.511ZM589.615 506.818C588.695 506.818 587.831 506.744 587.024 506.597C586.229 506.46 585.57 506.284 585.047 506.068L586.683 500.648C587.536 500.909 588.303 501.051 588.984 501.074C589.678 501.097 590.274 500.938 590.774 500.597C591.286 500.256 591.7 499.676 592.018 498.858L592.445 497.75L583.053 470.818H590.689L596.109 490.045H596.382L601.854 470.818H609.541L599.365 499.83C598.876 501.239 598.212 502.466 597.371 503.511C596.541 504.568 595.49 505.381 594.217 505.949C592.945 506.528 591.411 506.818 589.615 506.818ZM624.243 497.511C621.595 497.511 619.305 496.949 617.374 495.824C615.453 494.687 613.97 493.108 612.925 491.085C611.879 489.051 611.357 486.693 611.357 484.011C611.357 481.307 611.879 478.943 612.925 476.92C613.97 474.886 615.453 473.307 617.374 472.182C619.305 471.045 621.595 470.477 624.243 470.477C626.891 470.477 629.175 471.045 631.095 472.182C633.027 473.307 634.516 474.886 635.561 476.92C636.607 478.943 637.129 481.307 637.129 484.011C637.129 486.693 636.607 489.051 635.561 491.085C634.516 493.108 633.027 494.687 631.095 495.824C629.175 496.949 626.891 497.511 624.243 497.511ZM624.277 491.886C625.482 491.886 626.487 491.545 627.294 490.864C628.101 490.17 628.709 489.227 629.118 488.034C629.538 486.841 629.749 485.483 629.749 483.96C629.749 482.438 629.538 481.08 629.118 479.886C628.709 478.693 628.101 477.75 627.294 477.057C626.487 476.364 625.482 476.017 624.277 476.017C623.061 476.017 622.038 476.364 621.209 477.057C620.391 477.75 619.771 478.693 619.351 479.886C618.942 481.08 618.737 482.438 618.737 483.96C618.737 485.483 618.942 486.841 619.351 488.034C619.771 489.227 620.391 490.17 621.209 490.864C622.038 491.545 623.061 491.886 624.277 491.886ZM658.641 485.852V470.818H665.902V497H658.93V492.244H658.658C658.067 493.778 657.084 495.011 655.709 495.943C654.345 496.875 652.68 497.341 650.714 497.341C648.964 497.341 647.425 496.943 646.095 496.148C644.766 495.352 643.726 494.222 642.976 492.756C642.237 491.29 641.862 489.534 641.851 487.489V470.818H649.112V486.193C649.124 487.739 649.538 488.96 650.357 489.858C651.175 490.756 652.271 491.205 653.646 491.205C654.521 491.205 655.339 491.006 656.101 490.608C656.862 490.199 657.476 489.597 657.942 488.801C658.419 488.006 658.652 487.023 658.641 485.852ZM671.71 497V470.818H678.75V475.386H679.023C679.5 473.761 680.301 472.534 681.426 471.705C682.551 470.864 683.847 470.443 685.312 470.443C685.676 470.443 686.068 470.466 686.489 470.511C686.909 470.557 687.278 470.619 687.597 470.699V477.142C687.256 477.04 686.784 476.949 686.182 476.869C685.58 476.79 685.028 476.75 684.528 476.75C683.46 476.75 682.506 476.983 681.665 477.449C680.835 477.903 680.176 478.54 679.688 479.358C679.21 480.176 678.972 481.119 678.972 482.188V497H671.71ZM179.062 569L171.938 542.818H179.284L183.341 560.409H183.58L187.807 542.818H195.017L199.312 560.307H199.534L203.523 542.818H210.852L203.744 569H196.057L191.557 552.534H191.233L186.733 569H179.062ZM225.899 569.511C223.251 569.511 220.962 568.949 219.03 567.824C217.109 566.687 215.626 565.108 214.581 563.085C213.536 561.051 213.013 558.693 213.013 556.011C213.013 553.307 213.536 550.943 214.581 548.92C215.626 546.886 217.109 545.307 219.03 544.182C220.962 543.045 223.251 542.477 225.899 542.477C228.547 542.477 230.831 543.045 232.751 544.182C234.683 545.307 236.172 546.886 237.217 548.92C238.263 550.943 238.786 553.307 238.786 556.011C238.786 558.693 238.263 561.051 237.217 563.085C236.172 565.108 234.683 566.687 232.751 567.824C230.831 568.949 228.547 569.511 225.899 569.511ZM225.933 563.886C227.138 563.886 228.143 563.545 228.95 562.864C229.757 562.17 230.365 561.227 230.774 560.034C231.195 558.841 231.405 557.483 231.405 555.96C231.405 554.438 231.195 553.08 230.774 551.886C230.365 550.693 229.757 549.75 228.95 549.057C228.143 548.364 227.138 548.017 225.933 548.017C224.717 548.017 223.695 548.364 222.865 549.057C222.047 549.75 221.428 550.693 221.007 551.886C220.598 553.08 220.393 554.438 220.393 555.96C220.393 557.483 220.598 558.841 221.007 560.034C221.428 561.227 222.047 562.17 222.865 562.864C223.695 563.545 224.717 563.886 225.933 563.886ZM243.507 569V542.818H250.547V547.386H250.82C251.297 545.761 252.098 544.534 253.223 543.705C254.348 542.864 255.643 542.443 257.109 542.443C257.473 542.443 257.865 542.466 258.286 542.511C258.706 542.557 259.075 542.619 259.393 542.699V549.142C259.053 549.04 258.581 548.949 257.979 548.869C257.376 548.79 256.825 548.75 256.325 548.75C255.257 548.75 254.303 548.983 253.462 549.449C252.632 549.903 251.973 550.54 251.484 551.358C251.007 552.176 250.768 553.119 250.768 554.188V569H243.507ZM269.727 561.466L269.744 552.756H270.801L279.188 542.818H287.523L276.256 555.977H274.534L269.727 561.466ZM263.148 569V534.091H270.409V569H263.148ZM279.511 569L271.807 557.597L276.648 552.466L288.017 569H279.511ZM305.165 542.818V548.273H289.006V542.818H305.165ZM292.705 569V540.926C292.705 539.028 293.074 537.455 293.812 536.205C294.562 534.955 295.585 534.017 296.881 533.392C298.176 532.767 299.648 532.455 301.295 532.455C302.409 532.455 303.426 532.54 304.347 532.71C305.278 532.881 305.972 533.034 306.426 533.17L305.131 538.625C304.847 538.534 304.494 538.449 304.074 538.369C303.665 538.29 303.244 538.25 302.812 538.25C301.744 538.25 301 538.5 300.58 539C300.159 539.489 299.949 540.176 299.949 541.062V569H292.705ZM316.862 534.091V569H309.601V534.091H316.862ZM334.509 569.511C331.861 569.511 329.571 568.949 327.639 567.824C325.719 566.687 324.236 565.108 323.19 563.085C322.145 561.051 321.622 558.693 321.622 556.011C321.622 553.307 322.145 550.943 323.19 548.92C324.236 546.886 325.719 545.307 327.639 544.182C329.571 543.045 331.861 542.477 334.509 542.477C337.156 542.477 339.44 543.045 341.361 544.182C343.293 545.307 344.781 546.886 345.827 548.92C346.872 550.943 347.395 553.307 347.395 556.011C347.395 558.693 346.872 561.051 345.827 563.085C344.781 565.108 343.293 566.687 341.361 567.824C339.44 568.949 337.156 569.511 334.509 569.511ZM334.543 563.886C335.747 563.886 336.753 563.545 337.56 562.864C338.366 562.17 338.974 561.227 339.384 560.034C339.804 558.841 340.014 557.483 340.014 555.96C340.014 554.438 339.804 553.08 339.384 551.886C338.974 550.693 338.366 549.75 337.56 549.057C336.753 548.364 335.747 548.017 334.543 548.017C333.327 548.017 332.304 548.364 331.474 549.057C330.656 549.75 330.037 550.693 329.616 551.886C329.207 553.08 329.003 554.438 329.003 555.96C329.003 557.483 329.207 558.841 329.616 560.034C330.037 561.227 330.656 562.17 331.474 562.864C332.304 563.545 333.327 563.886 334.543 563.886ZM356.625 569L349.5 542.818H356.847L360.903 560.409H361.142L365.369 542.818H372.58L376.875 560.307H377.097L381.085 542.818H388.415L381.307 569H373.619L369.119 552.534H368.795L364.295 569H356.625Z" fill="#464356"/>
</g>
<defs>
<clipPath id="clip0_3_4107">
<rect width="880" height="900" fill="white"/>
</clipPath>
</defs>
</svg>
