<svg width="50" height="50" viewBox="0 0 50 50" fill="none" xmlns="http://www.w3.org/2000/svg">
<path d="M10.4336 36.5032C10.8278 37.1855 11.0109 37.9694 10.9596 38.7557C10.9082 39.5421 10.6249 40.2955 10.1453 40.9208C9.66578 41.5461 9.01159 42.0151 8.26547 42.2686C7.51936 42.522 6.71483 42.5485 5.95365 42.3447C5.19246 42.1409 4.5088 41.716 3.98914 41.1236C3.46947 40.5313 3.13714 39.7981 3.03417 39.0169C2.93119 38.2357 3.0622 37.4414 3.41063 36.7347C3.75906 36.0279 4.30926 35.4403 4.99164 35.0462C5.90644 34.5182 6.99348 34.3751 8.01378 34.6483C9.03408 34.9215 9.90414 35.5887 10.4327 36.5032" fill="#FF4C4C"/>
<path d="M29.9123 42.558C27.4133 42.5601 24.9419 42.0354 22.6593 41.018C20.3768 40.0007 18.3343 38.5136 16.6652 36.6537C14.9961 34.7938 13.7379 32.603 12.9725 30.2241C12.2072 27.8451 11.9519 25.3316 12.2234 22.8474C12.4949 20.3632 13.2871 17.9641 14.5482 15.8067C15.8094 13.6492 17.5112 11.7819 19.5426 10.3265C21.574 8.87102 23.8895 7.8602 26.3379 7.35991C28.7863 6.85963 31.3127 6.88112 33.7523 7.42299C34.6163 7.60667 35.3728 8.12404 35.8573 8.86258C36.3418 9.60113 36.5152 10.5011 36.3396 11.3668C36.164 12.2324 35.6538 12.9938 34.9198 13.4852C34.1859 13.9767 33.2876 14.1584 32.4203 13.991C32.3777 13.9827 32.3354 13.9734 32.2933 13.963C30.1943 13.4951 28.0044 13.6483 25.9911 14.4041C23.9777 15.1598 22.2279 16.4853 20.9552 18.2189C19.6825 19.9524 18.942 22.0189 18.824 24.1662C18.7061 26.3135 19.2158 28.4487 20.291 30.3112C21.3662 32.1736 22.9603 33.6828 24.8788 34.6545C26.7972 35.6262 28.9571 36.0184 31.0948 35.7832C33.2324 35.548 35.2553 34.6956 36.9166 33.33C38.5779 31.9644 39.8058 30.1447 40.4503 28.093C40.582 27.6728 40.7952 27.2826 41.0777 26.9448C41.3602 26.6069 41.7065 26.328 42.0968 26.124C42.487 25.92 42.9137 25.7949 43.3523 25.7557C43.791 25.7166 44.233 25.7643 44.6533 25.896C45.0735 26.0277 45.4637 26.2409 45.8015 26.5234C46.1394 26.8059 46.4182 27.1522 46.6222 27.5425C46.8263 27.9328 46.9514 28.3594 46.9905 28.7981C47.0297 29.2367 46.982 29.6788 46.8503 30.099C45.7165 33.7042 43.4647 36.8549 40.421 39.095C37.3772 41.3351 33.6995 42.5483 29.9203 42.559" fill="#FF4C4C"/>
<path d="M46.0437 15.943C46.4327 16.6162 46.616 17.3885 46.5711 18.1647C46.5263 18.9408 46.2551 19.6869 45.7911 20.3107C45.3271 20.9345 44.6906 21.4089 43.9602 21.6751C43.2297 21.9414 42.4373 21.9879 41.6807 21.809C41.4922 21.7381 41.2999 21.678 41.1047 21.629L41.1917 21.663C41.1654 21.6539 41.1387 21.6462 41.1117 21.64C39.5382 21.2205 37.8627 21.4417 36.4521 22.2552C35.0414 23.0687 34.0107 24.4081 33.5857 25.98C33.5773 26.007 33.5703 26.0343 33.5647 26.062C33.5627 26.03 33.5675 25.998 33.5787 25.968C33.5242 26.1617 33.4808 26.3584 33.4487 26.557C33.2257 27.3053 32.7878 27.9717 32.1893 28.4732C31.5908 28.9747 30.8582 29.2893 30.0823 29.3779C29.3065 29.4664 28.5218 29.3251 27.8257 28.9713C27.1296 28.6176 26.5528 28.0671 26.1669 27.3883C25.781 26.7094 25.6032 25.9322 25.6554 25.1531C25.7076 24.374 25.9877 23.6274 26.4607 23.0061C26.9337 22.3849 27.5788 21.9163 28.3159 21.6587C29.0531 21.401 29.8496 21.3657 30.6067 21.557C30.7577 21.612 30.9067 21.657 31.0637 21.703C32.6369 22.1371 34.3182 21.9285 35.7376 21.123C37.1571 20.3175 38.1984 18.9812 38.6327 17.408L38.6567 17.319C38.6977 17.164 38.7317 17.006 38.7617 16.846C38.9735 16.092 39.4031 15.4172 39.9966 14.9062C40.5901 14.3951 41.3212 14.0705 42.0983 13.9729C42.8754 13.8753 43.6641 14.0092 44.3655 14.3576C45.0669 14.7061 45.65 15.2538 46.0417 15.932" fill="#FF4C4C"/>
</svg>
