<svg width="24" height="24" viewBox="0 0 24 24" fill="none" xmlns="http://www.w3.org/2000/svg">
<path d="M21.92 11.6202C21.8724 11.4974 21.801 11.3853 21.71 11.2902L19.21 8.79018C19.0217 8.60188 18.7663 8.49609 18.5 8.49609C18.2337 8.49609 17.9783 8.60188 17.79 8.79018C17.6017 8.97849 17.4959 9.23388 17.4959 9.50019C17.4959 9.76649 17.6017 10.0219 17.79 10.2102L18.59 11.0002H14C13.7348 11.0002 13.4804 11.1055 13.2929 11.2931C13.1054 11.4806 13 11.735 13 12.0002C13 12.2654 13.1054 12.5198 13.2929 12.7073C13.4804 12.8948 13.7348 13.0002 14 13.0002H18.59L17.79 13.7902C17.6963 13.8831 17.6219 13.9937 17.5711 14.1156C17.5203 14.2375 17.4942 14.3682 17.4942 14.5002C17.4942 14.6322 17.5203 14.7629 17.5711 14.8848C17.6219 15.0066 17.6963 15.1172 17.79 15.2102C17.883 15.3039 17.9936 15.3783 18.1154 15.4291C18.2373 15.4798 18.368 15.506 18.5 15.506C18.632 15.506 18.7627 15.4798 18.8846 15.4291C19.0064 15.3783 19.117 15.3039 19.21 15.2102L21.71 12.7102C21.801 12.6151 21.8724 12.5029 21.92 12.3802C22.02 12.1367 22.02 11.8636 21.92 11.6202Z" fill="#EAEAEC"/>
<path d="M7.59499 13.0018L3.00499 13.0018C2.73977 13.0018 2.48542 12.8964 2.29788 12.7089C2.11034 12.5213 2.00499 12.267 2.00499 12.0018C2.00499 11.7366 2.11034 11.4822 2.29788 11.2947C2.48542 11.1071 2.73977 11.0018 3.00499 11.0018L7.59499 11.0018L6.79499 10.2118C6.70126 10.1188 6.62686 10.0082 6.5761 9.88634C6.52533 9.76449 6.49919 9.63378 6.49919 9.50177C6.49919 9.36976 6.52533 9.23905 6.5761 9.11719C6.62686 8.99533 6.70126 8.88473 6.79499 8.79177C6.88795 8.69804 6.99855 8.62365 7.12041 8.57288C7.24227 8.52211 7.37298 8.49597 7.50499 8.49597C7.637 8.49597 7.7677 8.52211 7.88956 8.57288C8.01142 8.62365 8.12202 8.69804 8.21499 8.79177L10.715 11.2918C10.806 11.3869 10.8774 11.499 10.925 11.6218C11.025 11.8652 11.025 12.1383 10.925 12.3818C10.8774 12.5045 10.806 12.6167 10.715 12.7118L8.21499 15.2118C8.02668 15.4001 7.77129 15.5059 7.50499 15.5059C7.23868 15.5059 6.98329 15.4001 6.79499 15.2118C6.60668 15.0235 6.50089 14.7681 6.50089 14.5018C6.50089 14.2355 6.60668 13.9801 6.79499 13.7918L7.59499 13.0018Z" fill="#EAEAEC"/>
</svg>
