<svg width="123" height="123" viewBox="0 0 123 123" fill="none" xmlns="http://www.w3.org/2000/svg">
<path d="M61.4512 109.948C48.4972 109.948 36.3184 104.903 27.1586 95.7434C17.9986 86.5835 12.9541 74.4046 12.9541 61.4508C12.9541 48.4967 17.9986 36.3179 27.1586 27.1581C36.3184 17.9981 48.4972 12.9536 61.4512 12.9536C69.3001 12.9536 77.0976 14.8729 84.0004 18.5043C85.6452 19.3697 86.277 21.4044 85.4118 23.0491C84.5466 24.6937 82.5121 25.3257 80.8669 24.4607C74.9265 21.3357 68.2127 19.6838 61.4512 19.6838C38.4208 19.6838 19.6843 38.4204 19.6843 61.4508C19.6843 84.4811 38.4208 103.218 61.4512 103.218C84.4816 103.218 103.218 84.4811 103.218 61.4508C103.218 59.6728 103.106 57.8839 102.883 56.1343C102.649 54.2906 103.954 52.6061 105.798 52.3719C107.641 52.1373 109.326 53.4426 109.56 55.2863C109.818 57.3162 109.948 59.3903 109.948 61.4508C109.948 74.4046 104.904 86.5835 95.7439 95.7434C86.584 104.903 74.4051 109.948 61.4512 109.948Z" fill="#E6E6E6"/>
<path d="M61.4512 109.948C48.4972 109.948 36.3184 104.903 27.1586 95.7434C17.9986 86.5835 12.9541 74.4046 12.9541 61.4508C12.9541 48.4967 17.9986 36.3179 27.1586 27.1581C36.3184 17.9981 48.4972 12.9536 61.4512 12.9536C69.3001 12.9536 77.0976 14.8729 84.0004 18.5043C85.6452 19.3697 86.277 21.4044 85.4118 23.0491C84.5466 24.6937 82.5121 25.3257 80.8669 24.4607C74.9265 21.3357 68.2127 19.6838 61.4512 19.6838C38.4208 19.6838 19.6843 38.4204 19.6843 61.4508C19.6843 84.4811 38.4208 103.218 61.4512 103.218C84.4816 103.218 103.218 84.4811 103.218 61.4508C103.218 59.6728 103.106 57.8839 102.883 56.1343C102.649 54.2906 103.954 52.6061 105.798 52.3719C107.641 52.1373 109.326 53.4426 109.56 55.2863C109.818 57.3162 109.948 59.3903 109.948 61.4508C109.948 74.4046 104.904 86.5835 95.7439 95.7434C86.584 104.903 74.4051 109.948 61.4512 109.948Z" fill="#E6E6E6"/>
<path d="M105.875 27.3632C104.576 26.0338 102.446 26.0089 101.116 27.3074L60.7388 66.7502L48.8382 54.8498C47.5241 53.5357 45.3936 53.5357 44.0794 54.8498C42.7652 56.164 42.7652 58.2947 44.0794 59.6089L58.3316 73.8611C59.6349 75.1644 61.744 75.1767 63.0623 73.8888L105.819 32.1219C107.148 30.8232 107.174 28.6926 105.875 27.3632Z" fill="#E6E6E6"/>
<path d="M106.201 55.5266C107.387 64.4809 105.908 73.8745 101.38 82.4652C89.7574 104.513 62.4202 112.977 40.3727 101.355C18.3253 89.7323 9.86091 62.3951 21.4832 40.3477C33.1056 18.3002 60.4428 9.83584 82.4902 21.4582" stroke="#2CCFBC" stroke-width="6.68243" stroke-linecap="round"/>
<path d="M46.501 57.2842L60.7356 71.4676C60.7356 71.4676 67.1154 65.2476 74.9495 57.6096" stroke="#2CCFBC" stroke-width="6.75" stroke-linecap="round" stroke-linejoin="round"/>
</svg>
