<svg width="16" height="12" viewBox="0 0 16 12" fill="none" xmlns="http://www.w3.org/2000/svg">
<path d="M8.20033 6.14658C8.55604 5.83867 8.84136 5.45784 9.03691 5.02993C9.23246 4.60203 9.33366 4.13706 9.33366 3.66658C9.33366 2.78253 8.98247 1.93468 8.35735 1.30956C7.73223 0.684442 6.88438 0.333252 6.00033 0.333252C5.11627 0.333252 4.26842 0.684442 3.6433 1.30956C3.01818 1.93468 2.66699 2.78253 2.66699 3.66658C2.66699 4.13706 2.76819 4.60203 2.96374 5.02993C3.15929 5.45784 3.44461 5.83867 3.80033 6.14658C2.86709 6.56917 2.0753 7.2516 1.51965 8.11228C0.963989 8.97296 0.667973 9.97546 0.666992 10.9999C0.666992 11.1767 0.73723 11.3463 0.862254 11.4713C0.987279 11.5963 1.15685 11.6666 1.33366 11.6666C1.51047 11.6666 1.68004 11.5963 1.80506 11.4713C1.93009 11.3463 2.00033 11.1767 2.00033 10.9999C2.00033 9.93905 2.42175 8.92164 3.1719 8.17149C3.92204 7.42135 4.93946 6.99992 6.00033 6.99992C7.06119 6.99992 8.07861 7.42135 8.82875 8.17149C9.5789 8.92164 10.0003 9.93905 10.0003 10.9999C10.0003 11.1767 10.0706 11.3463 10.1956 11.4713C10.3206 11.5963 10.4902 11.6666 10.667 11.6666C10.8438 11.6666 11.0134 11.5963 11.1384 11.4713C11.2634 11.3463 11.3337 11.1767 11.3337 10.9999C11.3327 9.97546 11.0367 8.97296 10.481 8.11228C9.92535 7.2516 9.13357 6.56917 8.20033 6.14658ZM6.00033 5.66658C5.60476 5.66658 5.21808 5.54929 4.88918 5.32952C4.56029 5.10976 4.30394 4.7974 4.15257 4.43195C4.00119 4.0665 3.96158 3.66437 4.03876 3.2764C4.11593 2.88844 4.30641 2.53208 4.58611 2.25237C4.86582 1.97267 5.22218 1.78219 5.61015 1.70501C5.99811 1.62784 6.40024 1.66745 6.76569 1.81883C7.13115 1.9702 7.4435 2.22655 7.66326 2.55544C7.88303 2.88434 8.00033 3.27102 8.00033 3.66658C8.00033 4.19702 7.78961 4.70573 7.41454 5.0808C7.03947 5.45587 6.53076 5.66658 6.00033 5.66658ZM12.4937 5.87992C12.9203 5.39947 13.199 4.80595 13.2962 4.17081C13.3934 3.53567 13.3049 2.88597 13.0415 2.29992C12.7781 1.71387 12.3509 1.21645 11.8113 0.867534C11.2718 0.518619 10.6429 0.33308 10.0003 0.333252C9.82351 0.333252 9.65395 0.40349 9.52892 0.528514C9.4039 0.653538 9.33366 0.823108 9.33366 0.999919C9.33366 1.17673 9.4039 1.3463 9.52892 1.47132C9.65395 1.59635 9.82351 1.66659 10.0003 1.66659C10.5308 1.66659 11.0395 1.8773 11.4145 2.25237C11.7896 2.62744 12.0003 3.13615 12.0003 3.66658C11.9994 4.01674 11.9065 4.36052 11.731 4.66353C11.5555 4.96654 11.3036 5.21817 11.0003 5.39325C10.9015 5.45027 10.8189 5.53169 10.7606 5.62975C10.7022 5.7278 10.67 5.83919 10.667 5.95325C10.6642 6.06643 10.6903 6.17845 10.7428 6.27876C10.7953 6.37906 10.8724 6.46435 10.967 6.52659L11.227 6.69992L11.3137 6.74658C12.1173 7.12773 12.7952 7.73058 13.2676 8.48413C13.7401 9.23768 13.9874 10.1105 13.9803 10.9999C13.9803 11.1767 14.0506 11.3463 14.1756 11.4713C14.3006 11.5963 14.4702 11.6666 14.647 11.6666C14.8238 11.6666 14.9934 11.5963 15.1184 11.4713C15.2434 11.3463 15.3137 11.1767 15.3137 10.9999C15.3191 9.97687 15.0629 8.96942 14.5693 8.07329C14.0757 7.17717 13.3612 6.42213 12.4937 5.87992Z" fill="#F93E6C"/>
</svg>
