<svg width="16" height="4" viewBox="0 0 16 4" fill="none" xmlns="http://www.w3.org/2000/svg">
<path d="M8 0.333496C7.67037 0.333496 7.34813 0.431245 7.07405 0.61438C6.79997 0.797516 6.58635 1.05781 6.4602 1.36236C6.33406 1.6669 6.30105 2.00201 6.36536 2.32531C6.42967 2.64862 6.5884 2.94559 6.82149 3.17867C7.05458 3.41176 7.35155 3.5705 7.67485 3.63481C7.99815 3.69911 8.33326 3.66611 8.63781 3.53996C8.94235 3.41382 9.20265 3.2002 9.38578 2.92611C9.56892 2.65203 9.66667 2.3298 9.66667 2.00016C9.66667 1.55814 9.49107 1.13421 9.17851 0.821652C8.86595 0.509091 8.44203 0.333496 8 0.333496ZM2.16667 0.333496C1.83703 0.333496 1.5148 0.431245 1.24072 0.61438C0.966635 0.797516 0.753014 1.05781 0.626868 1.36236C0.500722 1.6669 0.467717 2.00201 0.532025 2.32531C0.596334 2.64862 0.755068 2.94559 0.988156 3.17867C1.22124 3.41176 1.51822 3.5705 1.84152 3.63481C2.16482 3.69911 2.49993 3.66611 2.80447 3.53996C3.10902 3.41382 3.36931 3.2002 3.55245 2.92611C3.73559 2.65203 3.83333 2.3298 3.83333 2.00016C3.83333 1.55814 3.65774 1.13421 3.34518 0.821652C3.03262 0.509091 2.6087 0.333496 2.16667 0.333496ZM13.8333 0.333496C13.5037 0.333496 13.1815 0.431245 12.9074 0.61438C12.6333 0.797516 12.4197 1.05781 12.2935 1.36236C12.1674 1.6669 12.1344 2.00201 12.1987 2.32531C12.263 2.64862 12.4217 2.94559 12.6548 3.17867C12.8879 3.41176 13.1849 3.5705 13.5082 3.63481C13.8315 3.69911 14.1666 3.66611 14.4711 3.53996C14.7757 3.41382 15.036 3.2002 15.2191 2.92611C15.4023 2.65203 15.5 2.3298 15.5 2.00016C15.5 1.55814 15.3244 1.13421 15.0118 0.821652C14.6993 0.509091 14.2754 0.333496 13.8333 0.333496Z" fill="#9897A1"/>
</svg>
