<svg width="22" height="22" viewBox="0 0 22 22" fill="none" xmlns="http://www.w3.org/2000/svg">
<path d="M21 14H19V11C19 10.7348 18.8946 10.4804 18.7071 10.2929C18.5196 10.1054 18.2652 10 18 10H12V8H14C14.2652 8 14.5196 7.89464 14.7071 7.70711C14.8946 7.51957 15 7.26522 15 7V1C15 0.734784 14.8946 0.48043 14.7071 0.292893C14.5196 0.105357 14.2652 0 14 0H8C7.73478 0 7.48043 0.105357 7.29289 0.292893C7.10536 0.48043 7 0.734784 7 1V7C7 7.26522 7.10536 7.51957 7.29289 7.70711C7.48043 7.89464 7.73478 8 8 8H10V10H4C3.73478 10 3.48043 10.1054 3.29289 10.2929C3.10536 10.4804 3 10.7348 3 11V14H1C0.734784 14 0.48043 14.1054 0.292893 14.2929C0.105357 14.4804 0 14.7348 0 15V21C0 21.2652 0.105357 21.5196 0.292893 21.7071C0.48043 21.8946 0.734784 22 1 22H7C7.26522 22 7.51957 21.8946 7.70711 21.7071C7.89464 21.5196 8 21.2652 8 21V15C8 14.7348 7.89464 14.4804 7.70711 14.2929C7.51957 14.1054 7.26522 14 7 14H5V12H17V14H15C14.7348 14 14.4804 14.1054 14.2929 14.2929C14.1054 14.4804 14 14.7348 14 15V21C14 21.2652 14.1054 21.5196 14.2929 21.7071C14.4804 21.8946 14.7348 22 15 22H21C21.2652 22 21.5196 21.8946 21.7071 21.7071C21.8946 21.5196 22 21.2652 22 21V15C22 14.7348 21.8946 14.4804 21.7071 14.2929C21.5196 14.1054 21.2652 14 21 14ZM6 16V20H2V16H6ZM9 6V2H13V6H9ZM20 20H16V16H20V20Z" fill="#EAEAEC"/>
</svg>
