<svg width="22" height="23" viewBox="0 0 22 23" fill="none" xmlns="http://www.w3.org/2000/svg">
<path d="M6.4199 14.5409C6.23365 14.7282 6.12911 14.9817 6.12911 15.2459C6.12911 15.5101 6.23365 15.7635 6.4199 15.9509C6.51286 16.0446 6.62346 16.119 6.74532 16.1698C6.86718 16.2205 6.99789 16.2467 7.1299 16.2467C7.26191 16.2467 7.39262 16.2205 7.51448 16.1698C7.63633 16.119 7.74694 16.0446 7.8399 15.9509C8.02615 15.7635 8.13069 15.5101 8.13069 15.2459C8.13069 14.9817 8.02615 14.7282 7.8399 14.5409C7.74694 14.4471 7.63633 14.3727 7.51448 14.322C7.39262 14.2712 7.26191 14.2451 7.1299 14.2451C6.99789 14.2451 6.86718 14.2712 6.74532 14.322C6.62346 14.3727 6.51286 14.4471 6.4199 14.5409ZM6.4199 6.05087C6.23365 6.23823 6.12911 6.49169 6.12911 6.75587C6.12911 7.02006 6.23365 7.27351 6.4199 7.46087C6.51286 7.5546 6.62346 7.62899 6.74532 7.67976C6.86718 7.73053 6.99789 7.75667 7.1299 7.75667C7.26191 7.75667 7.39262 7.73053 7.51448 7.67976C7.63633 7.62899 7.74694 7.5546 7.8399 7.46087C8.02615 7.27351 8.13069 7.02006 8.13069 6.75587C8.13069 6.49169 8.02615 6.23823 7.8399 6.05087C7.74694 5.95714 7.63633 5.88275 7.51448 5.83198C7.39262 5.78121 7.26191 5.75507 7.1299 5.75507C6.99789 5.75507 6.86718 5.78121 6.74532 5.83198C6.62346 5.88275 6.51286 5.95714 6.4199 6.05087ZM11.3699 16.0509C11.1721 16.0509 10.9788 16.1095 10.8143 16.2194C10.6499 16.3293 10.5217 16.4855 10.446 16.6682C10.3703 16.8509 10.3505 17.052 10.3891 17.246C10.4277 17.4399 10.5229 17.6181 10.6628 17.758C10.8026 17.8978 10.9808 17.9931 11.1748 18.0317C11.3688 18.0702 11.5699 18.0504 11.7526 17.9748C11.9353 17.8991 12.0915 17.7709 12.2014 17.6064C12.3112 17.442 12.3699 17.2487 12.3699 17.0509C12.3767 16.9154 12.3558 16.78 12.3086 16.6528C12.2614 16.5257 12.1888 16.4094 12.0953 16.3112C12.0017 16.213 11.8892 16.1348 11.7645 16.0815C11.6398 16.0281 11.5055 16.0007 11.3699 16.0009V16.0509ZM5.3699 10.0509C5.17212 10.0509 4.97878 10.1095 4.81433 10.2194C4.64988 10.3293 4.52171 10.4855 4.44602 10.6682C4.37033 10.8509 4.35053 11.052 4.38911 11.246C4.4277 11.4399 4.52294 11.6181 4.66279 11.758C4.80264 11.8978 4.98083 11.9931 5.17481 12.0317C5.36879 12.0702 5.56986 12.0504 5.75258 11.9748C5.93531 11.8991 6.09149 11.7709 6.20137 11.6064C6.31125 11.442 6.3699 11.2487 6.3699 11.0509C6.37668 10.9154 6.35583 10.78 6.30862 10.6528C6.26141 10.5257 6.18883 10.4094 6.09529 10.3112C6.00174 10.213 5.8892 10.1348 5.76449 10.0815C5.63979 10.0281 5.50554 10.0007 5.3699 10.0009V10.0509ZM11.3699 4.05087C11.1721 4.05087 10.9788 4.10952 10.8143 4.2194C10.6499 4.32928 10.5217 4.48546 10.446 4.66819C10.3703 4.85091 10.3505 5.05198 10.3891 5.24596C10.4277 5.43994 10.5229 5.61813 10.6628 5.75798C10.8026 5.89783 10.9808 5.99307 11.1748 6.03166C11.3688 6.07024 11.5699 6.05044 11.7526 5.97475C11.9353 5.89906 12.0915 5.77089 12.2014 5.60644C12.3112 5.44199 12.3699 5.24865 12.3699 5.05087C12.3767 4.9154 12.3558 4.77997 12.3086 4.65282C12.2614 4.52566 12.1888 4.40944 12.0953 4.31122C12.0017 4.213 11.8892 4.13483 11.7645 4.08148C11.6398 4.02813 11.5055 4.0007 11.3699 4.00087V4.05087ZM14.9099 6.10087C14.7695 6.24049 14.6736 6.41866 14.6346 6.6128C14.5955 6.80694 14.6149 7.00832 14.6905 7.19139C14.766 7.37446 14.8941 7.53099 15.0587 7.64113C15.2233 7.75128 15.4169 7.81008 15.6149 7.81008C15.8129 7.81008 16.0065 7.75128 16.1711 7.64113C16.3357 7.53099 16.4638 7.37446 16.5393 7.19139C16.6149 7.00832 16.6343 6.80694 16.5952 6.6128C16.5562 6.41866 16.4603 6.24049 16.3199 6.10087C16.1392 5.90783 15.8895 5.79419 15.6252 5.78482C15.361 5.77545 15.1038 5.87111 14.9099 6.05087V6.10087ZM21.2099 6.10087C20.2956 4.27317 18.8903 2.73629 17.1515 1.66257C15.4127 0.588854 13.4091 0.0207534 11.3655 0.0219746C9.32189 0.0231958 7.31902 0.59369 5.58148 1.66949C3.84395 2.74528 2.44045 4.28384 1.52838 6.11263C0.616305 7.94143 0.231718 9.98814 0.417743 12.0233C0.603768 14.0584 1.35305 16.0015 2.58157 17.6346C3.81008 19.2677 5.46926 20.5263 7.37304 21.2693C9.27682 22.0123 11.3499 22.2102 13.3599 21.8409C13.8653 21.7458 14.3468 21.5509 14.776 21.2676C15.2053 20.9842 15.5737 20.6182 15.8599 20.1909C16.1682 19.7263 16.381 19.2049 16.4857 18.6572C16.5905 18.1095 16.5851 17.5465 16.4699 17.0009C16.4069 16.6712 16.3735 16.3365 16.3699 16.0009C16.3743 15.0318 16.6602 14.0849 17.1928 13.2754C17.7254 12.4658 18.4817 11.8285 19.3699 11.4409C19.8488 11.2265 20.2786 10.9162 20.6329 10.5292C20.9872 10.1422 21.2585 9.68675 21.4299 9.19087C21.6033 8.68416 21.6732 8.14778 21.6354 7.61355C21.5976 7.07933 21.4529 6.55813 21.2099 6.08087V6.10087ZM19.5099 8.54087C19.4246 8.78019 19.2921 8.99996 19.1203 9.18718C18.9486 9.37441 18.741 9.52528 18.5099 9.63087C17.2799 10.1815 16.2349 11.0754 15.5006 12.2054C14.7662 13.3353 14.3736 14.6532 14.3699 16.0009C14.3714 16.471 14.4183 16.9398 14.5099 17.4009C14.571 17.6827 14.575 17.9738 14.5218 18.2572C14.4685 18.5406 14.3591 18.8105 14.1999 19.0509C14.0652 19.2613 13.888 19.4411 13.6796 19.5789C13.4712 19.7167 13.2362 19.8093 12.9899 19.8509C12.4558 19.9512 11.9134 20.0015 11.3699 20.0009C10.1641 20.0015 8.97041 19.7597 7.85982 19.29C6.74923 18.8203 5.74435 18.1322 4.90486 17.2666C4.06537 16.401 3.40838 15.3755 2.97291 14.2511C2.53745 13.1266 2.33238 11.9261 2.3699 10.7209C2.44751 8.47366 3.3589 6.33582 4.92653 4.72383C6.49415 3.11184 8.60573 2.14115 10.8499 2.00087H11.3599C13.0357 2.00129 14.678 2.46956 16.102 3.35294C17.526 4.23632 18.6751 5.49972 19.4199 7.00087C19.6491 7.47585 19.6815 8.02216 19.5099 8.52087V8.54087ZM11.3699 10.0009C11.1721 10.0009 10.9788 10.0595 10.8143 10.1694C10.6499 10.2793 10.5217 10.4355 10.446 10.6182C10.3703 10.8009 10.3505 11.002 10.3891 11.196C10.4277 11.3899 10.5229 11.5681 10.6628 11.708C10.8026 11.8478 10.9808 11.9431 11.1748 11.9817C11.3688 12.0202 11.5699 12.0004 11.7526 11.9248C11.9353 11.8491 12.0915 11.7209 12.2014 11.5564C12.3112 11.392 12.3699 11.1987 12.3699 11.0009C12.3699 10.7357 12.2645 10.4813 12.077 10.2938C11.8895 10.1062 11.6351 10.0009 11.3699 10.0009Z" fill="#9897A1"/>
</svg>
