<svg width="20" height="20" viewBox="0 0 20 20" fill="none" xmlns="http://www.w3.org/2000/svg">
<path d="M6.18 2H8.28C8.54522 2 8.79957 1.89464 8.98711 1.70711C9.17464 1.51957 9.28 1.26522 9.28 1C9.28 0.734784 9.17464 0.48043 8.98711 0.292893C8.79957 0.105357 8.54522 0 8.28 0H6.18C5.91478 0 5.66043 0.105357 5.47289 0.292893C5.28536 0.48043 5.18 0.734784 5.18 1C5.18 1.26522 5.28536 1.51957 5.47289 1.70711C5.66043 1.89464 5.91478 2 6.18 2ZM1 9.28C1.26522 9.28 1.51957 9.17464 1.70711 8.98711C1.89464 8.79957 2 8.54522 2 8.28V6.18C2 5.91478 1.89464 5.66043 1.70711 5.47289C1.51957 5.28536 1.26522 5.18 1 5.18C0.734784 5.18 0.48043 5.28536 0.292893 5.47289C0.105357 5.66043 0 5.91478 0 6.18V8.28C0 8.54522 0.105357 8.79957 0.292893 8.98711C0.48043 9.17464 0.734784 9.28 1 9.28ZM12.46 2C12.46 2.26522 12.5654 2.51957 12.7529 2.70711C12.9404 2.89464 13.1948 3 13.46 3C13.7252 3 13.9796 2.89464 14.1671 2.70711C14.3546 2.51957 14.46 2.26522 14.46 2V1C14.46 0.734784 14.3546 0.48043 14.1671 0.292893C13.9796 0.105357 13.7252 0 13.46 0H12.46C12.1948 0 11.9404 0.105357 11.7529 0.292893C11.5654 0.48043 11.46 0.734784 11.46 1C11.46 1.26522 11.5654 1.51957 11.7529 1.70711C11.9404 1.89464 12.1948 2 12.46 2V2ZM19 5.54H14.46C14.46 5.27478 14.3546 5.02043 14.1671 4.83289C13.9796 4.64536 13.7252 4.54 13.46 4.54C13.1948 4.54 12.9404 4.64536 12.7529 4.83289C12.5654 5.02043 12.46 5.27478 12.46 5.54H6.54C6.27478 5.54 6.02043 5.64536 5.83289 5.83289C5.64536 6.02043 5.54 6.27478 5.54 6.54V12.46C5.27478 12.46 5.02043 12.5654 4.83289 12.7529C4.64536 12.9404 4.54 13.1948 4.54 13.46C4.54 13.7252 4.64536 13.9796 4.83289 14.1671C5.02043 14.3546 5.27478 14.46 5.54 14.46V19C5.54 19.2652 5.64536 19.5196 5.83289 19.7071C6.02043 19.8946 6.27478 20 6.54 20H19C19.2652 20 19.5196 19.8946 19.7071 19.7071C19.8946 19.5196 20 19.2652 20 19V6.54C20 6.27478 19.8946 6.02043 19.7071 5.83289C19.5196 5.64536 19.2652 5.54 19 5.54V5.54ZM18 18H7.54V13.47V7.54H18V18ZM2 0H1C0.734784 0 0.48043 0.105357 0.292893 0.292893C0.105357 0.48043 0 0.734784 0 1V2C0 2.26522 0.105357 2.51957 0.292893 2.70711C0.48043 2.89464 0.734784 3 1 3C1.26522 3 1.51957 2.89464 1.70711 2.70711C1.89464 2.51957 2 2.26522 2 2C2.26522 2 2.51957 1.89464 2.70711 1.70711C2.89464 1.51957 3 1.26522 3 1C3 0.734784 2.89464 0.48043 2.70711 0.292893C2.51957 0.105357 2.26522 0 2 0V0ZM2 12.46C2 12.1948 1.89464 11.9404 1.70711 11.7529C1.51957 11.5654 1.26522 11.46 1 11.46C0.734784 11.46 0.48043 11.5654 0.292893 11.7529C0.105357 11.9404 0 12.1948 0 12.46V13.46C0 13.7252 0.105357 13.9796 0.292893 14.1671C0.48043 14.3546 0.734784 14.46 1 14.46H2C2.26522 14.46 2.51957 14.3546 2.70711 14.1671C2.89464 13.9796 3 13.7252 3 13.46C3 13.1948 2.89464 12.9404 2.70711 12.7529C2.51957 12.5654 2.26522 12.46 2 12.46Z" fill="#9897A1"/>
</svg>
