<svg width="24" height="24" viewBox="0 0 24 24" fill="none" xmlns="http://www.w3.org/2000/svg">
<rect width="24" height="24" rx="12" fill="#04385A"/>
<path d="M7.6392 15V9.18182H9.71307C10.1657 9.18182 10.5407 9.2642 10.8381 9.42898C11.1354 9.59375 11.358 9.81913 11.5057 10.1051C11.6534 10.3892 11.7273 10.7093 11.7273 11.0653C11.7273 11.4233 11.6525 11.7453 11.5028 12.0312C11.3551 12.3153 11.1316 12.5407 10.8324 12.7074C10.535 12.8722 10.161 12.9545 9.71023 12.9545H8.28409V12.2102H9.63068C9.91667 12.2102 10.1487 12.161 10.3267 12.0625C10.5047 11.9621 10.6354 11.8258 10.7188 11.6534C10.8021 11.4811 10.8438 11.285 10.8438 11.0653C10.8438 10.8456 10.8021 10.6506 10.7188 10.4801C10.6354 10.3097 10.5038 10.1761 10.3239 10.0795C10.1458 9.98295 9.91098 9.93466 9.61932 9.93466H8.51705V15H7.6392ZM12.7564 15V9.18182H13.6342V14.2443H16.2706V15H12.7564Z" fill="white"/>
</svg>
