<svg width="28" height="28" viewBox="0 0 28 28" fill="none" xmlns="http://www.w3.org/2000/svg">
<path d="M13.9997 22.0002C14.3533 22.0002 14.6924 21.8597 14.9425 21.6096C15.1925 21.3596 15.333 21.0205 15.333 20.6668L15.333 7.3335C15.333 6.97987 15.1925 6.64073 14.9425 6.39068C14.6924 6.14064 14.3533 6.00016 13.9997 6.00016C13.6461 6.00016 13.3069 6.14064 13.0569 6.39068C12.8068 6.64073 12.6663 6.97987 12.6663 7.33349L12.6663 20.6668C12.6663 21.0204 12.8068 21.3596 13.0569 21.6096C13.3069 21.8597 13.6461 22.0002 13.9997 22.0002ZM20.6663 14.0002C21.02 14.0002 21.3591 13.8597 21.6092 13.6096C21.8592 13.3596 21.9997 13.0205 21.9997 12.6668L21.9997 7.3335C21.9997 6.97987 21.8592 6.64073 21.6092 6.39069C21.3591 6.14064 21.02 6.00016 20.6663 6.00016C20.3127 6.00016 19.9736 6.14064 19.7235 6.39069C19.4735 6.64073 19.333 6.97987 19.333 7.3335L19.333 12.6668C19.333 13.0204 19.4735 13.3596 19.7235 13.6096C19.9736 13.8597 20.3127 14.0002 20.6663 14.0002ZM7.33301 16.6668C7.68663 16.6668 8.02577 16.5264 8.27582 16.2763C8.52587 16.0263 8.66634 15.6871 8.66634 15.3335L8.66634 7.33349C8.66634 6.97987 8.52587 6.64073 8.27582 6.39068C8.02577 6.14063 7.68663 6.00016 7.33301 6.00016C6.97939 6.00016 6.64025 6.14063 6.3902 6.39068C6.14015 6.64073 5.99968 6.97987 5.99968 7.33349L5.99967 15.3335C5.99967 15.6871 6.14015 16.0263 6.3902 16.2763C6.64025 16.5264 6.97939 16.6668 7.33301 16.6668ZM4.66634 27.3335L23.333 27.3335C24.3939 27.3335 25.4113 26.9121 26.1614 26.1619C26.9116 25.4118 27.333 24.3944 27.333 23.3335L27.333 4.66683C27.333 3.60596 26.9116 2.58855 26.1614 1.8384C25.4113 1.08825 24.3939 0.666828 23.333 0.666828L4.66634 0.666826C3.60548 0.666826 2.58806 1.08825 1.83792 1.8384C1.08777 2.58854 0.666342 3.60596 0.666342 4.66683L0.66634 23.3335C0.66634 24.3944 1.08777 25.4118 1.83791 26.1619C2.58806 26.9121 3.60547 27.3335 4.66634 27.3335ZM3.33301 4.66683C3.33301 4.31321 3.47348 3.97407 3.72353 3.72402C3.97358 3.47397 4.31272 3.33349 4.66634 3.33349L23.333 3.3335C23.6866 3.3335 24.0258 3.47397 24.2758 3.72402C24.5259 3.97407 24.6663 4.31321 24.6663 4.66683L24.6663 23.3335C24.6663 23.6871 24.5259 24.0263 24.2758 24.2763C24.0258 24.5264 23.6866 24.6668 23.333 24.6668L4.66634 24.6668C4.31272 24.6668 3.97358 24.5264 3.72353 24.2763C3.47348 24.0263 3.33301 23.6871 3.33301 23.3335L3.33301 4.66683Z" fill="white"/>
</svg>
