<svg width="880" height="900" viewBox="0 0 880 900" fill="none" xmlns="http://www.w3.org/2000/svg">
<g clip-path="url(#clip0_3_6612)">
<rect width="880" height="900" fill="#F93E6C" fill-opacity="0.1"/>
<circle cx="485" cy="345" r="4" fill="white"/>
<circle cx="485" cy="363" r="4" fill="white"/>
<circle cx="485" cy="381" r="4" fill="white"/>
<circle cx="485" cy="399" r="4" fill="white"/>
<circle cx="485" cy="417" r="4" fill="white"/>
<circle cx="485" cy="435" r="4" fill="white"/>
<circle cx="485" cy="453" r="4" fill="white"/>
<circle cx="485" cy="471" r="4" fill="white"/>
<circle cx="485" cy="489" r="4" fill="white"/>
<circle cx="485" cy="507" r="4" fill="white"/>
<circle cx="485" cy="525" r="4" fill="white"/>
<circle cx="485" cy="543" r="4" fill="white"/>
<circle cx="485" cy="561" r="4" fill="white"/>
<circle cx="485" cy="579" r="4" fill="white"/>
<circle cx="485" cy="597" r="4" fill="white"/>
<circle cx="485" cy="615" r="4" fill="white"/>
<circle cx="503" cy="345" r="4" fill="white"/>
<circle cx="503" cy="363" r="4" fill="white"/>
<circle cx="503" cy="381" r="4" fill="white"/>
<circle cx="503" cy="399" r="4" fill="white"/>
<circle cx="503" cy="417" r="4" fill="white"/>
<circle cx="503" cy="435" r="4" fill="white"/>
<circle cx="503" cy="453" r="4" fill="white"/>
<circle cx="503" cy="471" r="4" fill="white"/>
<circle cx="503" cy="489" r="4" fill="white"/>
<circle cx="503" cy="507" r="4" fill="white"/>
<circle cx="503" cy="525" r="4" fill="white"/>
<circle cx="503" cy="543" r="4" fill="white"/>
<circle cx="503" cy="561" r="4" fill="white"/>
<circle cx="503" cy="579" r="4" fill="white"/>
<circle cx="503" cy="597" r="4" fill="white"/>
<circle cx="503" cy="615" r="4" fill="white"/>
<circle cx="521" cy="345" r="4" fill="white"/>
<circle cx="521" cy="363" r="4" fill="white"/>
<circle cx="521" cy="381" r="4" fill="white"/>
<circle cx="521" cy="399" r="4" fill="white"/>
<circle cx="521" cy="417" r="4" fill="white"/>
<circle cx="521" cy="435" r="4" fill="white"/>
<circle cx="521" cy="453" r="4" fill="white"/>
<circle cx="521" cy="471" r="4" fill="white"/>
<circle cx="521" cy="489" r="4" fill="white"/>
<circle cx="521" cy="507" r="4" fill="white"/>
<circle cx="521" cy="525" r="4" fill="white"/>
<circle cx="521" cy="543" r="4" fill="white"/>
<circle cx="521" cy="561" r="4" fill="white"/>
<circle cx="521" cy="579" r="4" fill="white"/>
<circle cx="521" cy="597" r="4" fill="white"/>
<circle cx="521" cy="615" r="4" fill="white"/>
<circle cx="539" cy="345" r="4" fill="white"/>
<circle cx="539" cy="363" r="4" fill="white"/>
<circle cx="539" cy="381" r="4" fill="white"/>
<circle cx="539" cy="399" r="4" fill="white"/>
<circle cx="539" cy="417" r="4" fill="white"/>
<circle cx="539" cy="435" r="4" fill="white"/>
<circle cx="539" cy="453" r="4" fill="white"/>
<circle cx="539" cy="471" r="4" fill="white"/>
<circle cx="539" cy="489" r="4" fill="white"/>
<circle cx="539" cy="507" r="4" fill="white"/>
<circle cx="539" cy="525" r="4" fill="white"/>
<circle cx="539" cy="543" r="4" fill="white"/>
<circle cx="539" cy="561" r="4" fill="white"/>
<circle cx="539" cy="579" r="4" fill="white"/>
<circle cx="539" cy="597" r="4" fill="white"/>
<circle cx="539" cy="615" r="4" fill="white"/>
<circle cx="557" cy="345" r="4" fill="white"/>
<circle cx="557" cy="363" r="4" fill="white"/>
<circle cx="557" cy="381" r="4" fill="white"/>
<circle cx="557" cy="399" r="4" fill="white"/>
<circle cx="557" cy="417" r="4" fill="white"/>
<circle cx="557" cy="435" r="4" fill="white"/>
<circle cx="557" cy="453" r="4" fill="white"/>
<circle cx="557" cy="471" r="4" fill="white"/>
<circle cx="557" cy="489" r="4" fill="white"/>
<circle cx="557" cy="507" r="4" fill="white"/>
<circle cx="557" cy="525" r="4" fill="white"/>
<circle cx="557" cy="543" r="4" fill="white"/>
<circle cx="557" cy="561" r="4" fill="white"/>
<circle cx="557" cy="579" r="4" fill="white"/>
<circle cx="557" cy="597" r="4" fill="white"/>
<circle cx="557" cy="615" r="4" fill="white"/>
<circle cx="575" cy="345" r="4" fill="white"/>
<circle cx="575" cy="363" r="4" fill="white"/>
<circle cx="575" cy="381" r="4" fill="white"/>
<circle cx="575" cy="399" r="4" fill="white"/>
<circle cx="575" cy="417" r="4" fill="white"/>
<circle cx="575" cy="435" r="4" fill="white"/>
<circle cx="575" cy="453" r="4" fill="white"/>
<circle cx="575" cy="471" r="4" fill="white"/>
<circle cx="575" cy="489" r="4" fill="white"/>
<circle cx="575" cy="507" r="4" fill="white"/>
<circle cx="575" cy="525" r="4" fill="white"/>
<circle cx="575" cy="543" r="4" fill="white"/>
<circle cx="575" cy="561" r="4" fill="white"/>
<circle cx="575" cy="579" r="4" fill="white"/>
<circle cx="575" cy="597" r="4" fill="white"/>
<circle cx="575" cy="615" r="4" fill="white"/>
<circle cx="593" cy="345" r="4" fill="white"/>
<circle cx="593" cy="363" r="4" fill="white"/>
<circle cx="593" cy="381" r="4" fill="white"/>
<circle cx="593" cy="399" r="4" fill="white"/>
<circle cx="593" cy="417" r="4" fill="white"/>
<circle cx="593" cy="435" r="4" fill="white"/>
<circle cx="593" cy="453" r="4" fill="white"/>
<circle cx="593" cy="471" r="4" fill="white"/>
<circle cx="593" cy="489" r="4" fill="white"/>
<circle cx="593" cy="507" r="4" fill="white"/>
<circle cx="593" cy="525" r="4" fill="white"/>
<circle cx="593" cy="543" r="4" fill="white"/>
<circle cx="593" cy="561" r="4" fill="white"/>
<circle cx="593" cy="579" r="4" fill="white"/>
<circle cx="593" cy="597" r="4" fill="white"/>
<circle cx="593" cy="615" r="4" fill="white"/>
<circle cx="611" cy="345" r="4" fill="white"/>
<circle cx="611" cy="363" r="4" fill="white"/>
<circle cx="611" cy="381" r="4" fill="white"/>
<circle cx="611" cy="399" r="4" fill="white"/>
<circle cx="611" cy="417" r="4" fill="white"/>
<circle cx="611" cy="435" r="4" fill="white"/>
<circle cx="611" cy="453" r="4" fill="white"/>
<circle cx="611" cy="471" r="4" fill="white"/>
<circle cx="611" cy="489" r="4" fill="white"/>
<circle cx="611" cy="507" r="4" fill="white"/>
<circle cx="611" cy="525" r="4" fill="white"/>
<circle cx="611" cy="543" r="4" fill="white"/>
<circle cx="611" cy="561" r="4" fill="white"/>
<circle cx="611" cy="579" r="4" fill="white"/>
<circle cx="611" cy="597" r="4" fill="white"/>
<circle cx="611" cy="615" r="4" fill="white"/>
<circle cx="629" cy="345" r="4" fill="white"/>
<circle cx="629" cy="363" r="4" fill="white"/>
<circle cx="629" cy="381" r="4" fill="white"/>
<circle cx="629" cy="399" r="4" fill="white"/>
<circle cx="629" cy="417" r="4" fill="white"/>
<circle cx="629" cy="435" r="4" fill="white"/>
<circle cx="629" cy="453" r="4" fill="white"/>
<circle cx="629" cy="471" r="4" fill="white"/>
<circle cx="629" cy="489" r="4" fill="white"/>
<circle cx="629" cy="507" r="4" fill="white"/>
<circle cx="629" cy="525" r="4" fill="white"/>
<circle cx="629" cy="543" r="4" fill="white"/>
<circle cx="629" cy="561" r="4" fill="white"/>
<circle cx="629" cy="579" r="4" fill="white"/>
<circle cx="629" cy="597" r="4" fill="white"/>
<circle cx="629" cy="615" r="4" fill="white"/>
<circle cx="647" cy="345" r="4" fill="white"/>
<circle cx="647" cy="363" r="4" fill="white"/>
<circle cx="647" cy="381" r="4" fill="white"/>
<circle cx="647" cy="399" r="4" fill="white"/>
<circle cx="647" cy="417" r="4" fill="white"/>
<circle cx="647" cy="435" r="4" fill="white"/>
<circle cx="647" cy="453" r="4" fill="white"/>
<circle cx="647" cy="471" r="4" fill="white"/>
<circle cx="647" cy="489" r="4" fill="white"/>
<circle cx="647" cy="507" r="4" fill="white"/>
<circle cx="647" cy="525" r="4" fill="white"/>
<circle cx="647" cy="543" r="4" fill="white"/>
<circle cx="647" cy="561" r="4" fill="white"/>
<circle cx="647" cy="579" r="4" fill="white"/>
<circle cx="647" cy="597" r="4" fill="white"/>
<circle cx="647" cy="615" r="4" fill="white"/>
<circle cx="665" cy="345" r="4" fill="white"/>
<circle cx="665" cy="363" r="4" fill="white"/>
<circle cx="665" cy="381" r="4" fill="white"/>
<circle cx="665" cy="399" r="4" fill="white"/>
<circle cx="665" cy="417" r="4" fill="white"/>
<circle cx="665" cy="435" r="4" fill="white"/>
<circle cx="665" cy="453" r="4" fill="white"/>
<circle cx="665" cy="471" r="4" fill="white"/>
<circle cx="665" cy="489" r="4" fill="white"/>
<circle cx="665" cy="507" r="4" fill="white"/>
<circle cx="665" cy="525" r="4" fill="white"/>
<circle cx="665" cy="543" r="4" fill="white"/>
<circle cx="665" cy="561" r="4" fill="white"/>
<circle cx="665" cy="579" r="4" fill="white"/>
<circle cx="665" cy="597" r="4" fill="white"/>
<circle cx="665" cy="615" r="4" fill="white"/>
<circle cx="683" cy="345" r="4" fill="white"/>
<circle cx="683" cy="363" r="4" fill="white"/>
<circle cx="683" cy="381" r="4" fill="white"/>
<circle cx="683" cy="399" r="4" fill="white"/>
<circle cx="683" cy="417" r="4" fill="white"/>
<circle cx="683" cy="435" r="4" fill="white"/>
<circle cx="683" cy="453" r="4" fill="white"/>
<circle cx="683" cy="471" r="4" fill="white"/>
<circle cx="683" cy="489" r="4" fill="white"/>
<circle cx="683" cy="507" r="4" fill="white"/>
<circle cx="683" cy="525" r="4" fill="white"/>
<circle cx="683" cy="543" r="4" fill="white"/>
<circle cx="683" cy="561" r="4" fill="white"/>
<circle cx="683" cy="579" r="4" fill="white"/>
<circle cx="683" cy="597" r="4" fill="white"/>
<circle cx="683" cy="615" r="4" fill="white"/>
<circle cx="701" cy="345" r="4" fill="white"/>
<circle cx="701" cy="363" r="4" fill="white"/>
<circle cx="701" cy="381" r="4" fill="white"/>
<circle cx="701" cy="399" r="4" fill="white"/>
<circle cx="701" cy="417" r="4" fill="white"/>
<circle cx="701" cy="435" r="4" fill="white"/>
<circle cx="701" cy="453" r="4" fill="white"/>
<circle cx="701" cy="471" r="4" fill="white"/>
<circle cx="701" cy="489" r="4" fill="white"/>
<circle cx="701" cy="507" r="4" fill="white"/>
<circle cx="701" cy="525" r="4" fill="white"/>
<circle cx="701" cy="543" r="4" fill="white"/>
<circle cx="701" cy="561" r="4" fill="white"/>
<circle cx="701" cy="579" r="4" fill="white"/>
<circle cx="701" cy="597" r="4" fill="white"/>
<circle cx="701" cy="615" r="4" fill="white"/>
<circle cx="719" cy="345" r="4" fill="white"/>
<circle cx="719" cy="363" r="4" fill="white"/>
<circle cx="719" cy="381" r="4" fill="white"/>
<circle cx="719" cy="399" r="4" fill="white"/>
<circle cx="719" cy="417" r="4" fill="white"/>
<circle cx="719" cy="435" r="4" fill="white"/>
<circle cx="719" cy="453" r="4" fill="white"/>
<circle cx="719" cy="471" r="4" fill="white"/>
<circle cx="719" cy="489" r="4" fill="white"/>
<circle cx="719" cy="507" r="4" fill="white"/>
<circle cx="719" cy="525" r="4" fill="white"/>
<circle cx="719" cy="543" r="4" fill="white"/>
<circle cx="719" cy="561" r="4" fill="white"/>
<circle cx="719" cy="579" r="4" fill="white"/>
<circle cx="719" cy="597" r="4" fill="white"/>
<circle cx="719" cy="615" r="4" fill="white"/>
<circle cx="737" cy="345" r="4" fill="white"/>
<circle cx="737" cy="363" r="4" fill="white"/>
<circle cx="737" cy="381" r="4" fill="white"/>
<circle cx="737" cy="399" r="4" fill="white"/>
<circle cx="737" cy="417" r="4" fill="white"/>
<circle cx="737" cy="435" r="4" fill="white"/>
<circle cx="737" cy="453" r="4" fill="white"/>
<circle cx="737" cy="471" r="4" fill="white"/>
<circle cx="737" cy="489" r="4" fill="white"/>
<circle cx="737" cy="507" r="4" fill="white"/>
<circle cx="737" cy="525" r="4" fill="white"/>
<circle cx="737" cy="543" r="4" fill="white"/>
<circle cx="737" cy="561" r="4" fill="white"/>
<circle cx="737" cy="579" r="4" fill="white"/>
<circle cx="737" cy="597" r="4" fill="white"/>
<circle cx="737" cy="615" r="4" fill="white"/>
<circle cx="755" cy="345" r="4" fill="white"/>
<circle cx="755" cy="363" r="4" fill="white"/>
<circle cx="755" cy="381" r="4" fill="white"/>
<circle cx="755" cy="399" r="4" fill="white"/>
<circle cx="755" cy="417" r="4" fill="white"/>
<circle cx="755" cy="435" r="4" fill="white"/>
<circle cx="755" cy="453" r="4" fill="white"/>
<circle cx="755" cy="471" r="4" fill="white"/>
<circle cx="755" cy="489" r="4" fill="white"/>
<circle cx="755" cy="507" r="4" fill="white"/>
<circle cx="755" cy="525" r="4" fill="white"/>
<circle cx="755" cy="543" r="4" fill="white"/>
<circle cx="755" cy="561" r="4" fill="white"/>
<circle cx="755" cy="579" r="4" fill="white"/>
<circle cx="755" cy="597" r="4" fill="white"/>
<circle cx="755" cy="615" r="4" fill="white"/>
<circle cx="773" cy="345" r="4" fill="white"/>
<circle cx="773" cy="363" r="4" fill="white"/>
<circle cx="773" cy="381" r="4" fill="white"/>
<circle cx="773" cy="399" r="4" fill="white"/>
<circle cx="773" cy="417" r="4" fill="white"/>
<circle cx="773" cy="435" r="4" fill="white"/>
<circle cx="773" cy="453" r="4" fill="white"/>
<circle cx="773" cy="471" r="4" fill="white"/>
<circle cx="773" cy="489" r="4" fill="white"/>
<circle cx="773" cy="507" r="4" fill="white"/>
<circle cx="773" cy="525" r="4" fill="white"/>
<circle cx="773" cy="543" r="4" fill="white"/>
<circle cx="773" cy="561" r="4" fill="white"/>
<circle cx="773" cy="579" r="4" fill="white"/>
<circle cx="773" cy="597" r="4" fill="white"/>
<circle cx="773" cy="615" r="4" fill="white"/>
<circle cx="196.5" cy="818.5" r="152.5" fill="#00C3F9"/>
<path d="M767.069 666.25C694.129 708.362 669.138 801.629 711.25 874.569L975.388 722.069C933.276 649.129 840.008 624.138 767.069 666.25Z" fill="#CE69FE"/>
<rect x="-110" y="146.046" width="367.229" height="123.74" rx="61.8701" transform="rotate(-15 -110 146.046)" fill="#F93E6C"/>
<path d="M894.917 40.3948C909.788 36.41 923.396 50.0183 919.412 64.8897L863.824 272.346C859.839 287.217 841.25 292.198 830.363 281.312L678.495 129.443C667.608 118.557 672.589 99.9673 687.461 95.9825L894.917 40.3948Z" fill="#2CCFBC"/>
<path d="M248.182 349.375C247.943 348.545 247.608 347.812 247.176 347.176C246.744 346.528 246.216 345.983 245.591 345.54C244.977 345.085 244.273 344.739 243.477 344.5C242.693 344.261 241.824 344.142 240.869 344.142C239.085 344.142 237.517 344.585 236.165 345.472C234.824 346.358 233.778 347.648 233.028 349.341C232.278 351.023 231.903 353.08 231.903 355.511C231.903 357.943 232.273 360.011 233.011 361.716C233.75 363.42 234.795 364.722 236.148 365.619C237.5 366.506 239.097 366.949 240.938 366.949C242.608 366.949 244.034 366.653 245.216 366.062C246.409 365.46 247.318 364.614 247.943 363.523C248.58 362.432 248.898 361.142 248.898 359.653L250.398 359.875H241.398V354.318H256.006V358.716C256.006 361.784 255.358 364.42 254.062 366.625C252.767 368.818 250.983 370.511 248.71 371.705C246.438 372.886 243.835 373.477 240.903 373.477C237.631 373.477 234.756 372.756 232.278 371.312C229.801 369.858 227.869 367.795 226.483 365.125C225.108 362.443 224.42 359.261 224.42 355.58C224.42 352.75 224.83 350.227 225.648 348.011C226.477 345.784 227.636 343.898 229.125 342.352C230.614 340.807 232.347 339.631 234.324 338.824C236.301 338.017 238.443 337.614 240.75 337.614C242.727 337.614 244.568 337.903 246.273 338.483C247.977 339.051 249.489 339.858 250.807 340.903C252.136 341.949 253.222 343.193 254.062 344.636C254.903 346.068 255.443 347.648 255.682 349.375H248.182ZM273.345 373.511C270.652 373.511 268.334 372.966 266.391 371.875C264.459 370.773 262.97 369.216 261.925 367.205C260.879 365.182 260.357 362.79 260.357 360.028C260.357 357.335 260.879 354.972 261.925 352.938C262.97 350.903 264.442 349.318 266.339 348.182C268.249 347.045 270.487 346.477 273.055 346.477C274.783 346.477 276.391 346.756 277.879 347.312C279.379 347.858 280.686 348.682 281.8 349.784C282.925 350.886 283.8 352.273 284.425 353.943C285.05 355.602 285.362 357.545 285.362 359.773V361.767H263.254V357.267H278.527C278.527 356.222 278.3 355.295 277.845 354.489C277.391 353.682 276.76 353.051 275.953 352.597C275.158 352.131 274.232 351.898 273.175 351.898C272.072 351.898 271.095 352.153 270.243 352.665C269.402 353.165 268.743 353.841 268.266 354.693C267.788 355.534 267.544 356.472 267.533 357.506V361.784C267.533 363.08 267.771 364.199 268.249 365.142C268.737 366.085 269.425 366.812 270.311 367.324C271.197 367.835 272.249 368.091 273.464 368.091C274.271 368.091 275.01 367.977 275.68 367.75C276.351 367.523 276.925 367.182 277.402 366.727C277.879 366.273 278.243 365.716 278.493 365.057L285.209 365.5C284.868 367.114 284.169 368.523 283.112 369.727C282.067 370.92 280.714 371.852 279.055 372.523C277.408 373.182 275.504 373.511 273.345 373.511ZM304.027 346.818V352.273H288.26V346.818H304.027ZM291.839 340.545H299.101V364.955C299.101 365.625 299.203 366.148 299.408 366.523C299.612 366.886 299.896 367.142 300.26 367.29C300.635 367.437 301.067 367.511 301.555 367.511C301.896 367.511 302.237 367.483 302.578 367.426C302.919 367.358 303.18 367.307 303.362 367.273L304.504 372.676C304.141 372.79 303.629 372.92 302.97 373.068C302.311 373.227 301.51 373.324 300.567 373.358C298.817 373.426 297.283 373.193 295.964 372.659C294.658 372.125 293.641 371.295 292.913 370.17C292.186 369.045 291.828 367.625 291.839 365.909V340.545ZM341.651 354.284L335.003 354.693C334.889 354.125 334.645 353.614 334.27 353.159C333.895 352.693 333.401 352.324 332.787 352.051C332.185 351.767 331.463 351.625 330.622 351.625C329.497 351.625 328.548 351.864 327.776 352.341C327.003 352.807 326.616 353.432 326.616 354.216C326.616 354.841 326.866 355.369 327.366 355.801C327.866 356.233 328.724 356.58 329.94 356.841L334.679 357.795C337.224 358.318 339.122 359.159 340.372 360.318C341.622 361.477 342.247 363 342.247 364.886C342.247 366.602 341.741 368.108 340.73 369.403C339.73 370.699 338.355 371.71 336.605 372.438C334.866 373.153 332.861 373.511 330.588 373.511C327.122 373.511 324.361 372.79 322.304 371.347C320.259 369.892 319.06 367.915 318.707 365.415L325.849 365.04C326.065 366.097 326.588 366.903 327.418 367.46C328.247 368.006 329.31 368.278 330.605 368.278C331.878 368.278 332.901 368.034 333.673 367.545C334.457 367.045 334.855 366.403 334.866 365.619C334.855 364.96 334.577 364.42 334.031 364C333.486 363.568 332.645 363.239 331.509 363.011L326.974 362.108C324.418 361.597 322.514 360.71 321.264 359.449C320.026 358.187 319.406 356.58 319.406 354.625C319.406 352.943 319.861 351.494 320.77 350.278C321.69 349.062 322.98 348.125 324.639 347.466C326.31 346.807 328.264 346.477 330.503 346.477C333.81 346.477 336.412 347.176 338.31 348.574C340.219 349.972 341.332 351.875 341.651 354.284ZM360.746 346.818V352.273H344.979V346.818H360.746ZM348.558 340.545H355.82V364.955C355.82 365.625 355.922 366.148 356.126 366.523C356.331 366.886 356.615 367.142 356.979 367.29C357.354 367.437 357.786 367.511 358.274 367.511C358.615 367.511 358.956 367.483 359.297 367.426C359.638 367.358 359.899 367.307 360.081 367.273L361.223 372.676C360.859 372.79 360.348 372.92 359.689 373.068C359.03 373.227 358.229 373.324 357.286 373.358C355.536 373.426 354.001 373.193 352.683 372.659C351.376 372.125 350.359 371.295 349.632 370.17C348.905 369.045 348.547 367.625 348.558 365.909V340.545ZM372.942 373.494C371.271 373.494 369.783 373.205 368.476 372.625C367.169 372.034 366.135 371.165 365.374 370.017C364.624 368.858 364.249 367.415 364.249 365.688C364.249 364.233 364.516 363.011 365.05 362.023C365.584 361.034 366.311 360.239 367.232 359.636C368.152 359.034 369.197 358.58 370.368 358.273C371.55 357.966 372.788 357.75 374.084 357.625C375.607 357.466 376.834 357.318 377.766 357.182C378.697 357.034 379.374 356.818 379.794 356.534C380.214 356.25 380.425 355.83 380.425 355.273V355.17C380.425 354.091 380.084 353.256 379.402 352.665C378.732 352.074 377.777 351.778 376.538 351.778C375.232 351.778 374.192 352.068 373.419 352.648C372.646 353.216 372.135 353.932 371.885 354.795L365.169 354.25C365.51 352.659 366.18 351.284 367.18 350.125C368.18 348.955 369.47 348.057 371.05 347.432C372.641 346.795 374.482 346.477 376.572 346.477C378.027 346.477 379.419 346.648 380.749 346.989C382.089 347.33 383.277 347.858 384.311 348.574C385.357 349.29 386.18 350.21 386.783 351.335C387.385 352.449 387.686 353.784 387.686 355.341V373H380.8V369.369H380.595C380.175 370.188 379.612 370.909 378.908 371.534C378.203 372.148 377.357 372.631 376.368 372.983C375.379 373.324 374.237 373.494 372.942 373.494ZM375.021 368.483C376.089 368.483 377.033 368.273 377.851 367.852C378.669 367.42 379.311 366.841 379.777 366.114C380.243 365.386 380.476 364.562 380.476 363.642V360.864C380.249 361.011 379.936 361.148 379.538 361.273C379.152 361.386 378.714 361.494 378.226 361.597C377.737 361.687 377.249 361.773 376.76 361.852C376.271 361.92 375.828 361.983 375.43 362.04C374.578 362.165 373.834 362.364 373.197 362.636C372.561 362.909 372.067 363.278 371.714 363.744C371.362 364.199 371.186 364.767 371.186 365.449C371.186 366.438 371.544 367.193 372.26 367.716C372.987 368.227 373.908 368.483 375.021 368.483ZM393.32 373V346.818H400.359V351.386H400.632C401.109 349.761 401.911 348.534 403.036 347.705C404.161 346.864 405.456 346.443 406.922 346.443C407.286 346.443 407.678 346.466 408.098 346.511C408.518 346.557 408.888 346.619 409.206 346.699V353.142C408.865 353.04 408.393 352.949 407.791 352.869C407.189 352.79 406.638 352.75 406.138 352.75C405.07 352.75 404.115 352.983 403.274 353.449C402.445 353.903 401.786 354.54 401.297 355.358C400.82 356.176 400.581 357.119 400.581 358.188V373H393.32ZM428.199 346.818V352.273H412.432V346.818H428.199ZM416.011 340.545H423.273V364.955C423.273 365.625 423.375 366.148 423.58 366.523C423.784 366.886 424.068 367.142 424.432 367.29C424.807 367.437 425.239 367.511 425.727 367.511C426.068 367.511 426.409 367.483 426.75 367.426C427.091 367.358 427.352 367.307 427.534 367.273L428.676 372.676C428.313 372.79 427.801 372.92 427.142 373.068C426.483 373.227 425.682 373.324 424.739 373.358C422.989 373.426 421.455 373.193 420.136 372.659C418.83 372.125 417.813 371.295 417.085 370.17C416.358 369.045 416 367.625 416.011 365.909V340.545ZM444.58 373.511C441.886 373.511 439.568 372.966 437.625 371.875C435.693 370.773 434.205 369.216 433.159 367.205C432.114 365.182 431.591 362.79 431.591 360.028C431.591 357.335 432.114 354.972 433.159 352.938C434.205 350.903 435.676 349.318 437.574 348.182C439.483 347.045 441.722 346.477 444.29 346.477C446.017 346.477 447.625 346.756 449.114 347.312C450.614 347.858 451.92 348.682 453.034 349.784C454.159 350.886 455.034 352.273 455.659 353.943C456.284 355.602 456.597 357.545 456.597 359.773V361.767H434.489V357.267H449.761C449.761 356.222 449.534 355.295 449.08 354.489C448.625 353.682 447.994 353.051 447.188 352.597C446.392 352.131 445.466 351.898 444.409 351.898C443.307 351.898 442.33 352.153 441.477 352.665C440.636 353.165 439.977 353.841 439.5 354.693C439.023 355.534 438.778 356.472 438.767 357.506V361.784C438.767 363.08 439.006 364.199 439.483 365.142C439.972 366.085 440.659 366.812 441.545 367.324C442.432 367.835 443.483 368.091 444.699 368.091C445.506 368.091 446.244 367.977 446.915 367.75C447.585 367.523 448.159 367.182 448.636 366.727C449.114 366.273 449.477 365.716 449.727 365.057L456.443 365.5C456.102 367.114 455.403 368.523 454.347 369.727C453.301 370.92 451.949 371.852 450.29 372.523C448.642 373.182 446.739 373.511 444.58 373.511ZM470.983 373.426C468.994 373.426 467.193 372.915 465.58 371.892C463.977 370.858 462.705 369.341 461.761 367.341C460.83 365.33 460.364 362.864 460.364 359.943C460.364 356.943 460.847 354.449 461.812 352.46C462.778 350.46 464.063 348.966 465.665 347.977C467.278 346.977 469.045 346.477 470.966 346.477C472.432 346.477 473.653 346.727 474.631 347.227C475.619 347.716 476.415 348.33 477.017 349.068C477.631 349.795 478.097 350.511 478.415 351.216H478.636V338.091H485.881V373H478.722V368.807H478.415C478.074 369.534 477.591 370.256 476.966 370.972C476.352 371.676 475.551 372.261 474.562 372.727C473.585 373.193 472.392 373.426 470.983 373.426ZM473.284 367.648C474.455 367.648 475.443 367.33 476.25 366.693C477.068 366.045 477.693 365.142 478.125 363.983C478.568 362.824 478.79 361.466 478.79 359.909C478.79 358.352 478.574 357 478.142 355.852C477.71 354.705 477.085 353.818 476.267 353.193C475.449 352.568 474.455 352.256 473.284 352.256C472.091 352.256 471.085 352.58 470.267 353.227C469.449 353.875 468.83 354.773 468.409 355.92C467.989 357.068 467.778 358.398 467.778 359.909C467.778 361.432 467.989 362.778 468.409 363.949C468.841 365.108 469.46 366.017 470.267 366.676C471.085 367.324 472.091 367.648 473.284 367.648ZM508.125 373L501 346.818H508.347L512.403 364.409H512.642L516.869 346.818H524.08L528.375 364.307H528.597L532.585 346.818H539.915L532.807 373H525.119L520.619 356.534H520.295L515.795 373H508.125ZM543.788 373V346.818H551.05V373H543.788ZM547.436 343.443C546.357 343.443 545.43 343.085 544.658 342.369C543.896 341.642 543.516 340.773 543.516 339.761C543.516 338.761 543.896 337.903 544.658 337.188C545.43 336.46 546.357 336.097 547.436 336.097C548.516 336.097 549.436 336.46 550.197 337.188C550.97 337.903 551.357 338.761 551.357 339.761C551.357 340.773 550.97 341.642 550.197 342.369C549.436 343.085 548.516 343.443 547.436 343.443ZM570.793 346.818V352.273H555.026V346.818H570.793ZM558.605 340.545H565.866V364.955C565.866 365.625 565.969 366.148 566.173 366.523C566.378 366.886 566.662 367.142 567.026 367.29C567.401 367.437 567.832 367.511 568.321 367.511C568.662 367.511 569.003 367.483 569.344 367.426C569.685 367.358 569.946 367.307 570.128 367.273L571.27 372.676C570.906 372.79 570.395 372.92 569.736 373.068C569.077 373.227 568.276 373.324 567.332 373.358C565.582 373.426 564.048 373.193 562.73 372.659C561.423 372.125 560.406 371.295 559.679 370.17C558.952 369.045 558.594 367.625 558.605 365.909V340.545ZM583.347 357.864V373H576.085V338.091H583.142V351.438H583.449C584.04 349.892 584.994 348.682 586.312 347.807C587.631 346.92 589.284 346.477 591.273 346.477C593.091 346.477 594.676 346.875 596.028 347.67C597.392 348.455 598.449 349.585 599.199 351.062C599.96 352.528 600.335 354.284 600.324 356.33V373H593.062V357.625C593.074 356.011 592.665 354.756 591.835 353.858C591.017 352.96 589.869 352.511 588.392 352.511C587.403 352.511 586.528 352.722 585.767 353.142C585.017 353.562 584.426 354.176 583.994 354.983C583.574 355.778 583.358 356.739 583.347 357.864ZM648.085 350.312H640.619C640.483 349.347 640.205 348.489 639.784 347.739C639.364 346.977 638.824 346.33 638.165 345.795C637.506 345.261 636.744 344.852 635.881 344.568C635.028 344.284 634.102 344.142 633.102 344.142C631.295 344.142 629.722 344.591 628.381 345.489C627.04 346.375 626 347.67 625.261 349.375C624.523 351.068 624.153 353.125 624.153 355.545C624.153 358.034 624.523 360.125 625.261 361.818C626.011 363.511 627.057 364.79 628.398 365.653C629.739 366.517 631.29 366.949 633.051 366.949C634.04 366.949 634.955 366.818 635.795 366.557C636.648 366.295 637.403 365.915 638.062 365.415C638.722 364.903 639.267 364.284 639.699 363.557C640.142 362.83 640.449 362 640.619 361.068L648.085 361.102C647.892 362.705 647.409 364.25 646.636 365.739C645.875 367.216 644.847 368.54 643.551 369.71C642.267 370.869 640.733 371.79 638.949 372.472C637.176 373.142 635.17 373.477 632.932 373.477C629.818 373.477 627.034 372.773 624.58 371.364C622.136 369.955 620.205 367.915 618.784 365.244C617.375 362.574 616.67 359.341 616.67 355.545C616.67 351.739 617.386 348.5 618.818 345.83C620.25 343.159 622.193 341.125 624.648 339.727C627.102 338.318 629.864 337.614 632.932 337.614C634.955 337.614 636.83 337.898 638.557 338.466C640.295 339.034 641.835 339.864 643.176 340.955C644.517 342.034 645.608 343.358 646.449 344.926C647.301 346.494 647.847 348.29 648.085 350.312ZM665.071 373.511C662.423 373.511 660.134 372.949 658.202 371.824C656.281 370.687 654.798 369.108 653.753 367.085C652.707 365.051 652.185 362.693 652.185 360.011C652.185 357.307 652.707 354.943 653.753 352.92C654.798 350.886 656.281 349.307 658.202 348.182C660.134 347.045 662.423 346.477 665.071 346.477C667.719 346.477 670.003 347.045 671.923 348.182C673.855 349.307 675.344 350.886 676.389 352.92C677.435 354.943 677.957 357.307 677.957 360.011C677.957 362.693 677.435 365.051 676.389 367.085C675.344 369.108 673.855 370.687 671.923 371.824C670.003 372.949 667.719 373.511 665.071 373.511ZM665.105 367.886C666.31 367.886 667.315 367.545 668.122 366.864C668.929 366.17 669.537 365.227 669.946 364.034C670.366 362.841 670.577 361.483 670.577 359.96C670.577 358.438 670.366 357.08 669.946 355.886C669.537 354.693 668.929 353.75 668.122 353.057C667.315 352.364 666.31 352.017 665.105 352.017C663.889 352.017 662.866 352.364 662.037 353.057C661.219 353.75 660.599 354.693 660.179 355.886C659.77 357.08 659.565 358.438 659.565 359.96C659.565 361.483 659.77 362.841 660.179 364.034C660.599 365.227 661.219 366.17 662.037 366.864C662.866 367.545 663.889 367.886 665.105 367.886ZM682.679 373V346.818H689.719V351.386H689.991C690.469 349.761 691.27 348.534 692.395 347.705C693.52 346.864 694.815 346.443 696.281 346.443C696.645 346.443 697.037 346.466 697.457 346.511C697.878 346.557 698.247 346.619 698.565 346.699V353.142C698.224 353.04 697.753 352.949 697.151 352.869C696.548 352.79 695.997 352.75 695.497 352.75C694.429 352.75 693.474 352.983 692.634 353.449C691.804 353.903 691.145 354.54 690.656 355.358C690.179 356.176 689.94 357.119 689.94 358.188V373H682.679ZM709.036 373.494C707.365 373.494 705.876 373.205 704.57 372.625C703.263 372.034 702.229 371.165 701.467 370.017C700.717 368.858 700.342 367.415 700.342 365.688C700.342 364.233 700.609 363.011 701.143 362.023C701.678 361.034 702.405 360.239 703.325 359.636C704.246 359.034 705.291 358.58 706.462 358.273C707.643 357.966 708.882 357.75 710.178 357.625C711.7 357.466 712.928 357.318 713.859 357.182C714.791 357.034 715.467 356.818 715.888 356.534C716.308 356.25 716.518 355.83 716.518 355.273V355.17C716.518 354.091 716.178 353.256 715.496 352.665C714.825 352.074 713.871 351.778 712.632 351.778C711.325 351.778 710.286 352.068 709.513 352.648C708.74 353.216 708.229 353.932 707.979 354.795L701.263 354.25C701.604 352.659 702.274 351.284 703.274 350.125C704.274 348.955 705.564 348.057 707.143 347.432C708.734 346.795 710.575 346.477 712.666 346.477C714.121 346.477 715.513 346.648 716.842 346.989C718.183 347.33 719.371 347.858 720.405 348.574C721.45 349.29 722.274 350.21 722.876 351.335C723.479 352.449 723.78 353.784 723.78 355.341V373H716.893V369.369H716.689C716.268 370.188 715.706 370.909 715.001 371.534C714.297 372.148 713.45 372.631 712.462 372.983C711.473 373.324 710.331 373.494 709.036 373.494ZM711.115 368.483C712.183 368.483 713.126 368.273 713.945 367.852C714.763 367.42 715.405 366.841 715.871 366.114C716.337 365.386 716.57 364.562 716.57 363.642V360.864C716.342 361.011 716.03 361.148 715.632 361.273C715.246 361.386 714.808 361.494 714.32 361.597C713.831 361.687 713.342 361.773 712.854 361.852C712.365 361.92 711.922 361.983 711.524 362.04C710.672 362.165 709.928 362.364 709.291 362.636C708.655 362.909 708.161 363.278 707.808 363.744C707.456 364.199 707.28 364.767 707.28 365.449C707.28 366.438 707.638 367.193 708.354 367.716C709.081 368.227 710.001 368.483 711.115 368.483ZM736.675 338.091V373H729.413V338.091H736.675ZM746.974 382.818C746.054 382.818 745.19 382.744 744.384 382.597C743.588 382.46 742.929 382.284 742.406 382.068L744.043 376.648C744.895 376.909 745.662 377.051 746.344 377.074C747.037 377.097 747.634 376.938 748.134 376.597C748.645 376.256 749.06 375.676 749.378 374.858L749.804 373.75L740.412 346.818H748.048L753.469 366.045H753.741L759.213 346.818H766.901L756.724 375.83C756.236 377.239 755.571 378.466 754.73 379.511C753.901 380.568 752.849 381.381 751.577 381.949C750.304 382.528 748.77 382.818 746.974 382.818ZM232.159 429.864V445H224.898V418.818H231.818V423.438H232.125C232.705 421.915 233.676 420.71 235.04 419.824C236.403 418.926 238.057 418.477 240 418.477C241.818 418.477 243.403 418.875 244.756 419.67C246.108 420.466 247.159 421.602 247.909 423.08C248.659 424.545 249.034 426.295 249.034 428.33V445H241.773V429.625C241.784 428.023 241.375 426.773 240.545 425.875C239.716 424.966 238.574 424.511 237.119 424.511C236.142 424.511 235.278 424.722 234.528 425.142C233.79 425.562 233.21 426.176 232.79 426.983C232.381 427.778 232.17 428.739 232.159 429.864ZM266.587 445.511C263.939 445.511 261.649 444.949 259.717 443.824C257.797 442.687 256.314 441.108 255.268 439.085C254.223 437.051 253.7 434.693 253.7 432.011C253.7 429.307 254.223 426.943 255.268 424.92C256.314 422.886 257.797 421.307 259.717 420.182C261.649 419.045 263.939 418.477 266.587 418.477C269.234 418.477 271.518 419.045 273.439 420.182C275.371 421.307 276.859 422.886 277.905 424.92C278.95 426.943 279.473 429.307 279.473 432.011C279.473 434.693 278.95 437.051 277.905 439.085C276.859 441.108 275.371 442.687 273.439 443.824C271.518 444.949 269.234 445.511 266.587 445.511ZM266.621 439.886C267.825 439.886 268.831 439.545 269.638 438.864C270.445 438.17 271.053 437.227 271.462 436.034C271.882 434.841 272.092 433.483 272.092 431.96C272.092 430.438 271.882 429.08 271.462 427.886C271.053 426.693 270.445 425.75 269.638 425.057C268.831 424.364 267.825 424.017 266.621 424.017C265.405 424.017 264.382 424.364 263.553 425.057C262.734 425.75 262.115 426.693 261.695 427.886C261.286 429.08 261.081 430.438 261.081 431.96C261.081 433.483 261.286 434.841 261.695 436.034C262.115 437.227 262.734 438.17 263.553 438.864C264.382 439.545 265.405 439.886 266.621 439.886ZM288.703 445L281.578 418.818H288.925L292.982 436.409H293.22L297.447 418.818H304.658L308.953 436.307H309.175L313.163 418.818H320.493L313.385 445H305.697L301.197 428.534H300.874L296.374 445H288.703ZM342.942 445.494C341.271 445.494 339.783 445.205 338.476 444.625C337.169 444.034 336.135 443.165 335.374 442.017C334.624 440.858 334.249 439.415 334.249 437.688C334.249 436.233 334.516 435.011 335.05 434.023C335.584 433.034 336.311 432.239 337.232 431.636C338.152 431.034 339.197 430.58 340.368 430.273C341.55 429.966 342.788 429.75 344.084 429.625C345.607 429.466 346.834 429.318 347.766 429.182C348.697 429.034 349.374 428.818 349.794 428.534C350.214 428.25 350.425 427.83 350.425 427.273V427.17C350.425 426.091 350.084 425.256 349.402 424.665C348.732 424.074 347.777 423.778 346.538 423.778C345.232 423.778 344.192 424.068 343.419 424.648C342.646 425.216 342.135 425.932 341.885 426.795L335.169 426.25C335.51 424.659 336.18 423.284 337.18 422.125C338.18 420.955 339.47 420.057 341.05 419.432C342.641 418.795 344.482 418.477 346.572 418.477C348.027 418.477 349.419 418.648 350.749 418.989C352.089 419.33 353.277 419.858 354.311 420.574C355.357 421.29 356.18 422.21 356.783 423.335C357.385 424.449 357.686 425.784 357.686 427.341V445H350.8V441.369H350.595C350.175 442.188 349.612 442.909 348.908 443.534C348.203 444.148 347.357 444.631 346.368 444.983C345.379 445.324 344.237 445.494 342.942 445.494ZM345.021 440.483C346.089 440.483 347.033 440.273 347.851 439.852C348.669 439.42 349.311 438.841 349.777 438.114C350.243 437.386 350.476 436.562 350.476 435.642V432.864C350.249 433.011 349.936 433.148 349.538 433.273C349.152 433.386 348.714 433.494 348.226 433.597C347.737 433.687 347.249 433.773 346.76 433.852C346.271 433.92 345.828 433.983 345.43 434.04C344.578 434.165 343.834 434.364 343.197 434.636C342.561 434.909 342.067 435.278 341.714 435.744C341.362 436.199 341.186 436.767 341.186 437.449C341.186 438.438 341.544 439.193 342.26 439.716C342.987 440.227 343.908 440.483 345.021 440.483ZM370.581 429.864V445H363.32V418.818H370.24V423.438H370.547C371.126 421.915 372.098 420.71 373.462 419.824C374.825 418.926 376.479 418.477 378.422 418.477C380.24 418.477 381.825 418.875 383.178 419.67C384.53 420.466 385.581 421.602 386.331 423.08C387.081 424.545 387.456 426.295 387.456 428.33V445H380.195V429.625C380.206 428.023 379.797 426.773 378.967 425.875C378.138 424.966 376.996 424.511 375.541 424.511C374.564 424.511 373.7 424.722 372.95 425.142C372.212 425.562 371.632 426.176 371.212 426.983C370.803 427.778 370.592 428.739 370.581 429.864ZM402.827 445.426C400.838 445.426 399.037 444.915 397.423 443.892C395.821 442.858 394.548 441.341 393.605 439.341C392.673 437.33 392.207 434.864 392.207 431.943C392.207 428.943 392.69 426.449 393.656 424.46C394.622 422.46 395.906 420.966 397.509 419.977C399.122 418.977 400.889 418.477 402.81 418.477C404.276 418.477 405.497 418.727 406.474 419.227C407.463 419.716 408.259 420.33 408.861 421.068C409.474 421.795 409.94 422.511 410.259 423.216H410.48V410.091H417.724V445H410.565V440.807H410.259C409.918 441.534 409.435 442.256 408.81 442.972C408.196 443.676 407.395 444.261 406.406 444.727C405.429 445.193 404.236 445.426 402.827 445.426ZM405.128 439.648C406.298 439.648 407.287 439.33 408.094 438.693C408.912 438.045 409.537 437.142 409.969 435.983C410.412 434.824 410.634 433.466 410.634 431.909C410.634 430.352 410.418 429 409.986 427.852C409.554 426.705 408.929 425.818 408.111 425.193C407.293 424.568 406.298 424.256 405.128 424.256C403.935 424.256 402.929 424.58 402.111 425.227C401.293 425.875 400.673 426.773 400.253 427.92C399.832 429.068 399.622 430.398 399.622 431.909C399.622 433.432 399.832 434.778 400.253 435.949C400.685 437.108 401.304 438.017 402.111 438.676C402.929 439.324 403.935 439.648 405.128 439.648ZM434.804 445V418.818H442.065V445H434.804ZM438.452 415.443C437.372 415.443 436.446 415.085 435.673 414.369C434.912 413.642 434.531 412.773 434.531 411.761C434.531 410.761 434.912 409.903 435.673 409.188C436.446 408.46 437.372 408.097 438.452 408.097C439.531 408.097 440.452 408.46 441.213 409.188C441.986 409.903 442.372 410.761 442.372 411.761C442.372 412.773 441.986 413.642 441.213 414.369C440.452 415.085 439.531 415.443 438.452 415.443ZM447.882 445V418.818H454.803V423.438H455.109C455.655 421.903 456.564 420.693 457.837 419.807C459.109 418.92 460.632 418.477 462.405 418.477C464.2 418.477 465.729 418.926 466.99 419.824C468.251 420.71 469.092 421.915 469.513 423.438H469.786C470.32 421.938 471.286 420.739 472.683 419.841C474.092 418.932 475.757 418.477 477.678 418.477C480.121 418.477 482.104 419.256 483.626 420.812C485.161 422.358 485.928 424.551 485.928 427.392V445H478.683V428.824C478.683 427.369 478.297 426.278 477.524 425.551C476.751 424.824 475.786 424.46 474.626 424.46C473.308 424.46 472.28 424.881 471.541 425.722C470.803 426.551 470.433 427.648 470.433 429.011V445H463.393V428.67C463.393 427.386 463.024 426.364 462.286 425.602C461.558 424.841 460.598 424.46 459.405 424.46C458.598 424.46 457.871 424.665 457.223 425.074C456.587 425.472 456.081 426.034 455.706 426.761C455.331 427.477 455.143 428.318 455.143 429.284V445H447.882ZM491.663 454.818V418.818H498.822V423.216H499.146C499.464 422.511 499.925 421.795 500.527 421.068C501.141 420.33 501.936 419.716 502.913 419.227C503.902 418.727 505.129 418.477 506.595 418.477C508.504 418.477 510.266 418.977 511.879 419.977C513.493 420.966 514.783 422.46 515.749 424.46C516.714 426.449 517.197 428.943 517.197 431.943C517.197 434.864 516.726 437.33 515.783 439.341C514.851 441.341 513.578 442.858 511.964 443.892C510.362 444.915 508.567 445.426 506.578 445.426C505.169 445.426 503.97 445.193 502.982 444.727C502.004 444.261 501.203 443.676 500.578 442.972C499.953 442.256 499.476 441.534 499.146 440.807H498.925V454.818H491.663ZM498.771 431.909C498.771 433.466 498.987 434.824 499.419 435.983C499.851 437.142 500.476 438.045 501.294 438.693C502.112 439.33 503.107 439.648 504.277 439.648C505.459 439.648 506.459 439.324 507.277 438.676C508.095 438.017 508.714 437.108 509.135 435.949C509.567 434.778 509.783 433.432 509.783 431.909C509.783 430.398 509.572 429.068 509.152 427.92C508.732 426.773 508.112 425.875 507.294 425.227C506.476 424.58 505.47 424.256 504.277 424.256C503.095 424.256 502.095 424.568 501.277 425.193C500.47 425.818 499.851 426.705 499.419 427.852C498.987 429 498.771 430.352 498.771 431.909ZM522.038 445V418.818H529.078V423.386H529.351C529.828 421.761 530.629 420.534 531.754 419.705C532.879 418.864 534.175 418.443 535.641 418.443C536.004 418.443 536.396 418.466 536.817 418.511C537.237 418.557 537.607 418.619 537.925 418.699V425.142C537.584 425.04 537.112 424.949 536.51 424.869C535.908 424.79 535.357 424.75 534.857 424.75C533.788 424.75 532.834 424.983 531.993 425.449C531.163 425.903 530.504 426.54 530.016 427.358C529.538 428.176 529.3 429.119 529.3 430.188V445H522.038ZM552.29 445.511C549.642 445.511 547.352 444.949 545.42 443.824C543.5 442.687 542.017 441.108 540.972 439.085C539.926 437.051 539.403 434.693 539.403 432.011C539.403 429.307 539.926 426.943 540.972 424.92C542.017 422.886 543.5 421.307 545.42 420.182C547.352 419.045 549.642 418.477 552.29 418.477C554.938 418.477 557.222 419.045 559.142 420.182C561.074 421.307 562.562 422.886 563.608 424.92C564.653 426.943 565.176 429.307 565.176 432.011C565.176 434.693 564.653 437.051 563.608 439.085C562.562 441.108 561.074 442.687 559.142 443.824C557.222 444.949 554.938 445.511 552.29 445.511ZM552.324 439.886C553.528 439.886 554.534 439.545 555.341 438.864C556.148 438.17 556.756 437.227 557.165 436.034C557.585 434.841 557.795 433.483 557.795 431.96C557.795 430.438 557.585 429.08 557.165 427.886C556.756 426.693 556.148 425.75 555.341 425.057C554.534 424.364 553.528 424.017 552.324 424.017C551.108 424.017 550.085 424.364 549.256 425.057C548.438 425.75 547.818 426.693 547.398 427.886C546.989 429.08 546.784 430.438 546.784 431.96C546.784 433.483 546.989 434.841 547.398 436.034C547.818 437.227 548.438 438.17 549.256 438.864C550.085 439.545 551.108 439.886 552.324 439.886ZM593.463 418.818L584.31 445H576.128L566.974 418.818H574.645L580.082 437.551H580.355L585.776 418.818H593.463ZM608.267 445.511C605.574 445.511 603.256 444.966 601.312 443.875C599.381 442.773 597.892 441.216 596.847 439.205C595.801 437.182 595.278 434.79 595.278 432.028C595.278 429.335 595.801 426.972 596.847 424.938C597.892 422.903 599.364 421.318 601.261 420.182C603.17 419.045 605.409 418.477 607.977 418.477C609.705 418.477 611.313 418.756 612.801 419.312C614.301 419.858 615.608 420.682 616.722 421.784C617.847 422.886 618.722 424.273 619.347 425.943C619.972 427.602 620.284 429.545 620.284 431.773V433.767H598.176V429.267H613.449C613.449 428.222 613.222 427.295 612.767 426.489C612.313 425.682 611.682 425.051 610.875 424.597C610.08 424.131 609.153 423.898 608.097 423.898C606.994 423.898 606.017 424.153 605.165 424.665C604.324 425.165 603.665 425.841 603.188 426.693C602.71 427.534 602.466 428.472 602.455 429.506V433.784C602.455 435.08 602.693 436.199 603.17 437.142C603.659 438.085 604.347 438.812 605.233 439.324C606.119 439.835 607.17 440.091 608.386 440.091C609.193 440.091 609.932 439.977 610.602 439.75C611.273 439.523 611.847 439.182 612.324 438.727C612.801 438.273 613.165 437.716 613.415 437.057L620.131 437.5C619.79 439.114 619.091 440.523 618.034 441.727C616.989 442.92 615.636 443.852 613.977 444.523C612.33 445.182 610.426 445.511 608.267 445.511ZM640.615 454.818C639.695 454.818 638.831 454.744 638.024 454.597C637.229 454.46 636.57 454.284 636.047 454.068L637.683 448.648C638.536 448.909 639.303 449.051 639.984 449.074C640.678 449.097 641.274 448.938 641.774 448.597C642.286 448.256 642.7 447.676 643.018 446.858L643.445 445.75L634.053 418.818H641.689L647.109 438.045H647.382L652.854 418.818H660.541L650.365 447.83C649.876 449.239 649.212 450.466 648.371 451.511C647.541 452.568 646.49 453.381 645.217 453.949C643.945 454.528 642.411 454.818 640.615 454.818ZM675.243 445.511C672.595 445.511 670.305 444.949 668.374 443.824C666.453 442.687 664.97 441.108 663.925 439.085C662.879 437.051 662.357 434.693 662.357 432.011C662.357 429.307 662.879 426.943 663.925 424.92C664.97 422.886 666.453 421.307 668.374 420.182C670.305 419.045 672.595 418.477 675.243 418.477C677.891 418.477 680.175 419.045 682.095 420.182C684.027 421.307 685.516 422.886 686.561 424.92C687.607 426.943 688.129 429.307 688.129 432.011C688.129 434.693 687.607 437.051 686.561 439.085C685.516 441.108 684.027 442.687 682.095 443.824C680.175 444.949 677.891 445.511 675.243 445.511ZM675.277 439.886C676.482 439.886 677.487 439.545 678.294 438.864C679.101 438.17 679.709 437.227 680.118 436.034C680.538 434.841 680.749 433.483 680.749 431.96C680.749 430.438 680.538 429.08 680.118 427.886C679.709 426.693 679.101 425.75 678.294 425.057C677.487 424.364 676.482 424.017 675.277 424.017C674.061 424.017 673.038 424.364 672.209 425.057C671.391 425.75 670.771 426.693 670.351 427.886C669.942 429.08 669.737 430.438 669.737 431.96C669.737 433.483 669.942 434.841 670.351 436.034C670.771 437.227 671.391 438.17 672.209 438.864C673.038 439.545 674.061 439.886 675.277 439.886ZM709.641 433.852V418.818H716.902V445H709.93V440.244H709.658C709.067 441.778 708.084 443.011 706.709 443.943C705.345 444.875 703.68 445.341 701.714 445.341C699.964 445.341 698.425 444.943 697.095 444.148C695.766 443.352 694.726 442.222 693.976 440.756C693.237 439.29 692.862 437.534 692.851 435.489V418.818H700.112V434.193C700.124 435.739 700.538 436.96 701.357 437.858C702.175 438.756 703.271 439.205 704.646 439.205C705.521 439.205 706.339 439.006 707.101 438.608C707.862 438.199 708.476 437.597 708.942 436.801C709.419 436.006 709.652 435.023 709.641 433.852ZM722.71 445V418.818H729.75V423.386H730.023C730.5 421.761 731.301 420.534 732.426 419.705C733.551 418.864 734.847 418.443 736.312 418.443C736.676 418.443 737.068 418.466 737.489 418.511C737.909 418.557 738.278 418.619 738.597 418.699V425.142C738.256 425.04 737.784 424.949 737.182 424.869C736.58 424.79 736.028 424.75 735.528 424.75C734.46 424.75 733.506 424.983 732.665 425.449C731.835 425.903 731.176 426.54 730.688 427.358C730.21 428.176 729.972 429.119 729.972 430.188V445H722.71ZM230.062 517L222.938 490.818H230.284L234.341 508.409H234.58L238.807 490.818H246.017L250.312 508.307H250.534L254.523 490.818H261.852L254.744 517H247.057L242.557 500.534H242.233L237.733 517H230.062ZM276.899 517.511C274.251 517.511 271.962 516.949 270.03 515.824C268.109 514.687 266.626 513.108 265.581 511.085C264.536 509.051 264.013 506.693 264.013 504.011C264.013 501.307 264.536 498.943 265.581 496.92C266.626 494.886 268.109 493.307 270.03 492.182C271.962 491.045 274.251 490.477 276.899 490.477C279.547 490.477 281.831 491.045 283.751 492.182C285.683 493.307 287.172 494.886 288.217 496.92C289.263 498.943 289.786 501.307 289.786 504.011C289.786 506.693 289.263 509.051 288.217 511.085C287.172 513.108 285.683 514.687 283.751 515.824C281.831 516.949 279.547 517.511 276.899 517.511ZM276.933 511.886C278.138 511.886 279.143 511.545 279.95 510.864C280.757 510.17 281.365 509.227 281.774 508.034C282.195 506.841 282.405 505.483 282.405 503.96C282.405 502.438 282.195 501.08 281.774 499.886C281.365 498.693 280.757 497.75 279.95 497.057C279.143 496.364 278.138 496.017 276.933 496.017C275.717 496.017 274.695 496.364 273.865 497.057C273.047 497.75 272.428 498.693 272.007 499.886C271.598 501.08 271.393 502.438 271.393 503.96C271.393 505.483 271.598 506.841 272.007 508.034C272.428 509.227 273.047 510.17 273.865 510.864C274.695 511.545 275.717 511.886 276.933 511.886ZM294.507 517V490.818H301.547V495.386H301.82C302.297 493.761 303.098 492.534 304.223 491.705C305.348 490.864 306.643 490.443 308.109 490.443C308.473 490.443 308.865 490.466 309.286 490.511C309.706 490.557 310.075 490.619 310.393 490.699V497.142C310.053 497.04 309.581 496.949 308.979 496.869C308.376 496.79 307.825 496.75 307.325 496.75C306.257 496.75 305.303 496.983 304.462 497.449C303.632 497.903 302.973 498.54 302.484 499.358C302.007 500.176 301.768 501.119 301.768 502.188V517H294.507ZM320.727 509.466L320.744 500.756H321.801L330.188 490.818H338.523L327.256 503.977H325.534L320.727 509.466ZM314.148 517V482.091H321.409V517H314.148ZM330.511 517L322.807 505.597L327.648 500.466L339.017 517H330.511ZM356.165 490.818V496.273H340.006V490.818H356.165ZM343.705 517V488.926C343.705 487.028 344.074 485.455 344.812 484.205C345.562 482.955 346.585 482.017 347.881 481.392C349.176 480.767 350.648 480.455 352.295 480.455C353.409 480.455 354.426 480.54 355.347 480.71C356.278 480.881 356.972 481.034 357.426 481.17L356.131 486.625C355.847 486.534 355.494 486.449 355.074 486.369C354.665 486.29 354.244 486.25 353.812 486.25C352.744 486.25 352 486.5 351.58 487C351.159 487.489 350.949 488.176 350.949 489.062V517H343.705ZM367.862 482.091V517H360.601V482.091H367.862ZM385.509 517.511C382.861 517.511 380.571 516.949 378.639 515.824C376.719 514.687 375.236 513.108 374.19 511.085C373.145 509.051 372.622 506.693 372.622 504.011C372.622 501.307 373.145 498.943 374.19 496.92C375.236 494.886 376.719 493.307 378.639 492.182C380.571 491.045 382.861 490.477 385.509 490.477C388.156 490.477 390.44 491.045 392.361 492.182C394.293 493.307 395.781 494.886 396.827 496.92C397.872 498.943 398.395 501.307 398.395 504.011C398.395 506.693 397.872 509.051 396.827 511.085C395.781 513.108 394.293 514.687 392.361 515.824C390.44 516.949 388.156 517.511 385.509 517.511ZM385.543 511.886C386.747 511.886 387.753 511.545 388.56 510.864C389.366 510.17 389.974 509.227 390.384 508.034C390.804 506.841 391.014 505.483 391.014 503.96C391.014 502.438 390.804 501.08 390.384 499.886C389.974 498.693 389.366 497.75 388.56 497.057C387.753 496.364 386.747 496.017 385.543 496.017C384.327 496.017 383.304 496.364 382.474 497.057C381.656 497.75 381.037 498.693 380.616 499.886C380.207 501.08 380.003 502.438 380.003 503.96C380.003 505.483 380.207 506.841 380.616 508.034C381.037 509.227 381.656 510.17 382.474 510.864C383.304 511.545 384.327 511.886 385.543 511.886ZM407.625 517L400.5 490.818H407.847L411.903 508.409H412.142L416.369 490.818H423.58L427.875 508.307H428.097L432.085 490.818H439.415L432.307 517H424.619L420.119 500.534H419.795L415.295 517H407.625Z" fill="#312E43"/>
</g>
<defs>
<clipPath id="clip0_3_6612">
<rect width="880" height="900" fill="white"/>
</clipPath>
</defs>
</svg>
