<svg width="18" height="18" viewBox="0 0 18 18" fill="none" xmlns="http://www.w3.org/2000/svg">
<path d="M16.767 6.95817L15.192 6.43317L15.9337 4.94984C16.0088 4.79458 16.034 4.61981 16.0056 4.44965C15.9773 4.27949 15.8968 4.12233 15.7753 3.99984L14.0003 2.22484C13.8772 2.10158 13.7185 2.02001 13.5466 1.99161C13.3747 1.96321 13.1982 1.9894 13.042 2.06651L11.5587 2.80817L11.0337 1.23317C10.9782 1.069 10.873 0.926195 10.7326 0.82463C10.5922 0.723065 10.4236 0.667794 10.2503 0.666507H7.75033C7.57562 0.666056 7.4052 0.720522 7.26314 0.822208C7.12108 0.923894 7.01457 1.06766 6.95866 1.23317L6.43366 2.80817L4.95033 2.06651C4.79507 1.99132 4.6203 1.96618 4.45014 1.99454C4.27998 2.0229 4.12281 2.10337 4.00033 2.22484L2.22533 3.99984C2.10207 4.12298 2.0205 4.28165 1.9921 4.45355C1.9637 4.62545 1.98989 4.80193 2.067 4.95817L2.80866 6.44151L1.23366 6.96651C1.06949 7.02195 0.926683 7.1272 0.825118 7.2676C0.723554 7.40799 0.668282 7.57656 0.666995 7.74984V10.2498C0.666544 10.4245 0.721011 10.595 0.822697 10.737C0.924382 10.8791 1.06814 10.9856 1.23366 11.0415L2.80866 11.5665L2.067 13.0498C1.99181 13.2051 1.96666 13.3799 1.99502 13.55C2.02338 13.7202 2.10385 13.8774 2.22533 13.9998L4.00033 15.7748C4.12347 15.8981 4.28214 15.9797 4.45404 16.0081C4.62594 16.0365 4.80242 16.0103 4.95866 15.9332L6.442 15.1915L6.967 16.7665C7.0229 16.932 7.12941 17.0758 7.27147 17.1775C7.41353 17.2792 7.58396 17.3336 7.75866 17.3332H10.2587C10.4334 17.3336 10.6038 17.2792 10.7459 17.1775C10.8879 17.0758 10.9944 16.932 11.0503 16.7665L11.5753 15.1915L13.0587 15.9332C13.2129 16.0065 13.386 16.0306 13.5544 16.0023C13.7229 15.9739 13.8785 15.8945 14.0003 15.7748L15.7753 13.9998C15.8986 13.8767 15.9802 13.718 16.0086 13.5461C16.037 13.3742 16.0108 13.1977 15.9337 13.0415L15.192 11.5582L16.767 11.0332C16.9312 10.9777 17.074 10.8725 17.1755 10.7321C17.2771 10.5917 17.3324 10.4231 17.3337 10.2498V7.74984C17.3341 7.57514 17.2796 7.40471 17.178 7.26265C17.0763 7.12059 16.9325 7.01408 16.767 6.95817ZM15.667 9.64984L14.667 9.98317C14.437 10.0578 14.2261 10.1815 14.0487 10.3458C13.8713 10.51 13.7318 10.7109 13.6399 10.9345C13.5479 11.1581 13.5057 11.399 13.5161 11.6405C13.5266 11.882 13.5894 12.1184 13.7003 12.3332L14.1753 13.2832L13.2587 14.1998L12.3337 13.6998C12.12 13.5934 11.8859 13.5341 11.6473 13.5259C11.4086 13.5178 11.1711 13.561 10.9506 13.6527C10.7301 13.7443 10.5319 13.8823 10.3694 14.0572C10.2069 14.2321 10.0839 14.4399 10.0087 14.6665L9.67533 15.6665H8.35033L8.01699 14.6665C7.9424 14.4366 7.81868 14.2256 7.65441 14.0482C7.49014 13.8709 7.28925 13.7314 7.06568 13.6394C6.84211 13.5474 6.6012 13.5052 6.35968 13.5156C6.11816 13.5261 5.8818 13.5889 5.667 13.6998L4.717 14.1748L3.80033 13.2582L4.30033 12.3332C4.41124 12.1184 4.4741 11.882 4.48453 11.6405C4.49497 11.399 4.45274 11.1581 4.36078 10.9345C4.26881 10.7109 4.12931 10.51 3.95195 10.3458C3.77459 10.1815 3.56361 10.0578 3.33366 9.98317L2.33366 9.64984V8.34984L3.33366 8.01651C3.56361 7.94192 3.77459 7.81819 3.95195 7.65392C4.12931 7.48965 4.26881 7.28876 4.36078 7.06519C4.45274 6.84162 4.49497 6.60072 4.48453 6.35919C4.4741 6.11767 4.41124 5.88131 4.30033 5.66651L3.82533 4.74151L4.74199 3.82484L5.667 4.29984C5.8818 4.41075 6.11816 4.47361 6.35968 4.48404C6.6012 4.49448 6.84211 4.45225 7.06568 4.36029C7.28925 4.26832 7.49014 4.12882 7.65441 3.95146C7.81868 3.7741 7.9424 3.56313 8.01699 3.33317L8.35033 2.33317H9.65033L9.98366 3.33317C10.0583 3.56313 10.182 3.7741 10.3462 3.95146C10.5105 4.12882 10.7114 4.26832 10.935 4.36029C11.1586 4.45225 11.3995 4.49448 11.641 4.48404C11.8825 4.47361 12.1189 4.41075 12.3337 4.29984L13.2837 3.82484L14.2003 4.74151L13.7003 5.66651C13.5939 5.88021 13.5345 6.1143 13.5264 6.35291C13.5183 6.59153 13.5615 6.82911 13.6532 7.04958C13.7448 7.27004 13.8828 7.46823 14.0577 7.63074C14.2326 7.79325 14.4404 7.91628 14.667 7.99151L15.667 8.32484V9.64984ZM9.00033 5.66651C8.34106 5.66651 7.69659 5.862 7.14843 6.22828C6.60026 6.59455 6.17302 7.11514 5.92073 7.72423C5.66844 8.33332 5.60243 9.00354 5.73104 9.65014C5.85966 10.2967 6.17713 10.8907 6.64331 11.3569C7.10948 11.823 7.70342 12.1405 8.35003 12.2691C8.99663 12.3977 9.66685 12.3317 10.2759 12.0794C10.885 11.8271 11.4056 11.3999 11.7719 10.8517C12.1382 10.3036 12.3337 9.65911 12.3337 8.99984C12.3337 8.11579 11.9825 7.26794 11.3574 6.64282C10.7322 6.0177 9.88438 5.66651 9.00033 5.66651ZM9.00033 10.6665C8.67069 10.6665 8.34846 10.5688 8.07438 10.3856C7.8003 10.2025 7.58667 9.94219 7.46053 9.63765C7.33438 9.3331 7.30138 8.99799 7.36569 8.67469C7.42999 8.35139 7.58873 8.05442 7.82182 7.82133C8.0549 7.58824 8.35188 7.42951 8.67518 7.3652C8.99848 7.30089 9.33359 7.33389 9.63813 7.46004C9.94268 7.58619 10.203 7.79981 10.3861 8.07389C10.5692 8.34797 10.667 8.6702 10.667 8.99984C10.667 9.44187 10.4914 9.86579 10.1788 10.1784C9.86628 10.4909 9.44236 10.6665 9.00033 10.6665Z" fill="#83828E"/>
</svg>
