<svg width="778" height="900" viewBox="0 0 778 900" fill="none" xmlns="http://www.w3.org/2000/svg">
<g clip-path="url(#clip0_3_5047)">
<rect width="778" height="900" fill="#2CCFBC" fill-opacity="0.1"/>
<g opacity="0.5">
<circle cx="166" cy="356" r="4" fill="white"/>
<circle cx="166" cy="374" r="4" fill="white"/>
<circle cx="166" cy="392" r="4" fill="white"/>
<circle cx="166" cy="410" r="4" fill="white"/>
<circle cx="166" cy="428" r="4" fill="white"/>
<circle cx="166" cy="446" r="4" fill="white"/>
<circle cx="166" cy="464" r="4" fill="white"/>
<circle cx="166" cy="482" r="4" fill="white"/>
<circle cx="166" cy="500" r="4" fill="white"/>
<circle cx="166" cy="518" r="4" fill="white"/>
<circle cx="166" cy="536" r="4" fill="white"/>
<circle cx="166" cy="554" r="4" fill="white"/>
<circle cx="166" cy="572" r="4" fill="white"/>
<circle cx="166" cy="590" r="4" fill="white"/>
<circle cx="166" cy="608" r="4" fill="white"/>
<circle cx="166" cy="626" r="4" fill="white"/>
<circle cx="184" cy="356" r="4" fill="white"/>
<circle cx="184" cy="374" r="4" fill="white"/>
<circle cx="184" cy="392" r="4" fill="white"/>
<circle cx="184" cy="410" r="4" fill="white"/>
<circle cx="184" cy="428" r="4" fill="white"/>
<circle cx="184" cy="446" r="4" fill="white"/>
<circle cx="184" cy="464" r="4" fill="white"/>
<circle cx="184" cy="482" r="4" fill="white"/>
<circle cx="184" cy="500" r="4" fill="white"/>
<circle cx="184" cy="518" r="4" fill="white"/>
<circle cx="184" cy="536" r="4" fill="white"/>
<circle cx="184" cy="554" r="4" fill="white"/>
<circle cx="184" cy="572" r="4" fill="white"/>
<circle cx="184" cy="590" r="4" fill="white"/>
<circle cx="184" cy="608" r="4" fill="white"/>
<circle cx="184" cy="626" r="4" fill="white"/>
<circle cx="202" cy="356" r="4" fill="white"/>
<circle cx="202" cy="374" r="4" fill="white"/>
<circle cx="202" cy="392" r="4" fill="white"/>
<circle cx="202" cy="410" r="4" fill="white"/>
<circle cx="202" cy="428" r="4" fill="white"/>
<circle cx="202" cy="446" r="4" fill="white"/>
<circle cx="202" cy="464" r="4" fill="white"/>
<circle cx="202" cy="482" r="4" fill="white"/>
<circle cx="202" cy="500" r="4" fill="white"/>
<circle cx="202" cy="518" r="4" fill="white"/>
<circle cx="202" cy="536" r="4" fill="white"/>
<circle cx="202" cy="554" r="4" fill="white"/>
<circle cx="202" cy="572" r="4" fill="white"/>
<circle cx="202" cy="590" r="4" fill="white"/>
<circle cx="202" cy="608" r="4" fill="white"/>
<circle cx="202" cy="626" r="4" fill="white"/>
<circle cx="220" cy="356" r="4" fill="white"/>
<circle cx="220" cy="374" r="4" fill="white"/>
<circle cx="220" cy="392" r="4" fill="white"/>
<circle cx="220" cy="410" r="4" fill="white"/>
<circle cx="220" cy="428" r="4" fill="white"/>
<circle cx="220" cy="446" r="4" fill="white"/>
<circle cx="220" cy="464" r="4" fill="white"/>
<circle cx="220" cy="482" r="4" fill="white"/>
<circle cx="220" cy="500" r="4" fill="white"/>
<circle cx="220" cy="518" r="4" fill="white"/>
<circle cx="220" cy="536" r="4" fill="white"/>
<circle cx="220" cy="554" r="4" fill="white"/>
<circle cx="220" cy="572" r="4" fill="white"/>
<circle cx="220" cy="590" r="4" fill="white"/>
<circle cx="220" cy="608" r="4" fill="white"/>
<circle cx="220" cy="626" r="4" fill="white"/>
<circle cx="238" cy="356" r="4" fill="white"/>
<circle cx="238" cy="374" r="4" fill="white"/>
<circle cx="238" cy="392" r="4" fill="white"/>
<circle cx="238" cy="410" r="4" fill="white"/>
<circle cx="238" cy="428" r="4" fill="white"/>
<circle cx="238" cy="446" r="4" fill="white"/>
<circle cx="238" cy="464" r="4" fill="white"/>
<circle cx="238" cy="482" r="4" fill="white"/>
<circle cx="238" cy="500" r="4" fill="white"/>
<circle cx="238" cy="518" r="4" fill="white"/>
<circle cx="238" cy="536" r="4" fill="white"/>
<circle cx="238" cy="554" r="4" fill="white"/>
<circle cx="238" cy="572" r="4" fill="white"/>
<circle cx="238" cy="590" r="4" fill="white"/>
<circle cx="238" cy="608" r="4" fill="white"/>
<circle cx="238" cy="626" r="4" fill="white"/>
<circle cx="256" cy="356" r="4" fill="white"/>
<circle cx="256" cy="374" r="4" fill="white"/>
<circle cx="256" cy="392" r="4" fill="white"/>
<circle cx="256" cy="410" r="4" fill="white"/>
<circle cx="256" cy="428" r="4" fill="white"/>
<circle cx="256" cy="446" r="4" fill="white"/>
<circle cx="256" cy="464" r="4" fill="white"/>
<circle cx="256" cy="482" r="4" fill="white"/>
<circle cx="256" cy="500" r="4" fill="white"/>
<circle cx="256" cy="518" r="4" fill="white"/>
<circle cx="256" cy="536" r="4" fill="white"/>
<circle cx="256" cy="554" r="4" fill="white"/>
<circle cx="256" cy="572" r="4" fill="white"/>
<circle cx="256" cy="590" r="4" fill="white"/>
<circle cx="256" cy="608" r="4" fill="white"/>
<circle cx="256" cy="626" r="4" fill="white"/>
<circle cx="274" cy="356" r="4" fill="white"/>
<circle cx="274" cy="374" r="4" fill="white"/>
<circle cx="274" cy="392" r="4" fill="white"/>
<circle cx="274" cy="410" r="4" fill="white"/>
<circle cx="274" cy="428" r="4" fill="white"/>
<circle cx="274" cy="446" r="4" fill="white"/>
<circle cx="274" cy="464" r="4" fill="white"/>
<circle cx="274" cy="482" r="4" fill="white"/>
<circle cx="274" cy="500" r="4" fill="white"/>
<circle cx="274" cy="518" r="4" fill="white"/>
<circle cx="274" cy="536" r="4" fill="white"/>
<circle cx="274" cy="554" r="4" fill="white"/>
<circle cx="274" cy="572" r="4" fill="white"/>
<circle cx="274" cy="590" r="4" fill="white"/>
<circle cx="274" cy="608" r="4" fill="white"/>
<circle cx="274" cy="626" r="4" fill="white"/>
<circle cx="292" cy="356" r="4" fill="white"/>
<circle cx="292" cy="374" r="4" fill="white"/>
<circle cx="292" cy="392" r="4" fill="white"/>
<circle cx="292" cy="410" r="4" fill="white"/>
<circle cx="292" cy="428" r="4" fill="white"/>
<circle cx="292" cy="446" r="4" fill="white"/>
<circle cx="292" cy="464" r="4" fill="white"/>
<circle cx="292" cy="482" r="4" fill="white"/>
<circle cx="292" cy="500" r="4" fill="white"/>
<circle cx="292" cy="518" r="4" fill="white"/>
<circle cx="292" cy="536" r="4" fill="white"/>
<circle cx="292" cy="554" r="4" fill="white"/>
<circle cx="292" cy="572" r="4" fill="white"/>
<circle cx="292" cy="590" r="4" fill="white"/>
<circle cx="292" cy="608" r="4" fill="white"/>
<circle cx="292" cy="626" r="4" fill="white"/>
<circle cx="310" cy="356" r="4" fill="white"/>
<circle cx="310" cy="374" r="4" fill="white"/>
<circle cx="310" cy="392" r="4" fill="white"/>
<circle cx="310" cy="410" r="4" fill="white"/>
<circle cx="310" cy="428" r="4" fill="white"/>
<circle cx="310" cy="446" r="4" fill="white"/>
<circle cx="310" cy="464" r="4" fill="white"/>
<circle cx="310" cy="482" r="4" fill="white"/>
<circle cx="310" cy="500" r="4" fill="white"/>
<circle cx="310" cy="518" r="4" fill="white"/>
<circle cx="310" cy="536" r="4" fill="white"/>
<circle cx="310" cy="554" r="4" fill="white"/>
<circle cx="310" cy="572" r="4" fill="white"/>
<circle cx="310" cy="590" r="4" fill="white"/>
<circle cx="310" cy="608" r="4" fill="white"/>
<circle cx="310" cy="626" r="4" fill="white"/>
<circle cx="328" cy="356" r="4" fill="white"/>
<circle cx="328" cy="374" r="4" fill="white"/>
<circle cx="328" cy="392" r="4" fill="white"/>
<circle cx="328" cy="410" r="4" fill="white"/>
<circle cx="328" cy="428" r="4" fill="white"/>
<circle cx="328" cy="446" r="4" fill="white"/>
<circle cx="328" cy="464" r="4" fill="white"/>
<circle cx="328" cy="482" r="4" fill="white"/>
<circle cx="328" cy="500" r="4" fill="white"/>
<circle cx="328" cy="518" r="4" fill="white"/>
<circle cx="328" cy="536" r="4" fill="white"/>
<circle cx="328" cy="554" r="4" fill="white"/>
<circle cx="328" cy="572" r="4" fill="white"/>
<circle cx="328" cy="590" r="4" fill="white"/>
<circle cx="328" cy="608" r="4" fill="white"/>
<circle cx="328" cy="626" r="4" fill="white"/>
<circle cx="346" cy="356" r="4" fill="white"/>
<circle cx="346" cy="374" r="4" fill="white"/>
<circle cx="346" cy="392" r="4" fill="white"/>
<circle cx="346" cy="410" r="4" fill="white"/>
<circle cx="346" cy="428" r="4" fill="white"/>
<circle cx="346" cy="446" r="4" fill="white"/>
<circle cx="346" cy="464" r="4" fill="white"/>
<circle cx="346" cy="482" r="4" fill="white"/>
<circle cx="346" cy="500" r="4" fill="white"/>
<circle cx="346" cy="518" r="4" fill="white"/>
<circle cx="346" cy="536" r="4" fill="white"/>
<circle cx="346" cy="554" r="4" fill="white"/>
<circle cx="346" cy="572" r="4" fill="white"/>
<circle cx="346" cy="590" r="4" fill="white"/>
<circle cx="346" cy="608" r="4" fill="white"/>
<circle cx="346" cy="626" r="4" fill="white"/>
<circle cx="364" cy="356" r="4" fill="white"/>
<circle cx="364" cy="374" r="4" fill="white"/>
<circle cx="364" cy="392" r="4" fill="white"/>
<circle cx="364" cy="410" r="4" fill="white"/>
<circle cx="364" cy="428" r="4" fill="white"/>
<circle cx="364" cy="446" r="4" fill="white"/>
<circle cx="364" cy="464" r="4" fill="white"/>
<circle cx="364" cy="482" r="4" fill="white"/>
<circle cx="364" cy="500" r="4" fill="white"/>
<circle cx="364" cy="518" r="4" fill="white"/>
<circle cx="364" cy="536" r="4" fill="white"/>
<circle cx="364" cy="554" r="4" fill="white"/>
<circle cx="364" cy="572" r="4" fill="white"/>
<circle cx="364" cy="590" r="4" fill="white"/>
<circle cx="364" cy="608" r="4" fill="white"/>
<circle cx="364" cy="626" r="4" fill="white"/>
<circle cx="382" cy="356" r="4" fill="white"/>
<circle cx="382" cy="374" r="4" fill="white"/>
<circle cx="382" cy="392" r="4" fill="white"/>
<circle cx="382" cy="410" r="4" fill="white"/>
<circle cx="382" cy="428" r="4" fill="white"/>
<circle cx="382" cy="446" r="4" fill="white"/>
<circle cx="382" cy="464" r="4" fill="white"/>
<circle cx="382" cy="482" r="4" fill="white"/>
<circle cx="382" cy="500" r="4" fill="white"/>
<circle cx="382" cy="518" r="4" fill="white"/>
<circle cx="382" cy="536" r="4" fill="white"/>
<circle cx="382" cy="554" r="4" fill="white"/>
<circle cx="382" cy="572" r="4" fill="white"/>
<circle cx="382" cy="590" r="4" fill="white"/>
<circle cx="382" cy="608" r="4" fill="white"/>
<circle cx="382" cy="626" r="4" fill="white"/>
<circle cx="400" cy="356" r="4" fill="white"/>
<circle cx="400" cy="374" r="4" fill="white"/>
<circle cx="400" cy="392" r="4" fill="white"/>
<circle cx="400" cy="410" r="4" fill="white"/>
<circle cx="400" cy="428" r="4" fill="white"/>
<circle cx="400" cy="446" r="4" fill="white"/>
<circle cx="400" cy="464" r="4" fill="white"/>
<circle cx="400" cy="482" r="4" fill="white"/>
<circle cx="400" cy="500" r="4" fill="white"/>
<circle cx="400" cy="518" r="4" fill="white"/>
<circle cx="400" cy="536" r="4" fill="white"/>
<circle cx="400" cy="554" r="4" fill="white"/>
<circle cx="400" cy="572" r="4" fill="white"/>
<circle cx="400" cy="590" r="4" fill="white"/>
<circle cx="400" cy="608" r="4" fill="white"/>
<circle cx="400" cy="626" r="4" fill="white"/>
<circle cx="418" cy="356" r="4" fill="white"/>
<circle cx="418" cy="374" r="4" fill="white"/>
<circle cx="418" cy="392" r="4" fill="white"/>
<circle cx="418" cy="410" r="4" fill="white"/>
<circle cx="418" cy="428" r="4" fill="white"/>
<circle cx="418" cy="446" r="4" fill="white"/>
<circle cx="418" cy="464" r="4" fill="white"/>
<circle cx="418" cy="482" r="4" fill="white"/>
<circle cx="418" cy="500" r="4" fill="white"/>
<circle cx="418" cy="518" r="4" fill="white"/>
<circle cx="418" cy="536" r="4" fill="white"/>
<circle cx="418" cy="554" r="4" fill="white"/>
<circle cx="418" cy="572" r="4" fill="white"/>
<circle cx="418" cy="590" r="4" fill="white"/>
<circle cx="418" cy="608" r="4" fill="white"/>
<circle cx="418" cy="626" r="4" fill="white"/>
<circle cx="436" cy="356" r="4" fill="white"/>
<circle cx="436" cy="374" r="4" fill="white"/>
<circle cx="436" cy="392" r="4" fill="white"/>
<circle cx="436" cy="410" r="4" fill="white"/>
<circle cx="436" cy="428" r="4" fill="white"/>
<circle cx="436" cy="446" r="4" fill="white"/>
<circle cx="436" cy="464" r="4" fill="white"/>
<circle cx="436" cy="482" r="4" fill="white"/>
<circle cx="436" cy="500" r="4" fill="white"/>
<circle cx="436" cy="518" r="4" fill="white"/>
<circle cx="436" cy="536" r="4" fill="white"/>
<circle cx="436" cy="554" r="4" fill="white"/>
<circle cx="436" cy="572" r="4" fill="white"/>
<circle cx="436" cy="590" r="4" fill="white"/>
<circle cx="436" cy="608" r="4" fill="white"/>
<circle cx="436" cy="626" r="4" fill="white"/>
<circle cx="454" cy="356" r="4" fill="white"/>
<circle cx="454" cy="374" r="4" fill="white"/>
<circle cx="454" cy="392" r="4" fill="white"/>
<circle cx="454" cy="410" r="4" fill="white"/>
<circle cx="454" cy="428" r="4" fill="white"/>
<circle cx="454" cy="446" r="4" fill="white"/>
<circle cx="454" cy="464" r="4" fill="white"/>
<circle cx="454" cy="482" r="4" fill="white"/>
<circle cx="454" cy="500" r="4" fill="white"/>
<circle cx="454" cy="518" r="4" fill="white"/>
<circle cx="454" cy="536" r="4" fill="white"/>
<circle cx="454" cy="554" r="4" fill="white"/>
<circle cx="454" cy="572" r="4" fill="white"/>
<circle cx="454" cy="590" r="4" fill="white"/>
<circle cx="454" cy="608" r="4" fill="white"/>
<circle cx="454" cy="626" r="4" fill="white"/>
</g>
<circle cx="73" cy="189" r="107" fill="#CE69FE"/>
<path d="M745.695 803.695C784.27 765.119 784.27 702.576 745.695 664L606 803.695C644.576 842.27 707.119 842.27 745.695 803.695Z" fill="#00C3F9"/>
<rect x="619.67" y="189.167" width="367.229" height="123.74" rx="61.8701" transform="rotate(-135 619.67 189.167)" fill="#F93E6C"/>
<path d="M286.917 758.395C301.788 754.41 315.396 768.018 311.412 782.89L255.824 990.346C251.839 1005.22 233.25 1010.2 222.363 999.312L70.4949 847.443C59.6082 836.557 64.5892 817.967 79.4606 813.983L286.917 758.395Z" fill="#2CCFBC"/>
<path d="M136.182 498.375C135.943 497.545 135.608 496.812 135.176 496.176C134.744 495.528 134.216 494.983 133.591 494.54C132.977 494.085 132.273 493.739 131.477 493.5C130.693 493.261 129.824 493.142 128.869 493.142C127.085 493.142 125.517 493.585 124.165 494.472C122.824 495.358 121.778 496.648 121.028 498.341C120.278 500.023 119.903 502.08 119.903 504.511C119.903 506.943 120.273 509.011 121.011 510.716C121.75 512.42 122.795 513.722 124.148 514.619C125.5 515.506 127.097 515.949 128.938 515.949C130.608 515.949 132.034 515.653 133.216 515.062C134.409 514.46 135.318 513.614 135.943 512.523C136.58 511.432 136.898 510.142 136.898 508.653L138.398 508.875H129.398V503.318H144.006V507.716C144.006 510.784 143.358 513.42 142.062 515.625C140.767 517.818 138.983 519.511 136.71 520.705C134.438 521.886 131.835 522.477 128.903 522.477C125.631 522.477 122.756 521.756 120.278 520.312C117.801 518.858 115.869 516.795 114.483 514.125C113.108 511.443 112.42 508.261 112.42 504.58C112.42 501.75 112.83 499.227 113.648 497.011C114.477 494.784 115.636 492.898 117.125 491.352C118.614 489.807 120.347 488.631 122.324 487.824C124.301 487.017 126.443 486.614 128.75 486.614C130.727 486.614 132.568 486.903 134.273 487.483C135.977 488.051 137.489 488.858 138.807 489.903C140.136 490.949 141.222 492.193 142.062 493.636C142.903 495.068 143.443 496.648 143.682 498.375H136.182ZM161.345 522.511C158.652 522.511 156.334 521.966 154.391 520.875C152.459 519.773 150.97 518.216 149.925 516.205C148.879 514.182 148.357 511.79 148.357 509.028C148.357 506.335 148.879 503.972 149.925 501.938C150.97 499.903 152.442 498.318 154.339 497.182C156.249 496.045 158.487 495.477 161.055 495.477C162.783 495.477 164.391 495.756 165.879 496.312C167.379 496.858 168.686 497.682 169.8 498.784C170.925 499.886 171.8 501.273 172.425 502.943C173.05 504.602 173.362 506.545 173.362 508.773V510.767H151.254V506.267H166.527C166.527 505.222 166.3 504.295 165.845 503.489C165.391 502.682 164.76 502.051 163.953 501.597C163.158 501.131 162.232 500.898 161.175 500.898C160.072 500.898 159.095 501.153 158.243 501.665C157.402 502.165 156.743 502.841 156.266 503.693C155.788 504.534 155.544 505.472 155.533 506.506V510.784C155.533 512.08 155.771 513.199 156.249 514.142C156.737 515.085 157.425 515.812 158.311 516.324C159.197 516.835 160.249 517.091 161.464 517.091C162.271 517.091 163.01 516.977 163.68 516.75C164.351 516.523 164.925 516.182 165.402 515.727C165.879 515.273 166.243 514.716 166.493 514.057L173.209 514.5C172.868 516.114 172.169 517.523 171.112 518.727C170.067 519.92 168.714 520.852 167.055 521.523C165.408 522.182 163.504 522.511 161.345 522.511ZM192.027 495.818V501.273H176.26V495.818H192.027ZM179.839 489.545H187.101V513.955C187.101 514.625 187.203 515.148 187.408 515.523C187.612 515.886 187.896 516.142 188.26 516.29C188.635 516.437 189.067 516.511 189.555 516.511C189.896 516.511 190.237 516.483 190.578 516.426C190.919 516.358 191.18 516.307 191.362 516.273L192.504 521.676C192.141 521.79 191.629 521.92 190.97 522.068C190.311 522.227 189.51 522.324 188.567 522.358C186.817 522.426 185.283 522.193 183.964 521.659C182.658 521.125 181.641 520.295 180.913 519.17C180.186 518.045 179.828 516.625 179.839 514.909V489.545ZM229.651 503.284L223.003 503.693C222.889 503.125 222.645 502.614 222.27 502.159C221.895 501.693 221.401 501.324 220.787 501.051C220.185 500.767 219.463 500.625 218.622 500.625C217.497 500.625 216.548 500.864 215.776 501.341C215.003 501.807 214.616 502.432 214.616 503.216C214.616 503.841 214.866 504.369 215.366 504.801C215.866 505.233 216.724 505.58 217.94 505.841L222.679 506.795C225.224 507.318 227.122 508.159 228.372 509.318C229.622 510.477 230.247 512 230.247 513.886C230.247 515.602 229.741 517.108 228.73 518.403C227.73 519.699 226.355 520.71 224.605 521.438C222.866 522.153 220.861 522.511 218.588 522.511C215.122 522.511 212.361 521.79 210.304 520.347C208.259 518.892 207.06 516.915 206.707 514.415L213.849 514.04C214.065 515.097 214.588 515.903 215.418 516.46C216.247 517.006 217.31 517.278 218.605 517.278C219.878 517.278 220.901 517.034 221.673 516.545C222.457 516.045 222.855 515.403 222.866 514.619C222.855 513.96 222.577 513.42 222.031 513C221.486 512.568 220.645 512.239 219.509 512.011L214.974 511.108C212.418 510.597 210.514 509.71 209.264 508.449C208.026 507.187 207.406 505.58 207.406 503.625C207.406 501.943 207.861 500.494 208.77 499.278C209.69 498.062 210.98 497.125 212.639 496.466C214.31 495.807 216.264 495.477 218.503 495.477C221.81 495.477 224.412 496.176 226.31 497.574C228.219 498.972 229.332 500.875 229.651 503.284ZM248.746 495.818V501.273H232.979V495.818H248.746ZM236.558 489.545H243.82V513.955C243.82 514.625 243.922 515.148 244.126 515.523C244.331 515.886 244.615 516.142 244.979 516.29C245.354 516.437 245.786 516.511 246.274 516.511C246.615 516.511 246.956 516.483 247.297 516.426C247.638 516.358 247.899 516.307 248.081 516.273L249.223 521.676C248.859 521.79 248.348 521.92 247.689 522.068C247.03 522.227 246.229 522.324 245.286 522.358C243.536 522.426 242.001 522.193 240.683 521.659C239.376 521.125 238.359 520.295 237.632 519.17C236.905 518.045 236.547 516.625 236.558 514.909V489.545ZM260.942 522.494C259.271 522.494 257.783 522.205 256.476 521.625C255.169 521.034 254.135 520.165 253.374 519.017C252.624 517.858 252.249 516.415 252.249 514.688C252.249 513.233 252.516 512.011 253.05 511.023C253.584 510.034 254.311 509.239 255.232 508.636C256.152 508.034 257.197 507.58 258.368 507.273C259.55 506.966 260.788 506.75 262.084 506.625C263.607 506.466 264.834 506.318 265.766 506.182C266.697 506.034 267.374 505.818 267.794 505.534C268.214 505.25 268.425 504.83 268.425 504.273V504.17C268.425 503.091 268.084 502.256 267.402 501.665C266.732 501.074 265.777 500.778 264.538 500.778C263.232 500.778 262.192 501.068 261.419 501.648C260.646 502.216 260.135 502.932 259.885 503.795L253.169 503.25C253.51 501.659 254.18 500.284 255.18 499.125C256.18 497.955 257.47 497.057 259.05 496.432C260.641 495.795 262.482 495.477 264.572 495.477C266.027 495.477 267.419 495.648 268.749 495.989C270.089 496.33 271.277 496.858 272.311 497.574C273.357 498.29 274.18 499.21 274.783 500.335C275.385 501.449 275.686 502.784 275.686 504.341V522H268.8V518.369H268.595C268.175 519.188 267.612 519.909 266.908 520.534C266.203 521.148 265.357 521.631 264.368 521.983C263.379 522.324 262.237 522.494 260.942 522.494ZM263.021 517.483C264.089 517.483 265.033 517.273 265.851 516.852C266.669 516.42 267.311 515.841 267.777 515.114C268.243 514.386 268.476 513.562 268.476 512.642V509.864C268.249 510.011 267.936 510.148 267.538 510.273C267.152 510.386 266.714 510.494 266.226 510.597C265.737 510.687 265.249 510.773 264.76 510.852C264.271 510.92 263.828 510.983 263.43 511.04C262.578 511.165 261.834 511.364 261.197 511.636C260.561 511.909 260.067 512.278 259.714 512.744C259.362 513.199 259.186 513.767 259.186 514.449C259.186 515.438 259.544 516.193 260.26 516.716C260.987 517.227 261.908 517.483 263.021 517.483ZM281.32 522V495.818H288.359V500.386H288.632C289.109 498.761 289.911 497.534 291.036 496.705C292.161 495.864 293.456 495.443 294.922 495.443C295.286 495.443 295.678 495.466 296.098 495.511C296.518 495.557 296.888 495.619 297.206 495.699V502.142C296.865 502.04 296.393 501.949 295.791 501.869C295.189 501.79 294.638 501.75 294.138 501.75C293.07 501.75 292.115 501.983 291.274 502.449C290.445 502.903 289.786 503.54 289.297 504.358C288.82 505.176 288.581 506.119 288.581 507.188V522H281.32ZM316.199 495.818V501.273H300.432V495.818H316.199ZM304.011 489.545H311.273V513.955C311.273 514.625 311.375 515.148 311.58 515.523C311.784 515.886 312.068 516.142 312.432 516.29C312.807 516.437 313.239 516.511 313.727 516.511C314.068 516.511 314.409 516.483 314.75 516.426C315.091 516.358 315.352 516.307 315.534 516.273L316.676 521.676C316.313 521.79 315.801 521.92 315.142 522.068C314.483 522.227 313.682 522.324 312.739 522.358C310.989 522.426 309.455 522.193 308.136 521.659C306.83 521.125 305.813 520.295 305.085 519.17C304.358 518.045 304 516.625 304.011 514.909V489.545ZM332.58 522.511C329.886 522.511 327.568 521.966 325.625 520.875C323.693 519.773 322.205 518.216 321.159 516.205C320.114 514.182 319.591 511.79 319.591 509.028C319.591 506.335 320.114 503.972 321.159 501.938C322.205 499.903 323.676 498.318 325.574 497.182C327.483 496.045 329.722 495.477 332.29 495.477C334.017 495.477 335.625 495.756 337.114 496.312C338.614 496.858 339.92 497.682 341.034 498.784C342.159 499.886 343.034 501.273 343.659 502.943C344.284 504.602 344.597 506.545 344.597 508.773V510.767H322.489V506.267H337.761C337.761 505.222 337.534 504.295 337.08 503.489C336.625 502.682 335.994 502.051 335.188 501.597C334.392 501.131 333.466 500.898 332.409 500.898C331.307 500.898 330.33 501.153 329.477 501.665C328.636 502.165 327.977 502.841 327.5 503.693C327.023 504.534 326.778 505.472 326.767 506.506V510.784C326.767 512.08 327.006 513.199 327.483 514.142C327.972 515.085 328.659 515.812 329.545 516.324C330.432 516.835 331.483 517.091 332.699 517.091C333.506 517.091 334.244 516.977 334.915 516.75C335.585 516.523 336.159 516.182 336.636 515.727C337.114 515.273 337.477 514.716 337.727 514.057L344.443 514.5C344.102 516.114 343.403 517.523 342.347 518.727C341.301 519.92 339.949 520.852 338.29 521.523C336.642 522.182 334.739 522.511 332.58 522.511ZM358.983 522.426C356.994 522.426 355.193 521.915 353.58 520.892C351.977 519.858 350.705 518.341 349.761 516.341C348.83 514.33 348.364 511.864 348.364 508.943C348.364 505.943 348.847 503.449 349.812 501.46C350.778 499.46 352.063 497.966 353.665 496.977C355.278 495.977 357.045 495.477 358.966 495.477C360.432 495.477 361.653 495.727 362.631 496.227C363.619 496.716 364.415 497.33 365.017 498.068C365.631 498.795 366.097 499.511 366.415 500.216H366.636V487.091H373.881V522H366.722V517.807H366.415C366.074 518.534 365.591 519.256 364.966 519.972C364.352 520.676 363.551 521.261 362.562 521.727C361.585 522.193 360.392 522.426 358.983 522.426ZM361.284 516.648C362.455 516.648 363.443 516.33 364.25 515.693C365.068 515.045 365.693 514.142 366.125 512.983C366.568 511.824 366.79 510.466 366.79 508.909C366.79 507.352 366.574 506 366.142 504.852C365.71 503.705 365.085 502.818 364.267 502.193C363.449 501.568 362.455 501.256 361.284 501.256C360.091 501.256 359.085 501.58 358.267 502.227C357.449 502.875 356.83 503.773 356.409 504.92C355.989 506.068 355.778 507.398 355.778 508.909C355.778 510.432 355.989 511.778 356.409 512.949C356.841 514.108 357.46 515.017 358.267 515.676C359.085 516.324 360.091 516.648 361.284 516.648ZM396.125 522L389 495.818H396.347L400.403 513.409H400.642L404.869 495.818H412.08L416.375 513.307H416.597L420.585 495.818H427.915L420.807 522H413.119L408.619 505.534H408.295L403.795 522H396.125ZM431.788 522V495.818H439.05V522H431.788ZM435.436 492.443C434.357 492.443 433.43 492.085 432.658 491.369C431.896 490.642 431.516 489.773 431.516 488.761C431.516 487.761 431.896 486.903 432.658 486.188C433.43 485.46 434.357 485.097 435.436 485.097C436.516 485.097 437.436 485.46 438.197 486.188C438.97 486.903 439.357 487.761 439.357 488.761C439.357 489.773 438.97 490.642 438.197 491.369C437.436 492.085 436.516 492.443 435.436 492.443ZM458.793 495.818V501.273H443.026V495.818H458.793ZM446.605 489.545H453.866V513.955C453.866 514.625 453.969 515.148 454.173 515.523C454.378 515.886 454.662 516.142 455.026 516.29C455.401 516.437 455.832 516.511 456.321 516.511C456.662 516.511 457.003 516.483 457.344 516.426C457.685 516.358 457.946 516.307 458.128 516.273L459.27 521.676C458.906 521.79 458.395 521.92 457.736 522.068C457.077 522.227 456.276 522.324 455.332 522.358C453.582 522.426 452.048 522.193 450.73 521.659C449.423 521.125 448.406 520.295 447.679 519.17C446.952 518.045 446.594 516.625 446.605 514.909V489.545ZM471.347 506.864V522H464.085V487.091H471.142V500.438H471.449C472.04 498.892 472.994 497.682 474.312 496.807C475.631 495.92 477.284 495.477 479.273 495.477C481.091 495.477 482.676 495.875 484.028 496.67C485.392 497.455 486.449 498.585 487.199 500.062C487.96 501.528 488.335 503.284 488.324 505.33V522H481.062V506.625C481.074 505.011 480.665 503.756 479.835 502.858C479.017 501.96 477.869 501.511 476.392 501.511C475.403 501.511 474.528 501.722 473.767 502.142C473.017 502.562 472.426 503.176 471.994 503.983C471.574 504.778 471.358 505.739 471.347 506.864ZM536.085 499.312H528.619C528.483 498.347 528.205 497.489 527.784 496.739C527.364 495.977 526.824 495.33 526.165 494.795C525.506 494.261 524.744 493.852 523.881 493.568C523.028 493.284 522.102 493.142 521.102 493.142C519.295 493.142 517.722 493.591 516.381 494.489C515.04 495.375 514 496.67 513.261 498.375C512.523 500.068 512.153 502.125 512.153 504.545C512.153 507.034 512.523 509.125 513.261 510.818C514.011 512.511 515.057 513.79 516.398 514.653C517.739 515.517 519.29 515.949 521.051 515.949C522.04 515.949 522.955 515.818 523.795 515.557C524.648 515.295 525.403 514.915 526.062 514.415C526.722 513.903 527.267 513.284 527.699 512.557C528.142 511.83 528.449 511 528.619 510.068L536.085 510.102C535.892 511.705 535.409 513.25 534.636 514.739C533.875 516.216 532.847 517.54 531.551 518.71C530.267 519.869 528.733 520.79 526.949 521.472C525.176 522.142 523.17 522.477 520.932 522.477C517.818 522.477 515.034 521.773 512.58 520.364C510.136 518.955 508.205 516.915 506.784 514.244C505.375 511.574 504.67 508.341 504.67 504.545C504.67 500.739 505.386 497.5 506.818 494.83C508.25 492.159 510.193 490.125 512.648 488.727C515.102 487.318 517.864 486.614 520.932 486.614C522.955 486.614 524.83 486.898 526.557 487.466C528.295 488.034 529.835 488.864 531.176 489.955C532.517 491.034 533.608 492.358 534.449 493.926C535.301 495.494 535.847 497.29 536.085 499.312ZM553.071 522.511C550.423 522.511 548.134 521.949 546.202 520.824C544.281 519.687 542.798 518.108 541.753 516.085C540.707 514.051 540.185 511.693 540.185 509.011C540.185 506.307 540.707 503.943 541.753 501.92C542.798 499.886 544.281 498.307 546.202 497.182C548.134 496.045 550.423 495.477 553.071 495.477C555.719 495.477 558.003 496.045 559.923 497.182C561.855 498.307 563.344 499.886 564.389 501.92C565.435 503.943 565.957 506.307 565.957 509.011C565.957 511.693 565.435 514.051 564.389 516.085C563.344 518.108 561.855 519.687 559.923 520.824C558.003 521.949 555.719 522.511 553.071 522.511ZM553.105 516.886C554.31 516.886 555.315 516.545 556.122 515.864C556.929 515.17 557.537 514.227 557.946 513.034C558.366 511.841 558.577 510.483 558.577 508.96C558.577 507.438 558.366 506.08 557.946 504.886C557.537 503.693 556.929 502.75 556.122 502.057C555.315 501.364 554.31 501.017 553.105 501.017C551.889 501.017 550.866 501.364 550.037 502.057C549.219 502.75 548.599 503.693 548.179 504.886C547.77 506.08 547.565 507.438 547.565 508.96C547.565 510.483 547.77 511.841 548.179 513.034C548.599 514.227 549.219 515.17 550.037 515.864C550.866 516.545 551.889 516.886 553.105 516.886ZM570.679 522V495.818H577.719V500.386H577.991C578.469 498.761 579.27 497.534 580.395 496.705C581.52 495.864 582.815 495.443 584.281 495.443C584.645 495.443 585.037 495.466 585.457 495.511C585.878 495.557 586.247 495.619 586.565 495.699V502.142C586.224 502.04 585.753 501.949 585.151 501.869C584.548 501.79 583.997 501.75 583.497 501.75C582.429 501.75 581.474 501.983 580.634 502.449C579.804 502.903 579.145 503.54 578.656 504.358C578.179 505.176 577.94 506.119 577.94 507.188V522H570.679ZM597.036 522.494C595.365 522.494 593.876 522.205 592.57 521.625C591.263 521.034 590.229 520.165 589.467 519.017C588.717 517.858 588.342 516.415 588.342 514.688C588.342 513.233 588.609 512.011 589.143 511.023C589.678 510.034 590.405 509.239 591.325 508.636C592.246 508.034 593.291 507.58 594.462 507.273C595.643 506.966 596.882 506.75 598.178 506.625C599.7 506.466 600.928 506.318 601.859 506.182C602.791 506.034 603.467 505.818 603.888 505.534C604.308 505.25 604.518 504.83 604.518 504.273V504.17C604.518 503.091 604.178 502.256 603.496 501.665C602.825 501.074 601.871 500.778 600.632 500.778C599.325 500.778 598.286 501.068 597.513 501.648C596.74 502.216 596.229 502.932 595.979 503.795L589.263 503.25C589.604 501.659 590.274 500.284 591.274 499.125C592.274 497.955 593.564 497.057 595.143 496.432C596.734 495.795 598.575 495.477 600.666 495.477C602.121 495.477 603.513 495.648 604.842 495.989C606.183 496.33 607.371 496.858 608.405 497.574C609.45 498.29 610.274 499.21 610.876 500.335C611.479 501.449 611.78 502.784 611.78 504.341V522H604.893V518.369H604.689C604.268 519.188 603.706 519.909 603.001 520.534C602.297 521.148 601.45 521.631 600.462 521.983C599.473 522.324 598.331 522.494 597.036 522.494ZM599.115 517.483C600.183 517.483 601.126 517.273 601.945 516.852C602.763 516.42 603.405 515.841 603.871 515.114C604.337 514.386 604.57 513.562 604.57 512.642V509.864C604.342 510.011 604.03 510.148 603.632 510.273C603.246 510.386 602.808 510.494 602.32 510.597C601.831 510.687 601.342 510.773 600.854 510.852C600.365 510.92 599.922 510.983 599.524 511.04C598.672 511.165 597.928 511.364 597.291 511.636C596.655 511.909 596.161 512.278 595.808 512.744C595.456 513.199 595.28 513.767 595.28 514.449C595.28 515.438 595.638 516.193 596.354 516.716C597.081 517.227 598.001 517.483 599.115 517.483ZM624.675 487.091V522H617.413V487.091H624.675ZM634.974 531.818C634.054 531.818 633.19 531.744 632.384 531.597C631.588 531.46 630.929 531.284 630.406 531.068L632.043 525.648C632.895 525.909 633.662 526.051 634.344 526.074C635.037 526.097 635.634 525.938 636.134 525.597C636.645 525.256 637.06 524.676 637.378 523.858L637.804 522.75L628.412 495.818H636.048L641.469 515.045H641.741L647.213 495.818H654.901L644.724 524.83C644.236 526.239 643.571 527.466 642.73 528.511C641.901 529.568 640.849 530.381 639.577 530.949C638.304 531.528 636.77 531.818 634.974 531.818ZM120.159 578.864V594H112.898V567.818H119.818V572.438H120.125C120.705 570.915 121.676 569.71 123.04 568.824C124.403 567.926 126.057 567.477 128 567.477C129.818 567.477 131.403 567.875 132.756 568.67C134.108 569.466 135.159 570.602 135.909 572.08C136.659 573.545 137.034 575.295 137.034 577.33V594H129.773V578.625C129.784 577.023 129.375 575.773 128.545 574.875C127.716 573.966 126.574 573.511 125.119 573.511C124.142 573.511 123.278 573.722 122.528 574.142C121.79 574.562 121.21 575.176 120.79 575.983C120.381 576.778 120.17 577.739 120.159 578.864ZM154.587 594.511C151.939 594.511 149.649 593.949 147.717 592.824C145.797 591.687 144.314 590.108 143.268 588.085C142.223 586.051 141.7 583.693 141.7 581.011C141.7 578.307 142.223 575.943 143.268 573.92C144.314 571.886 145.797 570.307 147.717 569.182C149.649 568.045 151.939 567.477 154.587 567.477C157.234 567.477 159.518 568.045 161.439 569.182C163.371 570.307 164.859 571.886 165.905 573.92C166.95 575.943 167.473 578.307 167.473 581.011C167.473 583.693 166.95 586.051 165.905 588.085C164.859 590.108 163.371 591.687 161.439 592.824C159.518 593.949 157.234 594.511 154.587 594.511ZM154.621 588.886C155.825 588.886 156.831 588.545 157.638 587.864C158.445 587.17 159.053 586.227 159.462 585.034C159.882 583.841 160.092 582.483 160.092 580.96C160.092 579.438 159.882 578.08 159.462 576.886C159.053 575.693 158.445 574.75 157.638 574.057C156.831 573.364 155.825 573.017 154.621 573.017C153.405 573.017 152.382 573.364 151.553 574.057C150.734 574.75 150.115 575.693 149.695 576.886C149.286 578.08 149.081 579.438 149.081 580.96C149.081 582.483 149.286 583.841 149.695 585.034C150.115 586.227 150.734 587.17 151.553 587.864C152.382 588.545 153.405 588.886 154.621 588.886ZM176.703 594L169.578 567.818H176.925L180.982 585.409H181.22L185.447 567.818H192.658L196.953 585.307H197.175L201.163 567.818H208.493L201.385 594H193.697L189.197 577.534H188.874L184.374 594H176.703ZM230.942 594.494C229.271 594.494 227.783 594.205 226.476 593.625C225.169 593.034 224.135 592.165 223.374 591.017C222.624 589.858 222.249 588.415 222.249 586.688C222.249 585.233 222.516 584.011 223.05 583.023C223.584 582.034 224.311 581.239 225.232 580.636C226.152 580.034 227.197 579.58 228.368 579.273C229.55 578.966 230.788 578.75 232.084 578.625C233.607 578.466 234.834 578.318 235.766 578.182C236.697 578.034 237.374 577.818 237.794 577.534C238.214 577.25 238.425 576.83 238.425 576.273V576.17C238.425 575.091 238.084 574.256 237.402 573.665C236.732 573.074 235.777 572.778 234.538 572.778C233.232 572.778 232.192 573.068 231.419 573.648C230.646 574.216 230.135 574.932 229.885 575.795L223.169 575.25C223.51 573.659 224.18 572.284 225.18 571.125C226.18 569.955 227.47 569.057 229.05 568.432C230.641 567.795 232.482 567.477 234.572 567.477C236.027 567.477 237.419 567.648 238.749 567.989C240.089 568.33 241.277 568.858 242.311 569.574C243.357 570.29 244.18 571.21 244.783 572.335C245.385 573.449 245.686 574.784 245.686 576.341V594H238.8V590.369H238.595C238.175 591.188 237.612 591.909 236.908 592.534C236.203 593.148 235.357 593.631 234.368 593.983C233.379 594.324 232.237 594.494 230.942 594.494ZM233.021 589.483C234.089 589.483 235.033 589.273 235.851 588.852C236.669 588.42 237.311 587.841 237.777 587.114C238.243 586.386 238.476 585.562 238.476 584.642V581.864C238.249 582.011 237.936 582.148 237.538 582.273C237.152 582.386 236.714 582.494 236.226 582.597C235.737 582.687 235.249 582.773 234.76 582.852C234.271 582.92 233.828 582.983 233.43 583.04C232.578 583.165 231.834 583.364 231.197 583.636C230.561 583.909 230.067 584.278 229.714 584.744C229.362 585.199 229.186 585.767 229.186 586.449C229.186 587.438 229.544 588.193 230.26 588.716C230.987 589.227 231.908 589.483 233.021 589.483ZM258.581 578.864V594H251.32V567.818H258.24V572.438H258.547C259.126 570.915 260.098 569.71 261.462 568.824C262.825 567.926 264.479 567.477 266.422 567.477C268.24 567.477 269.825 567.875 271.178 568.67C272.53 569.466 273.581 570.602 274.331 572.08C275.081 573.545 275.456 575.295 275.456 577.33V594H268.195V578.625C268.206 577.023 267.797 575.773 266.967 574.875C266.138 573.966 264.996 573.511 263.541 573.511C262.564 573.511 261.7 573.722 260.95 574.142C260.212 574.562 259.632 575.176 259.212 575.983C258.803 576.778 258.592 577.739 258.581 578.864ZM290.827 594.426C288.838 594.426 287.037 593.915 285.423 592.892C283.821 591.858 282.548 590.341 281.605 588.341C280.673 586.33 280.207 583.864 280.207 580.943C280.207 577.943 280.69 575.449 281.656 573.46C282.622 571.46 283.906 569.966 285.509 568.977C287.122 567.977 288.889 567.477 290.81 567.477C292.276 567.477 293.497 567.727 294.474 568.227C295.463 568.716 296.259 569.33 296.861 570.068C297.474 570.795 297.94 571.511 298.259 572.216H298.48V559.091H305.724V594H298.565V589.807H298.259C297.918 590.534 297.435 591.256 296.81 591.972C296.196 592.676 295.395 593.261 294.406 593.727C293.429 594.193 292.236 594.426 290.827 594.426ZM293.128 588.648C294.298 588.648 295.287 588.33 296.094 587.693C296.912 587.045 297.537 586.142 297.969 584.983C298.412 583.824 298.634 582.466 298.634 580.909C298.634 579.352 298.418 578 297.986 576.852C297.554 575.705 296.929 574.818 296.111 574.193C295.293 573.568 294.298 573.256 293.128 573.256C291.935 573.256 290.929 573.58 290.111 574.227C289.293 574.875 288.673 575.773 288.253 576.92C287.832 578.068 287.622 579.398 287.622 580.909C287.622 582.432 287.832 583.778 288.253 584.949C288.685 586.108 289.304 587.017 290.111 587.676C290.929 588.324 291.935 588.648 293.128 588.648ZM322.804 594V567.818H330.065V594H322.804ZM326.452 564.443C325.372 564.443 324.446 564.085 323.673 563.369C322.912 562.642 322.531 561.773 322.531 560.761C322.531 559.761 322.912 558.903 323.673 558.188C324.446 557.46 325.372 557.097 326.452 557.097C327.531 557.097 328.452 557.46 329.213 558.188C329.986 558.903 330.372 559.761 330.372 560.761C330.372 561.773 329.986 562.642 329.213 563.369C328.452 564.085 327.531 564.443 326.452 564.443ZM335.882 594V567.818H342.803V572.438H343.109C343.655 570.903 344.564 569.693 345.837 568.807C347.109 567.92 348.632 567.477 350.405 567.477C352.2 567.477 353.729 567.926 354.99 568.824C356.251 569.71 357.092 570.915 357.513 572.438H357.786C358.32 570.938 359.286 569.739 360.683 568.841C362.092 567.932 363.757 567.477 365.678 567.477C368.121 567.477 370.104 568.256 371.626 569.812C373.161 571.358 373.928 573.551 373.928 576.392V594H366.683V577.824C366.683 576.369 366.297 575.278 365.524 574.551C364.751 573.824 363.786 573.46 362.626 573.46C361.308 573.46 360.28 573.881 359.541 574.722C358.803 575.551 358.433 576.648 358.433 578.011V594H351.393V577.67C351.393 576.386 351.024 575.364 350.286 574.602C349.558 573.841 348.598 573.46 347.405 573.46C346.598 573.46 345.871 573.665 345.223 574.074C344.587 574.472 344.081 575.034 343.706 575.761C343.331 576.477 343.143 577.318 343.143 578.284V594H335.882ZM379.663 603.818V567.818H386.822V572.216H387.146C387.464 571.511 387.925 570.795 388.527 570.068C389.141 569.33 389.936 568.716 390.913 568.227C391.902 567.727 393.129 567.477 394.595 567.477C396.504 567.477 398.266 567.977 399.879 568.977C401.493 569.966 402.783 571.46 403.749 573.46C404.714 575.449 405.197 577.943 405.197 580.943C405.197 583.864 404.726 586.33 403.783 588.341C402.851 590.341 401.578 591.858 399.964 592.892C398.362 593.915 396.567 594.426 394.578 594.426C393.169 594.426 391.97 594.193 390.982 593.727C390.004 593.261 389.203 592.676 388.578 591.972C387.953 591.256 387.476 590.534 387.146 589.807H386.925V603.818H379.663ZM386.771 580.909C386.771 582.466 386.987 583.824 387.419 584.983C387.851 586.142 388.476 587.045 389.294 587.693C390.112 588.33 391.107 588.648 392.277 588.648C393.459 588.648 394.459 588.324 395.277 587.676C396.095 587.017 396.714 586.108 397.135 584.949C397.567 583.778 397.783 582.432 397.783 580.909C397.783 579.398 397.572 578.068 397.152 576.92C396.732 575.773 396.112 574.875 395.294 574.227C394.476 573.58 393.47 573.256 392.277 573.256C391.095 573.256 390.095 573.568 389.277 574.193C388.47 574.818 387.851 575.705 387.419 576.852C386.987 578 386.771 579.352 386.771 580.909ZM410.038 594V567.818H417.078V572.386H417.351C417.828 570.761 418.629 569.534 419.754 568.705C420.879 567.864 422.175 567.443 423.641 567.443C424.004 567.443 424.396 567.466 424.817 567.511C425.237 567.557 425.607 567.619 425.925 567.699V574.142C425.584 574.04 425.112 573.949 424.51 573.869C423.908 573.79 423.357 573.75 422.857 573.75C421.788 573.75 420.834 573.983 419.993 574.449C419.163 574.903 418.504 575.54 418.016 576.358C417.538 577.176 417.3 578.119 417.3 579.188V594H410.038ZM440.29 594.511C437.642 594.511 435.352 593.949 433.42 592.824C431.5 591.687 430.017 590.108 428.972 588.085C427.926 586.051 427.403 583.693 427.403 581.011C427.403 578.307 427.926 575.943 428.972 573.92C430.017 571.886 431.5 570.307 433.42 569.182C435.352 568.045 437.642 567.477 440.29 567.477C442.938 567.477 445.222 568.045 447.142 569.182C449.074 570.307 450.562 571.886 451.608 573.92C452.653 575.943 453.176 578.307 453.176 581.011C453.176 583.693 452.653 586.051 451.608 588.085C450.562 590.108 449.074 591.687 447.142 592.824C445.222 593.949 442.938 594.511 440.29 594.511ZM440.324 588.886C441.528 588.886 442.534 588.545 443.341 587.864C444.148 587.17 444.756 586.227 445.165 585.034C445.585 583.841 445.795 582.483 445.795 580.96C445.795 579.438 445.585 578.08 445.165 576.886C444.756 575.693 444.148 574.75 443.341 574.057C442.534 573.364 441.528 573.017 440.324 573.017C439.108 573.017 438.085 573.364 437.256 574.057C436.438 574.75 435.818 575.693 435.398 576.886C434.989 578.08 434.784 579.438 434.784 580.96C434.784 582.483 434.989 583.841 435.398 585.034C435.818 586.227 436.438 587.17 437.256 587.864C438.085 588.545 439.108 588.886 440.324 588.886ZM481.463 567.818L472.31 594H464.128L454.974 567.818H462.645L468.082 586.551H468.355L473.776 567.818H481.463ZM496.267 594.511C493.574 594.511 491.256 593.966 489.312 592.875C487.381 591.773 485.892 590.216 484.847 588.205C483.801 586.182 483.278 583.79 483.278 581.028C483.278 578.335 483.801 575.972 484.847 573.938C485.892 571.903 487.364 570.318 489.261 569.182C491.17 568.045 493.409 567.477 495.977 567.477C497.705 567.477 499.313 567.756 500.801 568.312C502.301 568.858 503.608 569.682 504.722 570.784C505.847 571.886 506.722 573.273 507.347 574.943C507.972 576.602 508.284 578.545 508.284 580.773V582.767H486.176V578.267H501.449C501.449 577.222 501.222 576.295 500.767 575.489C500.313 574.682 499.682 574.051 498.875 573.597C498.08 573.131 497.153 572.898 496.097 572.898C494.994 572.898 494.017 573.153 493.165 573.665C492.324 574.165 491.665 574.841 491.188 575.693C490.71 576.534 490.466 577.472 490.455 578.506V582.784C490.455 584.08 490.693 585.199 491.17 586.142C491.659 587.085 492.347 587.812 493.233 588.324C494.119 588.835 495.17 589.091 496.386 589.091C497.193 589.091 497.932 588.977 498.602 588.75C499.273 588.523 499.847 588.182 500.324 587.727C500.801 587.273 501.165 586.716 501.415 586.057L508.131 586.5C507.79 588.114 507.091 589.523 506.034 590.727C504.989 591.92 503.636 592.852 501.977 593.523C500.33 594.182 498.426 594.511 496.267 594.511ZM528.615 603.818C527.695 603.818 526.831 603.744 526.024 603.597C525.229 603.46 524.57 603.284 524.047 603.068L525.683 597.648C526.536 597.909 527.303 598.051 527.984 598.074C528.678 598.097 529.274 597.938 529.774 597.597C530.286 597.256 530.7 596.676 531.018 595.858L531.445 594.75L522.053 567.818H529.689L535.109 587.045H535.382L540.854 567.818H548.541L538.365 596.83C537.876 598.239 537.212 599.466 536.371 600.511C535.541 601.568 534.49 602.381 533.217 602.949C531.945 603.528 530.411 603.818 528.615 603.818ZM563.243 594.511C560.595 594.511 558.305 593.949 556.374 592.824C554.453 591.687 552.97 590.108 551.925 588.085C550.879 586.051 550.357 583.693 550.357 581.011C550.357 578.307 550.879 575.943 551.925 573.92C552.97 571.886 554.453 570.307 556.374 569.182C558.305 568.045 560.595 567.477 563.243 567.477C565.891 567.477 568.175 568.045 570.095 569.182C572.027 570.307 573.516 571.886 574.561 573.92C575.607 575.943 576.129 578.307 576.129 581.011C576.129 583.693 575.607 586.051 574.561 588.085C573.516 590.108 572.027 591.687 570.095 592.824C568.175 593.949 565.891 594.511 563.243 594.511ZM563.277 588.886C564.482 588.886 565.487 588.545 566.294 587.864C567.101 587.17 567.709 586.227 568.118 585.034C568.538 583.841 568.749 582.483 568.749 580.96C568.749 579.438 568.538 578.08 568.118 576.886C567.709 575.693 567.101 574.75 566.294 574.057C565.487 573.364 564.482 573.017 563.277 573.017C562.061 573.017 561.038 573.364 560.209 574.057C559.391 574.75 558.771 575.693 558.351 576.886C557.942 578.08 557.737 579.438 557.737 580.96C557.737 582.483 557.942 583.841 558.351 585.034C558.771 586.227 559.391 587.17 560.209 587.864C561.038 588.545 562.061 588.886 563.277 588.886ZM597.641 582.852V567.818H604.902V594H597.93V589.244H597.658C597.067 590.778 596.084 592.011 594.709 592.943C593.345 593.875 591.68 594.341 589.714 594.341C587.964 594.341 586.425 593.943 585.095 593.148C583.766 592.352 582.726 591.222 581.976 589.756C581.237 588.29 580.862 586.534 580.851 584.489V567.818H588.112V583.193C588.124 584.739 588.538 585.96 589.357 586.858C590.175 587.756 591.271 588.205 592.646 588.205C593.521 588.205 594.339 588.006 595.101 587.608C595.862 587.199 596.476 586.597 596.942 585.801C597.419 585.006 597.652 584.023 597.641 582.852ZM610.71 594V567.818H617.75V572.386H618.023C618.5 570.761 619.301 569.534 620.426 568.705C621.551 567.864 622.847 567.443 624.312 567.443C624.676 567.443 625.068 567.466 625.489 567.511C625.909 567.557 626.278 567.619 626.597 567.699V574.142C626.256 574.04 625.784 573.949 625.182 573.869C624.58 573.79 624.028 573.75 623.528 573.75C622.46 573.75 621.506 573.983 620.665 574.449C619.835 574.903 619.176 575.54 618.688 576.358C618.21 577.176 617.972 578.119 617.972 579.188V594H610.71ZM118.062 666L110.938 639.818H118.284L122.341 657.409H122.58L126.807 639.818H134.017L138.312 657.307H138.534L142.523 639.818H149.852L142.744 666H135.057L130.557 649.534H130.233L125.733 666H118.062ZM164.899 666.511C162.251 666.511 159.962 665.949 158.03 664.824C156.109 663.687 154.626 662.108 153.581 660.085C152.536 658.051 152.013 655.693 152.013 653.011C152.013 650.307 152.536 647.943 153.581 645.92C154.626 643.886 156.109 642.307 158.03 641.182C159.962 640.045 162.251 639.477 164.899 639.477C167.547 639.477 169.831 640.045 171.751 641.182C173.683 642.307 175.172 643.886 176.217 645.92C177.263 647.943 177.786 650.307 177.786 653.011C177.786 655.693 177.263 658.051 176.217 660.085C175.172 662.108 173.683 663.687 171.751 664.824C169.831 665.949 167.547 666.511 164.899 666.511ZM164.933 660.886C166.138 660.886 167.143 660.545 167.95 659.864C168.757 659.17 169.365 658.227 169.774 657.034C170.195 655.841 170.405 654.483 170.405 652.96C170.405 651.438 170.195 650.08 169.774 648.886C169.365 647.693 168.757 646.75 167.95 646.057C167.143 645.364 166.138 645.017 164.933 645.017C163.717 645.017 162.695 645.364 161.865 646.057C161.047 646.75 160.428 647.693 160.007 648.886C159.598 650.08 159.393 651.438 159.393 652.96C159.393 654.483 159.598 655.841 160.007 657.034C160.428 658.227 161.047 659.17 161.865 659.864C162.695 660.545 163.717 660.886 164.933 660.886ZM182.507 666V639.818H189.547V644.386H189.82C190.297 642.761 191.098 641.534 192.223 640.705C193.348 639.864 194.643 639.443 196.109 639.443C196.473 639.443 196.865 639.466 197.286 639.511C197.706 639.557 198.075 639.619 198.393 639.699V646.142C198.053 646.04 197.581 645.949 196.979 645.869C196.376 645.79 195.825 645.75 195.325 645.75C194.257 645.75 193.303 645.983 192.462 646.449C191.632 646.903 190.973 647.54 190.484 648.358C190.007 649.176 189.768 650.119 189.768 651.188V666H182.507ZM208.727 658.466L208.744 649.756H209.801L218.188 639.818H226.523L215.256 652.977H213.534L208.727 658.466ZM202.148 666V631.091H209.409V666H202.148ZM218.511 666L210.807 654.597L215.648 649.466L227.017 666H218.511ZM244.165 639.818V645.273H228.006V639.818H244.165ZM231.705 666V637.926C231.705 636.028 232.074 634.455 232.812 633.205C233.562 631.955 234.585 631.017 235.881 630.392C237.176 629.767 238.648 629.455 240.295 629.455C241.409 629.455 242.426 629.54 243.347 629.71C244.278 629.881 244.972 630.034 245.426 630.17L244.131 635.625C243.847 635.534 243.494 635.449 243.074 635.369C242.665 635.29 242.244 635.25 241.812 635.25C240.744 635.25 240 635.5 239.58 636C239.159 636.489 238.949 637.176 238.949 638.062V666H231.705ZM255.862 631.091V666H248.601V631.091H255.862ZM273.509 666.511C270.861 666.511 268.571 665.949 266.639 664.824C264.719 663.687 263.236 662.108 262.19 660.085C261.145 658.051 260.622 655.693 260.622 653.011C260.622 650.307 261.145 647.943 262.19 645.92C263.236 643.886 264.719 642.307 266.639 641.182C268.571 640.045 270.861 639.477 273.509 639.477C276.156 639.477 278.44 640.045 280.361 641.182C282.293 642.307 283.781 643.886 284.827 645.92C285.872 647.943 286.395 650.307 286.395 653.011C286.395 655.693 285.872 658.051 284.827 660.085C283.781 662.108 282.293 663.687 280.361 664.824C278.44 665.949 276.156 666.511 273.509 666.511ZM273.543 660.886C274.747 660.886 275.753 660.545 276.56 659.864C277.366 659.17 277.974 658.227 278.384 657.034C278.804 655.841 279.014 654.483 279.014 652.96C279.014 651.438 278.804 650.08 278.384 648.886C277.974 647.693 277.366 646.75 276.56 646.057C275.753 645.364 274.747 645.017 273.543 645.017C272.327 645.017 271.304 645.364 270.474 646.057C269.656 646.75 269.037 647.693 268.616 648.886C268.207 650.08 268.003 651.438 268.003 652.96C268.003 654.483 268.207 655.841 268.616 657.034C269.037 658.227 269.656 659.17 270.474 659.864C271.304 660.545 272.327 660.886 273.543 660.886ZM295.625 666L288.5 639.818H295.847L299.903 657.409H300.142L304.369 639.818H311.58L315.875 657.307H316.097L320.085 639.818H327.415L320.307 666H312.619L308.119 649.534H307.795L303.295 666H295.625Z" fill="#312E43"/>
</g>
<defs>
<clipPath id="clip0_3_5047">
<rect width="778" height="900" fill="white"/>
</clipPath>
</defs>
</svg>
