<svg width="22" height="12" viewBox="0 0 22 12" fill="none" xmlns="http://www.w3.org/2000/svg">
<path d="M10.45 5.44999L6.05001 1.04999C5.90414 0.904123 5.7063 0.822175 5.50001 0.822175C5.29372 0.822175 5.09588 0.904123 4.95001 1.04999L0.550014 5.44999C0.404146 5.59585 0.322197 5.7937 0.322196 5.99999C0.322197 6.20628 0.404146 6.40412 0.550015 6.54998L4.95001 10.95C5.09588 11.0958 5.29372 11.1778 5.50001 11.1778C5.7063 11.1778 5.90414 11.0958 6.05001 10.95L10.45 6.54998C10.5959 6.40411 10.6778 6.20627 10.6778 5.99999C10.6778 5.7937 10.5959 5.59585 10.45 5.44999ZM5.50001 9.29998L2.20001 5.99998L5.50001 2.69999L8.8 5.99999L5.50001 9.29998ZM21.615 6.29698C21.6936 6.10678 21.6936 5.89319 21.615 5.70298C21.577 5.60868 21.521 5.52273 21.45 5.44999L18.15 2.14999C18.0041 2.00412 17.8063 1.92217 17.6 1.92217C17.3937 1.92217 17.1959 2.00412 17.05 2.14999C16.9041 2.29586 16.8222 2.4937 16.8222 2.69999C16.8222 2.90628 16.9041 3.10412 17.05 3.24999L19.0245 5.22449L13.2 5.21899C13.0973 5.21857 12.9956 5.23848 12.9006 5.27758C12.8057 5.31668 12.7194 5.37419 12.6468 5.4468C12.5742 5.5194 12.5167 5.60567 12.4776 5.70061C12.4385 5.79556 12.4186 5.8973 12.419 5.99999C12.4186 6.10266 12.4385 6.20441 12.4776 6.29936C12.5167 6.3943 12.5742 6.48057 12.6468 6.55317C12.7194 6.62578 12.8057 6.68329 12.9006 6.72239C12.9956 6.76149 13.0973 6.78141 13.2 6.78098L19.0245 6.77548L17.05 8.74998C16.9041 8.89585 16.8222 9.09369 16.8222 9.29998C16.8222 9.50627 16.9041 9.70411 17.05 9.84998C17.1959 9.99585 17.3937 10.0778 17.6 10.0778C17.8063 10.0778 18.0041 9.99585 18.15 9.84998L21.45 6.54998C21.521 6.47724 21.577 6.39129 21.615 6.29698Z" fill="#F93E6C"/>
</svg>
