<svg width="11" height="8" viewBox="0 0 11 8" fill="none" xmlns="http://www.w3.org/2000/svg">
<path d="M10.9463 4.41333C10.9146 4.3315 10.867 4.25674 10.8063 4.19333L8.80634 2.19333C8.68081 2.0678 8.51054 1.99727 8.33301 1.99727C8.15547 1.99727 7.98521 2.0678 7.85968 2.19333C7.73414 2.31887 7.66361 2.48913 7.66361 2.66667C7.66361 2.8442 7.73414 3.01446 7.85968 3.14L8.72634 4H2.33301C2.1562 4 1.98663 3.92976 1.8616 3.80474C1.73658 3.67971 1.66634 3.51014 1.66634 3.33333V0.666667C1.66634 0.489856 1.5961 0.320287 1.47108 0.195262C1.34605 0.070238 1.17649 0 0.999674 0C0.822863 0 0.653294 0.070238 0.52827 0.195262C0.403246 0.320287 0.333008 0.489856 0.333008 0.666667V3.33333C0.333008 3.86377 0.543722 4.37247 0.918794 4.74755C1.29387 5.12262 1.80257 5.33333 2.33301 5.33333H8.72634L7.85968 6.19333C7.79719 6.25531 7.74759 6.32904 7.71375 6.41028C7.6799 6.49152 7.66248 6.57866 7.66248 6.66667C7.66248 6.75467 7.6799 6.84181 7.71375 6.92305C7.74759 7.00429 7.79719 7.07802 7.85968 7.14C7.92165 7.20249 7.99538 7.25208 8.07662 7.28593C8.15786 7.31977 8.245 7.3372 8.33301 7.3372C8.42102 7.3372 8.50815 7.31977 8.58939 7.28593C8.67063 7.25208 8.74437 7.20249 8.80634 7.14L10.8063 5.14C10.867 5.0766 10.9146 5.00183 10.9463 4.92C11.013 4.75769 11.013 4.57564 10.9463 4.41333Z" fill="#83828E"/>
</svg>
